<svg width="20" height="20" viewBox="0 0 20 20" fill="none" xmlns="http://www.w3.org/2000/svg">
<path fill-rule="evenodd" clip-rule="evenodd" d="M9.16672 2.65838C9.22429 2.47584 9.33854 2.31641 9.49289 2.20324C9.64725 2.09007 9.83366 2.02905 10.0251 2.02905C10.2165 2.02905 10.4029 2.09007 10.5572 2.20324C10.7116 2.31641 10.8258 2.47584 10.8834 2.65838L12.4334 7.42505H17.4334C17.6316 7.41755 17.8269 7.47516 17.9893 7.58908C18.1517 7.70299 18.2724 7.86695 18.3328 8.05589C18.3933 8.24484 18.3902 8.44838 18.3241 8.63542C18.258 8.82247 18.1325 8.98273 17.9667 9.09171L13.9084 12.0334L15.4584 16.8084C15.5197 16.9903 15.5212 17.187 15.4628 17.3698C15.4044 17.5526 15.289 17.712 15.1336 17.8246C14.9781 17.9372 14.7908 17.9972 14.5989 17.9958C14.4069 17.9944 14.2205 17.9316 14.0667 17.8167L10.0001 14.8417L5.94172 17.7917C5.78798 17.9066 5.60153 17.9694 5.40959 17.9708C5.21766 17.9722 5.0303 17.9122 4.87487 17.7996C4.71944 17.687 4.60408 17.5276 4.54565 17.3448C4.48721 17.162 4.48876 16.9653 4.55006 16.7834L6.10006 12.0084L2.04172 9.06671C1.87596 8.95773 1.75043 8.79747 1.68432 8.61042C1.61821 8.42338 1.61516 8.21984 1.67562 8.03089C1.73608 7.84195 1.85674 7.67799 2.01915 7.56408C2.18157 7.45016 2.37681 7.39255 2.57506 7.40005H7.57506L9.16672 2.65838Z" stroke="#90A3BF" stroke-width="1.5" stroke-linecap="round" stroke-linejoin="round"/>
</svg>
