<svg width="37" height="33" viewBox="0 0 37 33" fill="none" xmlns="http://www.w3.org/2000/svg">
<path fill-rule="evenodd" clip-rule="evenodd" d="M14.1242 33H22.1942C27.8617 33 30.6963 33 32.732 31.6525C33.6103 31.0713 34.3668 30.3213 34.9583 29.4452C36.3184 27.4285 36.3184 24.618 36.3184 19.0007C36.3184 13.3816 36.3184 10.5729 34.9583 8.55623C34.3668 7.6801 33.6104 6.93007 32.732 6.3489C31.4245 5.48174 29.7866 5.17191 27.2788 5.06191C26.0821 5.06191 25.0524 4.16358 24.8182 2.99941C24.6392 2.14667 24.174 1.38248 23.5014 0.835993C22.8287 0.289505 21.9898 -0.00576548 21.1264 8.53063e-05H15.192C13.3979 8.53063e-05 11.8525 1.25592 11.5002 2.99941C11.266 4.16358 10.2363 5.06191 9.03966 5.06191C6.53368 5.17191 4.89572 5.48357 3.58644 6.3489C2.70866 6.93018 1.95279 7.68022 1.36194 8.55623C0 10.5729 0 13.3816 0 19.0007C0 24.618 1.08237e-07 27.4267 1.36013 29.4452C1.94848 30.3178 2.70391 31.0677 3.58644 31.6525C5.62209 33 8.45674 33 14.1242 33ZM18.1592 11.5006C13.9808 11.5006 10.5923 14.8574 10.5923 18.9989C10.5923 23.1422 13.9808 26.499 18.1592 26.499C22.3376 26.499 25.7262 23.1422 25.7262 19.0007C25.7262 14.8574 22.3376 11.5006 18.1592 11.5006ZM18.1592 14.4999C15.6532 14.4999 13.6194 16.5147 13.6194 19.0007C13.6194 21.4849 15.6532 23.4997 18.1592 23.4997C20.6652 23.4997 22.699 21.4849 22.699 19.0007C22.699 16.5147 20.6652 14.4999 18.1592 14.4999ZM26.734 13.0002C26.734 12.1716 27.4113 11.5006 28.2485 11.5006H30.2641C31.0995 11.5006 31.7786 12.1716 31.7786 13.0002C31.7748 13.4015 31.6133 13.7849 31.3297 14.0661C31.0461 14.3473 30.6635 14.5033 30.266 14.4999H28.2485C28.0515 14.5018 27.8561 14.4646 27.6733 14.3902C27.4906 14.3159 27.3242 14.206 27.1836 14.0667C27.0429 13.9275 26.9308 13.7616 26.8537 13.5786C26.7766 13.3956 26.7359 13.1991 26.734 13.0002Z" fill="#929292"/>
</svg>
