<svg width="25" height="20" viewBox="0 0 25 20" fill="none" xmlns="http://www.w3.org/2000/svg">
<path opacity="0.5" d="M17.7693 13.1245L17.2761 12.7432L15.741 11.5565L15.4568 11.3368L15.5743 10.9974C15.6861 10.6743 15.7454 10.3353 15.75 9.9934L17.7693 13.1245ZM17.7693 13.1245L18.0345 12.5603M17.7693 13.1245L18.0345 12.5603M18.0345 12.5603C18.3975 11.7878 18.6249 10.9285 18.6249 10.0003M18.0345 12.5603L18.6249 10.0003M12.2559 6.76309C12.5471 6.73635 12.8416 6.74954 13.1311 6.8031C13.6234 6.89418 14.0875 7.09945 14.4861 7.40242C14.8847 7.70539 15.2066 8.09762 15.4261 8.54761C15.6456 8.99757 15.7565 9.49273 15.75 9.99332L12.2559 6.76309ZM12.2559 6.76309C12.3338 6.9991 12.3745 7.24742 12.3749 7.49909L12.3749 7.51057L12.3744 7.52203C12.367 7.69027 12.3413 7.85719 12.2978 8.01986L12.1035 8.7457L11.509 8.28622L8.63361 6.06396L8.14142 5.68356L8.61875 5.28467C9.70741 4.37491 11.0808 3.87603 12.4995 3.87498L12.4996 3.87498C13.3041 3.87453 14.1009 4.03266 14.8442 4.34033C15.5876 4.64799 16.263 5.09916 16.8319 5.66804C17.4007 6.23691 17.8519 6.91233 18.1596 7.65569C18.4672 8.39904 18.6254 9.19575 18.6249 10.0003M12.2559 6.76309L18.6249 10.0003M12.4999 16.125L12.5046 16.125C12.7991 16.1222 13.0929 16.0983 13.3838 16.0533L14.3887 16.8308C13.7708 16.9389 13.1415 17 12.4999 17C7.89951 17 3.87084 14.3214 1.83152 10.3436C1.77788 10.2371 1.74994 10.1195 1.74994 10.0002C1.74994 9.88086 1.77789 9.76321 1.83156 9.65666C2.13741 9.05952 2.5044 8.49893 2.90962 7.95957L6.44053 10.6884C6.78431 13.7423 9.34685 16.125 12.4999 16.125ZM20.1179 14.1747L19.6443 14.5738L20.1344 14.9526L24.4518 18.2894C24.4519 18.2895 24.452 18.2895 24.4521 18.2896C24.4781 18.31 24.495 18.3398 24.4991 18.3725C24.5032 18.4054 24.4941 18.4386 24.4738 18.4647L23.7067 19.4517L23.7067 19.4518C23.6966 19.4648 23.6841 19.4756 23.6698 19.4837C23.6555 19.4918 23.6398 19.4971 23.6235 19.4991C23.6072 19.5012 23.5906 19.5 23.5748 19.4956C23.559 19.4913 23.5442 19.4838 23.5312 19.4737L23.5299 19.4727L0.548266 1.71075C0.548144 1.71066 0.548022 1.71056 0.5479 1.71047C0.521941 1.69012 0.505068 1.66034 0.50097 1.6276C0.496853 1.59471 0.505969 1.56153 0.526313 1.53536L0.526417 1.53523L1.29317 0.54818C1.29318 0.54816 1.2932 0.548139 1.29321 0.548119C1.30328 0.535178 1.3158 0.524345 1.33005 0.516235C1.34432 0.508113 1.36006 0.502884 1.37635 0.500845C1.39265 0.498806 1.40919 0.499998 1.42502 0.504354C1.44085 0.508709 1.45568 0.516141 1.46864 0.526227L1.46863 0.526229L1.46993 0.527228L6.43946 4.36824L6.69804 4.5681L6.98487 4.41146C8.67652 3.48765 10.5727 3.00238 12.5001 2.99998C17.1005 3.00006 21.1292 5.6787 23.1684 9.65654C23.222 9.76302 23.2499 9.88057 23.2499 9.99978C23.2499 10.119 23.222 10.2366 23.1684 10.3431C22.4155 11.8098 21.3786 13.1122 20.1179 14.1747Z" stroke="#18345E"/>
</svg>
