<svg width="518" height="467" viewBox="0 0 518 467" fill="none" xmlns="http://www.w3.org/2000/svg">
<path d="M379.151 313.23C397.855 307.981 432.005 293.306 444.393 282.192C458.654 270.585 429.817 256.721 426.404 254.65C422.991 252.579 254.98 165.116 225.644 151.515C196.307 137.914 102.065 163.548 79.1283 175.699C60.4324 185.604 73.3598 193.122 75.7865 195.174C78.2132 197.225 217.997 278.759 268.325 303.794C306.438 322.753 342.439 323.533 379.151 313.23Z" fill="black" fill-opacity="0.1"/>
<path d="M291.475 223.549C291.206 222.835 271.36 219.079 261.471 217.29C257.749 220.289 250.159 226.603 249.567 227.867C248.827 229.447 249.289 242.039 256.904 251.403C264.518 260.768 282.149 247.29 287.682 245.272C293.216 243.254 291.812 224.441 291.475 223.549Z" fill="#2C2C2C"/>
<path d="M149.027 149.504C148.758 148.79 128.912 145.034 119.023 143.245C115.301 146.244 107.711 152.558 107.119 153.822C106.379 155.403 106.841 167.994 114.456 177.359C122.07 186.723 139.701 173.246 145.234 171.228C150.768 169.209 149.364 150.397 149.027 149.504Z" fill="#131313"/>
<path fill-rule="evenodd" clip-rule="evenodd" d="M263.972 229.386L282.912 221.05L282.915 221.058C283.032 221.004 283.15 220.952 283.269 220.902C294.547 216.103 310.274 227.783 318.395 246.988C326.516 266.193 323.957 285.651 312.679 290.45C312.541 290.509 312.402 290.565 312.262 290.619L293.962 298.685L284.374 276.53C281.785 272.966 279.459 268.872 277.553 264.363C275.794 260.204 274.536 256.032 273.759 252L263.972 229.386Z" fill="black"/>
<ellipse cx="22.2013" cy="37.7107" rx="22.2013" ry="37.7107" transform="matrix(-0.919818 0.391314 0.389647 0.921402 284.941 220.528)" fill="black"/>
<g filter="url(#filter0_i_2_4186)">
<ellipse cx="16.6518" cy="28.2844" rx="16.6518" ry="28.2844" transform="matrix(-0.919818 0.391314 0.389647 0.921402 282.871 231.392)" fill="url(#paint0_linear_2_4186)"/>
</g>
<g filter="url(#filter1_di_2_4186)">
<path fill-rule="evenodd" clip-rule="evenodd" d="M280.909 244.696C282.833 246.094 284.703 247.935 286.411 250.138L281.394 258.472C281.154 258.18 280.907 257.906 280.655 257.651L280.909 244.696ZM280.359 272.751C280.472 272.764 280.584 272.772 280.695 272.776L287.754 285.613L287.721 285.627C285.396 286.616 282.769 286.483 280.111 285.429L280.359 272.751ZM277.866 284.326L278.11 271.9C277.614 271.589 277.123 271.201 276.65 270.745L271.683 278.994C273.621 281.261 275.729 283.074 277.866 284.326ZM278.422 255.989L278.671 243.283C275.459 241.56 272.21 241.118 269.403 242.312C268.621 242.645 267.905 243.091 267.259 243.638L274.179 256.222C274.43 256.01 274.707 255.837 275.011 255.708C276.046 255.267 277.236 255.4 278.422 255.989ZM265.834 269.385C267.045 272.249 268.529 274.845 270.181 277.096L275.106 268.916C274.709 268.345 274.341 267.721 274.01 267.053L265.718 269.108C265.756 269.2 265.795 269.292 265.834 269.385ZM282.792 260.543L287.851 252.14C289.14 254.073 290.305 256.225 291.291 258.554C291.532 259.125 291.758 259.695 291.969 260.266L283.636 262.331C283.594 262.224 283.55 262.117 283.505 262.011C283.288 261.499 283.049 261.009 282.792 260.543ZM264.903 266.973C263.705 263.54 263.05 260.146 262.909 257.011L272.652 262.91C272.763 263.57 272.928 264.247 273.148 264.93L264.903 266.973ZM284.316 264.499C284.559 265.553 284.668 266.576 284.649 267.523L294.221 273.319C294.361 269.98 293.867 266.244 292.698 262.422L284.316 264.499ZM293.986 275.828L284.263 269.94C283.967 270.83 283.505 271.559 282.886 272.056L289.696 284.441C291.975 282.609 293.429 279.56 293.986 275.828ZM262.915 254.364L272.507 260.171C272.552 259.553 272.656 258.974 272.816 258.447L265.643 245.403C264.028 247.656 263.101 250.773 262.915 254.364Z" fill="#4C4C4C"/>
</g>
<path fill-rule="evenodd" clip-rule="evenodd" d="M263.989 228.991L282.928 220.655L282.93 220.659C283.049 220.605 283.168 220.552 283.288 220.501C294.566 215.703 310.293 227.382 318.414 246.587C326.536 265.792 323.976 285.251 312.698 290.049C312.589 290.096 312.479 290.141 312.368 290.184L293.979 298.29L284.381 276.111C281.797 272.552 279.476 268.464 277.572 263.963C275.816 259.811 274.56 255.647 273.783 251.622L263.989 228.991Z" fill="black"/>
<path d="M258.746 273.02C266.767 291.987 282.274 303.532 293.382 298.806C304.491 294.081 306.993 274.874 298.973 255.907C290.952 236.94 274.99 224.374 263.882 229.099C252.774 233.825 250.726 254.053 258.746 273.02Z" fill="#222222"/>
<g filter="url(#filter2_i_2_4186)">
<ellipse cx="15.6072" cy="27.275" rx="15.6072" ry="27.275" transform="matrix(-0.915913 0.401529 0.376487 0.926407 282.788 232.438)" fill="url(#paint1_linear_2_4186)"/>
</g>
<g filter="url(#filter3_di_2_4186)">
<path fill-rule="evenodd" clip-rule="evenodd" d="M270.545 273.345C273.385 278.075 277.053 281.433 280.605 282.688L275.87 271.269L270.545 273.345ZM267.635 267.17C265.288 260.606 265.158 254.143 266.982 249.837L272.767 263.786C272.866 264.198 272.982 264.614 273.117 265.032L267.635 267.17ZM283.642 260.927C281.81 256.958 278.795 254.381 276.251 254.477L272.27 244.875C277.892 243.508 285.135 249.403 289.124 258.789L283.642 260.927ZM291.173 265.3L285.168 267.642C285.138 269.616 284.618 271.29 283.653 272.325L287.636 281.929C291.38 279.211 292.691 272.637 291.173 265.3Z" fill="#A9A8A8"/>
</g>
<path fill-rule="evenodd" clip-rule="evenodd" d="M124.445 156.463L141.662 152.37L141.664 152.379C141.775 152.35 141.887 152.323 141.999 152.298C152.226 150 163.66 162.251 167.538 179.662C171.416 197.072 166.269 213.049 156.042 215.348C155.906 215.378 155.771 215.406 155.635 215.431L139.014 219.393L134.342 199.213C132.725 195.831 131.408 192.048 130.503 187.984C129.668 184.236 129.252 180.555 129.214 177.062L124.445 156.463Z" fill="black"/>
<ellipse cx="18.9905" cy="32.2527" rx="18.9905" ry="32.2527" transform="matrix(-0.975083 0.219112 0.217533 0.976668 143.438 152.241)" fill="black"/>
<g filter="url(#filter4_i_2_4186)">
<ellipse cx="14.2436" cy="24.1907" rx="14.2436" ry="24.1907" transform="matrix(-0.975083 0.219112 0.217533 0.976668 140.025 161.062)" fill="url(#paint2_linear_2_4186)"/>
</g>
<g filter="url(#filter5_di_2_4186)">
<path fill-rule="evenodd" clip-rule="evenodd" d="M136.316 171.945C137.723 173.42 139.016 175.259 140.116 177.38L134.607 183.623C134.45 183.338 134.283 183.067 134.108 182.812L136.316 171.945ZM131.536 195.473C131.632 195.502 131.729 195.528 131.825 195.548L135.789 207.436L135.758 207.442C133.647 207.917 131.454 207.398 129.377 206.097L131.536 195.473ZM127.659 204.821L129.775 194.409C129.406 194.073 129.055 193.672 128.728 193.218L123.285 199.387C124.564 201.59 126.056 203.438 127.659 204.821ZM132.485 181.069L134.65 170.413C132.216 168.473 129.554 167.603 127.012 168.174C126.302 168.334 125.632 168.599 125.004 168.959L128.887 180.608C129.129 180.47 129.387 180.369 129.659 180.308C130.598 180.097 131.578 180.392 132.485 181.069ZM119.843 190.402C120.421 192.998 121.27 195.411 122.313 197.558L127.709 191.442C127.462 190.899 127.247 190.316 127.072 189.7L119.788 190.15C119.806 190.234 119.824 190.318 119.843 190.402ZM135.464 185.582L141.019 179.286C141.807 181.111 142.456 183.102 142.927 185.215C143.042 185.731 143.144 186.246 143.234 186.758L135.897 187.211C135.878 187.114 135.858 187.018 135.836 186.921C135.733 186.459 135.608 186.012 135.464 185.582ZM119.431 188.228C118.952 185.157 118.923 182.203 119.286 179.545L126.566 186.002C126.558 186.575 126.592 187.171 126.673 187.781L119.431 188.228ZM136.135 189.14C136.178 190.064 136.112 190.941 135.951 191.734L143.12 198.093C143.752 195.304 143.911 192.083 143.515 188.684L136.135 189.14ZM142.536 200.167L135.255 193.709C134.87 194.41 134.372 194.951 133.777 195.275L137.602 206.749C139.801 205.559 141.492 203.22 142.536 200.167ZM119.698 177.318L126.866 183.676C127 183.159 127.178 182.684 127.396 182.263L123.373 170.195C121.666 171.843 120.406 174.324 119.698 177.318Z" fill="#4C4C4C"/>
</g>
<path fill-rule="evenodd" clip-rule="evenodd" d="M134.609 201.064C132.088 196.843 130.057 191.774 128.809 186.171C127.632 180.887 127.287 175.736 127.662 171.058L124.387 156.911L133.509 154.741C135.397 152.562 137.684 151.074 140.305 150.485C150.532 148.187 161.966 160.438 165.844 177.849C169.548 194.48 165.017 209.804 155.69 213.145L155.957 214.289L138.955 219.84L134.609 201.064Z" fill="black"/>
<ellipse cx="18.9297" cy="32.1494" rx="18.9297" ry="32.1494" transform="matrix(-0.975083 0.219112 0.217533 0.976668 143.173 152.933)" fill="#222222"/>
<g filter="url(#filter6_i_2_4186)">
<g filter="url(#filter7_i_2_4186)">
<ellipse cx="13.3625" cy="23.3572" rx="13.3625" ry="23.3572" transform="matrix(-0.979423 0.19867 0.211881 0.977913 139.488 162.938)" fill="url(#paint3_linear_2_4186)"/>
</g>
<g filter="url(#filter8_di_2_4186)">
<path fill-rule="evenodd" clip-rule="evenodd" d="M121.652 191.861C123.099 197.303 125.89 201.689 129.034 203.891L126.65 191.162L121.652 191.861ZM120.69 185.928C120.403 181.034 121.441 176.728 123.453 174.087L125.543 185.249L120.69 185.928ZM134.547 183.989C133.499 181.923 132.034 180.48 130.543 180.102L128.904 171.353C133.181 171.62 137.558 176.43 139.805 183.254L134.547 183.989ZM141.108 189.139C142.04 196.983 139.635 203.688 135.233 205.144L133.595 196.397C135.233 195.467 136.173 192.91 136.05 189.847L141.108 189.139Z" fill="#A9A8A8"/>
</g>
</g>
<g filter="url(#filter9_ii_2_4186)">
<path d="M441.93 253.309C444.595 248.372 444.053 243.91 444.258 239.894L444.459 229.641C444.618 221.498 444.832 214.524 444.807 211.848C444.782 209.172 447.88 201.5 433.987 186.897C421.512 173.785 393.834 158.318 386.902 156.317C379.97 154.315 351.296 111.362 340.487 102.859C308.202 77.4626 225.581 52.0501 205.032 51.6475C193.139 50.9099 142.881 74.6951 137.264 78.0124C108.219 95.1651 127.753 88.4125 106.023 114.933C104.731 116.216 103.707 122.472 103.683 126.524C103.678 127.377 103.551 128.228 103.226 129.016L103.07 129.396C102.517 130.737 101.904 132.226 101.819 132.579C101.061 135.749 102.842 151.602 102.781 154.678C102.711 158.272 101.871 164.777 102.512 168.42C103.153 172.063 112.12 180.917 112.231 179.821C112.31 175.789 112.592 175.072 113.78 168.641C116.76 158.637 121.684 154.278 125.55 153.544C133.636 152.007 140.934 155.467 146.549 165.752C156.21 183.449 153.296 195.059 153.54 203.25C153.593 205.026 154.703 206.545 156.263 207.394L248.863 257.785C251.376 259.152 254.247 257.078 254.143 254.219C253.979 249.72 254.452 228.572 267.632 224.31C279.246 220.555 293.631 235.373 300.292 247.291C305.361 256.358 309.192 273.941 310.298 285.146C310.496 287.15 311.616 288.98 313.406 289.902C321.271 293.956 339.547 301.7 366.165 293.91C426.547 276.237 439.271 258.234 441.93 253.309Z" fill="url(#paint4_linear_2_4186)"/>
</g>
<mask id="mask0_2_4186" style="mask-type:alpha" maskUnits="userSpaceOnUse" x="101" y="51" width="345" height="247">
<path d="M441.93 253.309C444.595 248.372 444.053 243.91 444.258 239.894L444.459 229.641C444.618 221.498 444.832 214.524 444.807 211.848C444.782 209.172 447.88 201.5 433.987 186.897C421.512 173.785 393.834 158.318 386.902 156.317C379.97 154.315 351.296 111.362 340.487 102.859C308.202 77.4626 225.581 52.0501 205.032 51.6475C193.139 50.9099 142.881 74.6951 137.264 78.0124C108.219 95.1651 127.753 88.4125 106.023 114.933C104.731 116.216 103.707 122.472 103.683 126.524C103.678 127.377 103.551 128.228 103.226 129.016L103.07 129.396C102.517 130.737 101.904 132.226 101.819 132.579C101.061 135.749 102.842 151.602 102.781 154.678C102.711 158.272 101.871 164.777 102.512 168.42C103.153 172.063 112.12 180.917 112.231 179.821C112.342 178.725 113.053 172.568 112.892 168.312C113.037 160.919 119.335 154.725 125.55 153.544C133.636 152.007 140.949 154.718 146.564 165.003C157.082 184.27 152.048 194.628 151.789 202.526C151.731 204.306 152.864 205.834 154.43 206.681L248.689 257.708C251.208 259.072 254.09 256.919 253.986 254.056C253.822 249.557 254.452 228.572 267.632 224.31C279.246 220.555 293.631 235.373 300.292 247.291C305.361 256.358 309.192 273.941 310.298 285.146C310.496 287.15 311.616 288.98 313.406 289.902C321.271 293.956 339.547 301.7 366.165 293.91C426.547 276.237 439.271 258.234 441.93 253.309Z" fill="url(#paint5_linear_2_4186)"/>
</mask>
<g mask="url(#mask0_2_4186)">
<g filter="url(#filter10_ddi_2_4186)">
<path d="M284.254 187.224C275.106 179.868 275.59 170.95 263.13 146.453C261.338 142.93 262.886 138.575 266.555 137.104L337.9 108.496C340.294 107.535 343.237 107.585 345.02 109.449C348.021 112.584 353.841 119.397 365.133 134.048C373.845 145.353 375.489 148.163 382 155.025C382.776 155.842 381.126 157.936 377.636 160.699C366.51 169.505 300.305 200.13 284.254 187.224Z" fill="url(#paint6_linear_2_4186)"/>
</g>
<g filter="url(#filter11_di_2_4186)">
<path d="M194.193 106.775C173.14 95.9069 167.328 94.5283 152.336 99.9055C144.758 102.624 135.389 105.599 133.96 110.71C132.531 115.822 154.144 128.504 160.468 132.166C163.558 133.955 273.905 195.131 271.726 188.22C269.056 179.749 254.15 145.726 248.537 137.081C244.925 131.516 215.247 117.644 194.193 106.775Z" fill="url(#paint7_linear_2_4186)"/>
</g>
<g filter="url(#filter12_f_2_4186)">
<path d="M311.196 231.128C284.193 217.931 269.191 201.734 253.058 186.882C301.665 202.331 403.374 236.048 401.73 238.08C399.675 240.62 392.266 243.537 367.812 244.704C343.737 245.854 314.288 232.639 311.196 231.128Z" fill="url(#paint8_linear_2_4186)" fill-opacity="0.21"/>
</g>
<g filter="url(#filter13_f_2_4186)">
<path d="M417.61 172.747C416.087 171.444 397.025 150.905 382.653 140.585C394.235 164.312 420.688 215.91 423.247 215.704C426.444 215.448 441.101 213 445.597 203.152C450.024 193.456 419.515 174.376 417.61 172.747Z" fill="url(#paint9_linear_2_4186)" fill-opacity="0.13"/>
</g>
<g filter="url(#filter14_di_2_4186)">
<path d="M217.827 178.834C217.84 178.205 217.492 177.623 216.931 177.337L209.057 173.316C207.974 172.763 206.688 173.534 206.665 174.751C206.652 175.384 207.003 175.969 207.567 176.256L215.448 180.264C216.526 180.813 217.804 180.045 217.827 178.834Z" fill="#323232"/>
</g>
<g filter="url(#filter15_di_2_4186)">
<path d="M166.129 154.807C166.141 154.177 165.793 153.596 165.233 153.31L157.358 149.289C156.276 148.736 154.99 149.507 154.966 150.723C154.954 151.357 155.304 151.941 155.868 152.228L163.749 156.237C164.827 156.785 166.105 156.017 166.129 154.807Z" fill="#323232"/>
</g>
<path d="M348.434 176.076L291.255 127.583C284.103 129.369 267.821 136.48 264.713 137.578C260.687 139 260.799 141.302 260.799 141.302C260.775 142.509 260.648 141.662 261.87 144.076C263.897 148.083 265.511 151.655 269.849 161.954C277.3 179.645 278.874 184.094 285.461 188.222C290.422 191.332 300.951 192.125 313.817 188.158C325.318 184.612 338.515 180.312 348.434 176.076Z" fill="#C4C4C4" fill-opacity="0.2"/>
<g opacity="0.17" filter="url(#filter16_f_2_4186)">
<path d="M431.781 199.502C414.595 212.557 376.572 230.955 359.705 233.544" stroke="url(#paint10_linear_2_4186)" stroke-width="74.8065" stroke-linecap="round" stroke-linejoin="round"/>
</g>
<g filter="url(#filter17_ddii_2_4186)">
<path d="M437.594 207.176C440.918 202.869 440.154 199.343 439.771 193.906C439.748 193.578 439.68 193.25 439.595 192.932C438.57 189.121 444.383 198.144 444.899 204.358C445.073 206.457 444.917 207.515 444.683 209.444C444.576 210.327 441.498 216.119 441.745 217.291C441.993 218.462 441.51 227.238 441.527 228.453C441.544 229.668 437.178 237.426 423.682 245.88C412.47 252.903 396.483 257.343 394.849 257.546C393.215 257.748 391.725 252.252 390.548 251.927C387.468 251.076 378.258 254.255 374.828 255.046C370.825 255.969 361.486 258.096 351.354 256.592C338.822 254.733 336.928 253.267 325.501 246.753C319.715 243.454 315.269 237.888 312.64 233.414C311.131 230.848 313.381 228.595 316.185 229.594C324.907 232.699 339.54 237.748 355.876 239.747C383.547 243.132 405.705 230.388 408.879 228.556C422.224 220.854 429.208 218.046 437.594 207.176Z" fill="#272727"/>
</g>
<mask id="mask1_2_4186" style="mask-type:alpha" maskUnits="userSpaceOnUse" x="312" y="201" width="135" height="57">
<path d="M437.608 207.124C437.968 206.658 438.283 206.18 438.558 205.693C440.649 201.996 445.469 199.889 446.185 204.113C446.213 204.277 446.236 204.432 446.256 204.578C446.431 206.677 446.354 208.007 446.121 209.936C446.014 210.819 441.409 215.75 441.657 216.921C441.905 218.092 441.494 225.276 441.443 227.832C441.393 230.388 437.211 237.374 423.72 245.837C412.513 252.867 396.528 257.318 394.894 257.521C393.261 257.724 391.767 252.229 390.59 251.905C387.51 251.056 378.302 254.241 374.872 255.034C370.87 255.96 361.532 258.092 351.399 256.595C338.866 254.744 336.971 253.28 325.54 246.773C319.721 243.46 315.255 237.855 312.628 233.371C311.128 230.81 313.359 228.605 316.163 229.601C324.881 232.7 339.542 237.755 355.911 239.747C383.584 243.114 405.733 230.356 408.906 228.522C422.246 220.812 429.229 217.999 437.608 207.124Z" fill="#272727"/>
</mask>
<g mask="url(#mask1_2_4186)">
<g filter="url(#filter18_d_2_4186)">
<path d="M332.242 233.355L367.337 234.571C367.384 234.757 367.431 234.966 367.473 235.194C367.656 236.184 367.733 237.466 367.383 238.762C367.043 240.025 366.283 241.366 364.674 242.522C363.039 243.697 360.446 244.736 356.364 245.202C353.974 245.475 350.644 245.401 347.228 244.683C343.809 243.965 340.417 242.626 337.805 240.459C336.422 239.311 334.674 236.993 333.202 234.813C332.857 234.302 332.534 233.809 332.242 233.355Z" stroke="white" stroke-opacity="0.9" stroke-width="3.14801"/>
</g>
<g filter="url(#filter19_d_2_4186)">
<path d="M439.653 197.232C439.794 197.579 439.931 197.961 440.053 198.373C440.648 200.38 440.874 203.023 439.517 205.8C439.16 206.531 438.713 206.906 438.382 207.032C438.141 207.124 437.798 207.158 437.279 206.749C436.588 206.205 435.694 206.016 435.016 205.935C434.587 205.884 434.142 205.865 433.709 205.865L439.653 197.232Z" stroke="white" stroke-opacity="0.9" stroke-width="3.14801"/>
</g>
</g>
</g>
<defs>
<filter id="filter0_i_2_4186" x="259.705" y="237.1" width="37.7419" height="53.7398" filterUnits="userSpaceOnUse" color-interpolation-filters="sRGB">
<feFlood flood-opacity="0" result="BackgroundImageFix"/>
<feBlend mode="normal" in="SourceGraphic" in2="BackgroundImageFix" result="shape"/>
<feColorMatrix in="SourceAlpha" type="matrix" values="0 0 0 0 0 0 0 0 0 0 0 0 0 0 0 0 0 0 127 0" result="hardAlpha"/>
<feMorphology radius="1.13343" operator="erode" in="SourceAlpha" result="effect1_innerShadow_2_4186"/>
<feOffset/>
<feGaussianBlur stdDeviation="0.566716"/>
<feComposite in2="hardAlpha" operator="arithmetic" k2="-1" k3="1"/>
<feColorMatrix type="matrix" values="0 0 0 0 0 0 0 0 0 0 0 0 0 0 0 0 0 0 0.25 0"/>
<feBlend mode="normal" in2="shape" result="effect1_innerShadow_2_4186"/>
</filter>
<filter id="filter1_di_2_4186" x="259.509" y="241.413" width="35.4158" height="47.1529" filterUnits="userSpaceOnUse" color-interpolation-filters="sRGB">
<feFlood flood-opacity="0" result="BackgroundImageFix"/>
<feColorMatrix in="SourceAlpha" type="matrix" values="0 0 0 0 0 0 0 0 0 0 0 0 0 0 0 0 0 0 127 0" result="hardAlpha"/>
<feOffset dy="0.453373"/>
<feGaussianBlur stdDeviation="0.34003"/>
<feColorMatrix type="matrix" values="0 0 0 0 1 0 0 0 0 1 0 0 0 0 1 0 0 0 0.41 0"/>
<feBlend mode="normal" in2="BackgroundImageFix" result="effect1_dropShadow_2_4186"/>
<feBlend mode="normal" in="SourceGraphic" in2="effect1_dropShadow_2_4186" result="shape"/>
<feColorMatrix in="SourceAlpha" type="matrix" values="0 0 0 0 0 0 0 0 0 0 0 0 0 0 0 0 0 0 127 0" result="hardAlpha"/>
<feOffset dx="-3.4003" dy="2.26686"/>
<feGaussianBlur stdDeviation="1.70015"/>
<feComposite in2="hardAlpha" operator="arithmetic" k2="-1" k3="1"/>
<feColorMatrix type="matrix" values="0 0 0 0 0 0 0 0 0 0 0 0 0 0 0 0 0 0 0.25 0"/>
<feBlend mode="normal" in2="shape" result="effect2_innerShadow_2_4186"/>
</filter>
<filter id="filter2_i_2_4186" x="261.159" y="237.933" width="35.2043" height="52.0787" filterUnits="userSpaceOnUse" color-interpolation-filters="sRGB">
<feFlood flood-opacity="0" result="BackgroundImageFix"/>
<feBlend mode="normal" in="SourceGraphic" in2="BackgroundImageFix" result="shape"/>
<feColorMatrix in="SourceAlpha" type="matrix" values="0 0 0 0 0 0 0 0 0 0 0 0 0 0 0 0 0 0 127 0" result="hardAlpha"/>
<feMorphology radius="1.44099" operator="erode" in="SourceAlpha" result="effect1_innerShadow_2_4186"/>
<feOffset/>
<feGaussianBlur stdDeviation="0.720496"/>
<feComposite in2="hardAlpha" operator="arithmetic" k2="-1" k3="1"/>
<feColorMatrix type="matrix" values="0 0 0 0 0 0 0 0 0 0 0 0 0 0 0 0 0 0 0.25 0"/>
<feBlend mode="normal" in2="shape" result="effect1_innerShadow_2_4186"/>
</filter>
<filter id="filter3_di_2_4186" x="263.888" y="244.556" width="28.5177" height="39.3605" filterUnits="userSpaceOnUse" color-interpolation-filters="sRGB">
<feFlood flood-opacity="0" result="BackgroundImageFix"/>
<feColorMatrix in="SourceAlpha" type="matrix" values="0 0 0 0 0 0 0 0 0 0 0 0 0 0 0 0 0 0 127 0" result="hardAlpha"/>
<feOffset dy="0.491438"/>
<feGaussianBlur stdDeviation="0.307149"/>
<feColorMatrix type="matrix" values="0 0 0 0 1 0 0 0 0 1 0 0 0 0 1 0 0 0 0.59 0"/>
<feBlend mode="normal" in2="BackgroundImageFix" result="effect1_dropShadow_2_4186"/>
<feBlend mode="normal" in="SourceGraphic" in2="effect1_dropShadow_2_4186" result="shape"/>
<feColorMatrix in="SourceAlpha" type="matrix" values="0 0 0 0 0 0 0 0 0 0 0 0 0 0 0 0 0 0 127 0" result="hardAlpha"/>
<feOffset dx="-1.84289" dy="1.2286"/>
<feGaussianBlur stdDeviation="0.921447"/>
<feComposite in2="hardAlpha" operator="arithmetic" k2="-1" k3="1"/>
<feColorMatrix type="matrix" values="0 0 0 0 0 0 0 0 0 0 0 0 0 0 0 0 0 0 0.25 0"/>
<feBlend mode="normal" in2="shape" result="effect2_innerShadow_2_4186"/>
</filter>
<filter id="filter4_i_2_4186" x="116.542" y="163.975" width="29.7124" height="47.6684" filterUnits="userSpaceOnUse" color-interpolation-filters="sRGB">
<feFlood flood-opacity="0" result="BackgroundImageFix"/>
<feBlend mode="normal" in="SourceGraphic" in2="BackgroundImageFix" result="shape"/>
<feColorMatrix in="SourceAlpha" type="matrix" values="0 0 0 0 0 0 0 0 0 0 0 0 0 0 0 0 0 0 127 0" result="hardAlpha"/>
<feMorphology radius="0.969449" operator="erode" in="SourceAlpha" result="effect1_innerShadow_2_4186"/>
<feOffset/>
<feGaussianBlur stdDeviation="0.484725"/>
<feComposite in2="hardAlpha" operator="arithmetic" k2="-1" k3="1"/>
<feColorMatrix type="matrix" values="0 0 0 0 0 0 0 0 0 0 0 0 0 0 0 0 0 0 0.25 0"/>
<feBlend mode="normal" in2="shape" result="effect1_innerShadow_2_4186"/>
</filter>
<filter id="filter5_di_2_4186" x="116.131" y="167.808" width="28.1817" height="41.7466" filterUnits="userSpaceOnUse" color-interpolation-filters="sRGB">
<feFlood flood-opacity="0" result="BackgroundImageFix"/>
<feColorMatrix in="SourceAlpha" type="matrix" values="0 0 0 0 0 0 0 0 0 0 0 0 0 0 0 0 0 0 127 0" result="hardAlpha"/>
<feOffset dy="0.38778"/>
<feGaussianBlur stdDeviation="0.290835"/>
<feColorMatrix type="matrix" values="0 0 0 0 1 0 0 0 0 1 0 0 0 0 1 0 0 0 0.41 0"/>
<feBlend mode="normal" in2="BackgroundImageFix" result="effect1_dropShadow_2_4186"/>
<feBlend mode="normal" in="SourceGraphic" in2="effect1_dropShadow_2_4186" result="shape"/>
<feColorMatrix in="SourceAlpha" type="matrix" values="0 0 0 0 0 0 0 0 0 0 0 0 0 0 0 0 0 0 127 0" result="hardAlpha"/>
<feOffset dx="-2.90835" dy="1.9389"/>
<feGaussianBlur stdDeviation="1.45417"/>
<feComposite in2="hardAlpha" operator="arithmetic" k2="-1" k3="1"/>
<feColorMatrix type="matrix" values="0 0 0 0 0 0 0 0 0 0 0 0 0 0 0 0 0 0 0.25 0"/>
<feBlend mode="normal" in2="shape" result="effect2_innerShadow_2_4186"/>
</filter>
<filter id="filter6_i_2_4186" x="117.354" y="165.436" width="27.9917" height="45.9945" filterUnits="userSpaceOnUse" color-interpolation-filters="sRGB">
<feFlood flood-opacity="0" result="BackgroundImageFix"/>
<feBlend mode="normal" in="SourceGraphic" in2="BackgroundImageFix" result="shape"/>
<feColorMatrix in="SourceAlpha" type="matrix" values="0 0 0 0 0 0 0 0 0 0 0 0 0 0 0 0 0 0 127 0" result="hardAlpha"/>
<feMorphology radius="0.861929" operator="erode" in="SourceAlpha" result="effect1_innerShadow_2_4186"/>
<feOffset/>
<feGaussianBlur stdDeviation="0.430964"/>
<feComposite in2="hardAlpha" operator="arithmetic" k2="-1" k3="1"/>
<feColorMatrix type="matrix" values="0 0 0 0 0 0 0 0 0 0 0 0 0 0 0 0 0 0 0.25 0"/>
<feBlend mode="normal" in2="shape" result="effect1_innerShadow_2_4186"/>
</filter>
<filter id="filter7_i_2_4186" x="117.354" y="165.436" width="27.9917" height="45.9945" filterUnits="userSpaceOnUse" color-interpolation-filters="sRGB">
<feFlood flood-opacity="0" result="BackgroundImageFix"/>
<feBlend mode="normal" in="SourceGraphic" in2="BackgroundImageFix" result="shape"/>
<feColorMatrix in="SourceAlpha" type="matrix" values="0 0 0 0 0 0 0 0 0 0 0 0 0 0 0 0 0 0 127 0" result="hardAlpha"/>
<feMorphology radius="1.49248" operator="erode" in="SourceAlpha" result="effect1_innerShadow_2_4186"/>
<feOffset/>
<feGaussianBlur stdDeviation="0.746242"/>
<feComposite in2="hardAlpha" operator="arithmetic" k2="-1" k3="1"/>
<feColorMatrix type="matrix" values="0 0 0 0 0 0 0 0 0 0 0 0 0 0 0 0 0 0 0.25 0"/>
<feBlend mode="normal" in2="shape" result="effect1_innerShadow_2_4186"/>
</filter>
<filter id="filter8_di_2_4186" x="118.735" y="171.226" width="23.2088" height="35.1904" filterUnits="userSpaceOnUse" color-interpolation-filters="sRGB">
<feFlood flood-opacity="0" result="BackgroundImageFix"/>
<feColorMatrix in="SourceAlpha" type="matrix" values="0 0 0 0 0 0 0 0 0 0 0 0 0 0 0 0 0 0 127 0" result="hardAlpha"/>
<feOffset dy="0.508999"/>
<feGaussianBlur stdDeviation="0.318125"/>
<feColorMatrix type="matrix" values="0 0 0 0 1 0 0 0 0 1 0 0 0 0 1 0 0 0 0.59 0"/>
<feBlend mode="normal" in2="BackgroundImageFix" result="effect1_dropShadow_2_4186"/>
<feBlend mode="normal" in="SourceGraphic" in2="effect1_dropShadow_2_4186" result="shape"/>
<feColorMatrix in="SourceAlpha" type="matrix" values="0 0 0 0 0 0 0 0 0 0 0 0 0 0 0 0 0 0 127 0" result="hardAlpha"/>
<feOffset dx="-1.90875" dy="1.2725"/>
<feGaussianBlur stdDeviation="0.954373"/>
<feComposite in2="hardAlpha" operator="arithmetic" k2="-1" k3="1"/>
<feColorMatrix type="matrix" values="0 0 0 0 0 0 0 0 0 0 0 0 0 0 0 0 0 0 0.25 0"/>
<feBlend mode="normal" in2="shape" result="effect2_innerShadow_2_4186"/>
</filter>
<filter id="filter9_ii_2_4186" x="101.631" y="40.1028" width="352.1" height="257.146" filterUnits="userSpaceOnUse" color-interpolation-filters="sRGB">
<feFlood flood-opacity="0" result="BackgroundImageFix"/>
<feBlend mode="normal" in="SourceGraphic" in2="BackgroundImageFix" result="shape"/>
<feColorMatrix in="SourceAlpha" type="matrix" values="0 0 0 0 0 0 0 0 0 0 0 0 0 0 0 0 0 0 127 0" result="hardAlpha"/>
<feOffset dx="8.64595" dy="-11.5279"/>
<feGaussianBlur stdDeviation="34.5838"/>
<feComposite in2="hardAlpha" operator="arithmetic" k2="-1" k3="1"/>
<feColorMatrix type="matrix" values="0 0 0 0 0 0 0 0 0 0 0 0 0 0 0 0 0 0 0.07 0"/>
<feBlend mode="normal" in2="shape" result="effect1_innerShadow_2_4186"/>
<feColorMatrix in="SourceAlpha" type="matrix" values="0 0 0 0 0 0 0 0 0 0 0 0 0 0 0 0 0 0 127 0" result="hardAlpha"/>
<feOffset dy="-1.44099"/>
<feGaussianBlur stdDeviation="2.88198"/>
<feComposite in2="hardAlpha" operator="arithmetic" k2="-1" k3="1"/>
<feColorMatrix type="matrix" values="0 0 0 0 0 0 0 0 0 0 0 0 0 0 0 0 0 0 0.09 0"/>
<feBlend mode="normal" in2="effect1_innerShadow_2_4186" result="effect2_innerShadow_2_4186"/>
</filter>
<filter id="filter10_ddi_2_4186" x="257.85" y="104.479" width="126.606" height="89.2742" filterUnits="userSpaceOnUse" color-interpolation-filters="sRGB">
<feFlood flood-opacity="0" result="BackgroundImageFix"/>
<feColorMatrix in="SourceAlpha" type="matrix" values="0 0 0 0 0 0 0 0 0 0 0 0 0 0 0 0 0 0 127 0" result="hardAlpha"/>
<feOffset dx="-2.26686" dy="1.13343"/>
<feGaussianBlur stdDeviation="1.13343"/>
<feColorMatrix type="matrix" values="0 0 0 0 1 0 0 0 0 1 0 0 0 0 1 0 0 0 0.28 0"/>
<feBlend mode="normal" in2="BackgroundImageFix" result="effect1_dropShadow_2_4186"/>
<feColorMatrix in="SourceAlpha" type="matrix" values="0 0 0 0 0 0 0 0 0 0 0 0 0 0 0 0 0 0 127 0" result="hardAlpha"/>
<feOffset dy="-1.13343"/>
<feGaussianBlur stdDeviation="1.13343"/>
<feColorMatrix type="matrix" values="0 0 0 0 1 0 0 0 0 1 0 0 0 0 1 0 0 0 0.56 0"/>
<feBlend mode="normal" in2="effect1_dropShadow_2_4186" result="effect2_dropShadow_2_4186"/>
<feBlend mode="normal" in="SourceGraphic" in2="effect2_dropShadow_2_4186" result="shape"/>
<feColorMatrix in="SourceAlpha" type="matrix" values="0 0 0 0 0 0 0 0 0 0 0 0 0 0 0 0 0 0 127 0" result="hardAlpha"/>
<feOffset dx="-1.13343" dy="3.4003"/>
<feGaussianBlur stdDeviation="1.70015"/>
<feComposite in2="hardAlpha" operator="arithmetic" k2="-1" k3="1"/>
<feColorMatrix type="matrix" values="0 0 0 0 0 0 0 0 0 0 0 0 0 0 0 0 0 0 0.75 0"/>
<feBlend mode="normal" in2="shape" result="effect3_innerShadow_2_4186"/>
</filter>
<filter id="filter11_di_2_4186" x="128.328" y="96.8499" width="144.264" height="95.9408" filterUnits="userSpaceOnUse" color-interpolation-filters="sRGB">
<feFlood flood-opacity="0" result="BackgroundImageFix"/>
<feColorMatrix in="SourceAlpha" type="matrix" values="0 0 0 0 0 0 0 0 0 0 0 0 0 0 0 0 0 0 127 0" result="hardAlpha"/>
<feOffset dy="0.83446"/>
<feGaussianBlur stdDeviation="0.41723"/>
<feColorMatrix type="matrix" values="0 0 0 0 0.925374 0 0 0 0 0.925374 0 0 0 0 0.925374 0 0 0 0.37 0"/>
<feBlend mode="normal" in2="BackgroundImageFix" result="effect1_dropShadow_2_4186"/>
<feBlend mode="normal" in="SourceGraphic" in2="effect1_dropShadow_2_4186" result="shape"/>
<feColorMatrix in="SourceAlpha" type="matrix" values="0 0 0 0 0 0 0 0 0 0 0 0 0 0 0 0 0 0 127 0" result="hardAlpha"/>
<feOffset dx="-5.56336" dy="4.02703"/>
<feGaussianBlur stdDeviation="2.78168"/>
<feComposite in2="hardAlpha" operator="arithmetic" k2="-1" k3="1"/>
<feColorMatrix type="matrix" values="0 0 0 0 0 0 0 0 0 0 0 0 0 0 0 0 0 0 0.63 0"/>
<feBlend mode="normal" in2="shape" result="effect2_innerShadow_2_4186"/>
</filter>
<filter id="filter12_f_2_4186" x="221.322" y="155.146" width="212.163" height="121.366" filterUnits="userSpaceOnUse" color-interpolation-filters="sRGB">
<feFlood flood-opacity="0" result="BackgroundImageFix"/>
<feBlend mode="normal" in="SourceGraphic" in2="BackgroundImageFix" result="shape"/>
<feGaussianBlur stdDeviation="15.8681" result="effect1_foregroundBlur_2_4186"/>
</filter>
<filter id="filter13_f_2_4186" x="362.251" y="120.183" width="104.186" height="115.924" filterUnits="userSpaceOnUse" color-interpolation-filters="sRGB">
<feFlood flood-opacity="0" result="BackgroundImageFix"/>
<feBlend mode="normal" in="SourceGraphic" in2="BackgroundImageFix" result="shape"/>
<feGaussianBlur stdDeviation="10.2009" result="effect1_foregroundBlur_2_4186"/>
</filter>
<filter id="filter14_di_2_4186" x="206.102" y="172.009" width="12.2876" height="11.2458" filterUnits="userSpaceOnUse" color-interpolation-filters="sRGB">
<feFlood flood-opacity="0" result="BackgroundImageFix"/>
<feColorMatrix in="SourceAlpha" type="matrix" values="0 0 0 0 0 0 0 0 0 0 0 0 0 0 0 0 0 0 127 0" result="hardAlpha"/>
<feOffset dy="-0.562158"/>
<feGaussianBlur stdDeviation="0.281079"/>
<feColorMatrix type="matrix" values="0 0 0 0 0.78755 0 0 0 0 0.78755 0 0 0 0 0.78755 0 0 0 0.19 0"/>
<feBlend mode="normal" in2="BackgroundImageFix" result="effect1_dropShadow_2_4186"/>
<feBlend mode="normal" in="SourceGraphic" in2="effect1_dropShadow_2_4186" result="shape"/>
<feColorMatrix in="SourceAlpha" type="matrix" values="0 0 0 0 0 0 0 0 0 0 0 0 0 0 0 0 0 0 127 0" result="hardAlpha"/>
<feOffset dy="2.81079"/>
<feGaussianBlur stdDeviation="1.40539"/>
<feComposite in2="hardAlpha" operator="arithmetic" k2="-1" k3="1"/>
<feColorMatrix type="matrix" values="0 0 0 0 0 0 0 0 0 0 0 0 0 0 0 0 0 0 0.74 0"/>
<feBlend mode="normal" in2="shape" result="effect2_innerShadow_2_4186"/>
</filter>
<filter id="filter15_di_2_4186" x="154.404" y="147.982" width="12.2876" height="11.2458" filterUnits="userSpaceOnUse" color-interpolation-filters="sRGB">
<feFlood flood-opacity="0" result="BackgroundImageFix"/>
<feColorMatrix in="SourceAlpha" type="matrix" values="0 0 0 0 0 0 0 0 0 0 0 0 0 0 0 0 0 0 127 0" result="hardAlpha"/>
<feOffset dy="-0.562158"/>
<feGaussianBlur stdDeviation="0.281079"/>
<feColorMatrix type="matrix" values="0 0 0 0 0.78755 0 0 0 0 0.78755 0 0 0 0 0.78755 0 0 0 0.19 0"/>
<feBlend mode="normal" in2="BackgroundImageFix" result="effect1_dropShadow_2_4186"/>
<feBlend mode="normal" in="SourceGraphic" in2="effect1_dropShadow_2_4186" result="shape"/>
<feColorMatrix in="SourceAlpha" type="matrix" values="0 0 0 0 0 0 0 0 0 0 0 0 0 0 0 0 0 0 127 0" result="hardAlpha"/>
<feOffset dy="2.81079"/>
<feGaussianBlur stdDeviation="1.40539"/>
<feComposite in2="hardAlpha" operator="arithmetic" k2="-1" k3="1"/>
<feColorMatrix type="matrix" values="0 0 0 0 0 0 0 0 0 0 0 0 0 0 0 0 0 0 0.74 0"/>
<feBlend mode="normal" in2="shape" result="effect2_innerShadow_2_4186"/>
</filter>
<filter id="filter16_f_2_4186" x="310.962" y="150.762" width="169.559" height="131.525" filterUnits="userSpaceOnUse" color-interpolation-filters="sRGB">
<feFlood flood-opacity="0" result="BackgroundImageFix"/>
<feBlend mode="normal" in="SourceGraphic" in2="BackgroundImageFix" result="shape"/>
<feGaussianBlur stdDeviation="5.66716" result="effect1_foregroundBlur_2_4186"/>
</filter>
<filter id="filter17_ddii_2_4186" x="310.839" y="190.049" width="135.451" height="76.5784" filterUnits="userSpaceOnUse" color-interpolation-filters="sRGB">
<feFlood flood-opacity="0" result="BackgroundImageFix"/>
<feColorMatrix in="SourceAlpha" type="matrix" values="0 0 0 0 0 0 0 0 0 0 0 0 0 0 0 0 0 0 127 0" result="hardAlpha"/>
<feOffset dy="0.98748"/>
<feGaussianBlur stdDeviation="0.65832"/>
<feColorMatrix type="matrix" values="0 0 0 0 0 0 0 0 0 0 0 0 0 0 0 0 0 0 0.57 0"/>
<feBlend mode="normal" in2="BackgroundImageFix" result="effect1_dropShadow_2_4186"/>
<feColorMatrix in="SourceAlpha" type="matrix" values="0 0 0 0 0 0 0 0 0 0 0 0 0 0 0 0 0 0 127 0" result="hardAlpha"/>
<feOffset dy="-0.65832"/>
<feGaussianBlur stdDeviation="0.65832"/>
<feColorMatrix type="matrix" values="0 0 0 0 0 0 0 0 0 0 0 0 0 0 0 0 0 0 1 0"/>
<feBlend mode="normal" in2="effect1_dropShadow_2_4186" result="effect2_dropShadow_2_4186"/>
<feBlend mode="normal" in="SourceGraphic" in2="effect2_dropShadow_2_4186" result="shape"/>
<feColorMatrix in="SourceAlpha" type="matrix" values="0 0 0 0 0 0 0 0 0 0 0 0 0 0 0 0 0 0 127 0" result="hardAlpha"/>
<feOffset dy="9.07571"/>
<feGaussianBlur stdDeviation="9.24913"/>
<feComposite in2="hardAlpha" operator="arithmetic" k2="-1" k3="1"/>
<feColorMatrix type="matrix" values="0 0 0 0 0 0 0 0 0 0 0 0 0 0 0 0 0 0 1 0"/>
<feBlend mode="normal" in2="shape" result="effect3_innerShadow_2_4186"/>
<feColorMatrix in="SourceAlpha" type="matrix" values="0 0 0 0 0 0 0 0 0 0 0 0 0 0 0 0 0 0 127 0" result="hardAlpha"/>
<feOffset dy="-0.988987"/>
<feGaussianBlur stdDeviation="0.988987"/>
<feComposite in2="hardAlpha" operator="arithmetic" k2="-1" k3="1"/>
<feColorMatrix type="matrix" values="0 0 0 0 0 0 0 0 0 0 0 0 0 0 0 0 0 0 0.5 0"/>
<feBlend mode="normal" in2="effect3_innerShadow_2_4186" result="effect4_innerShadow_2_4186"/>
</filter>
<filter id="filter18_d_2_4186" x="329.107" y="231.68" width="42.4475" height="17.8497" filterUnits="userSpaceOnUse" color-interpolation-filters="sRGB">
<feFlood flood-opacity="0" result="BackgroundImageFix"/>
<feColorMatrix in="SourceAlpha" type="matrix" values="0 0 0 0 0 0 0 0 0 0 0 0 0 0 0 0 0 0 127 0" result="hardAlpha"/>
<feOffset dx="1.04934" dy="1.30347"/>
<feGaussianBlur stdDeviation="0.651737"/>
<feColorMatrix type="matrix" values="0 0 0 0 1 0 0 0 0 1 0 0 0 0 1 0 0 0 0.24 0"/>
<feBlend mode="normal" in2="BackgroundImageFix" result="effect1_dropShadow_2_4186"/>
<feBlend mode="normal" in="SourceGraphic" in2="effect1_dropShadow_2_4186" result="shape"/>
</filter>
<filter id="filter19_d_2_4186" x="430.252" y="194.207" width="14.1963" height="17.0654" filterUnits="userSpaceOnUse" color-interpolation-filters="sRGB">
<feFlood flood-opacity="0" result="BackgroundImageFix"/>
<feColorMatrix in="SourceAlpha" type="matrix" values="0 0 0 0 0 0 0 0 0 0 0 0 0 0 0 0 0 0 127 0" result="hardAlpha"/>
<feOffset dx="1.04934" dy="1.30347"/>
<feGaussianBlur stdDeviation="0.651737"/>
<feColorMatrix type="matrix" values="0 0 0 0 1 0 0 0 0 1 0 0 0 0 1 0 0 0 0.24 0"/>
<feBlend mode="normal" in2="BackgroundImageFix" result="effect1_dropShadow_2_4186"/>
<feBlend mode="normal" in="SourceGraphic" in2="effect1_dropShadow_2_4186" result="shape"/>
</filter>
<linearGradient id="paint0_linear_2_4186" x1="39.2779" y1="43.1472" x2="41.2333" y2="14.0594" gradientUnits="userSpaceOnUse">
<stop stop-color="#3F3F3F"/>
<stop offset="1" stop-color="#5C5C5C"/>
</linearGradient>
<linearGradient id="paint1_linear_2_4186" x1="36.8141" y1="41.6073" x2="38.7536" y2="13.565" gradientUnits="userSpaceOnUse">
<stop stop-color="#AAAAAA"/>
<stop offset="1" stop-color="#C2C2C2"/>
</linearGradient>
<linearGradient id="paint2_linear_2_4186" x1="33.5974" y1="36.9023" x2="35.2696" y2="12.0245" gradientUnits="userSpaceOnUse">
<stop stop-color="#3F3F3F"/>
<stop offset="1" stop-color="#5C5C5C"/>
</linearGradient>
<linearGradient id="paint3_linear_2_4186" x1="31.5193" y1="35.6309" x2="33.1806" y2="11.6166" gradientUnits="userSpaceOnUse">
<stop stop-color="#AAAAAA"/>
<stop offset="1" stop-color="#C2C2C2"/>
</linearGradient>
<linearGradient id="paint4_linear_2_4186" x1="158.435" y1="193.076" x2="433.364" y2="159.61" gradientUnits="userSpaceOnUse">
<stop stop-color="#CECBCB"/>
<stop offset="1" stop-color="white"/>
</linearGradient>
<linearGradient id="paint5_linear_2_4186" x1="311.015" y1="243.786" x2="230.353" y2="48.789" gradientUnits="userSpaceOnUse">
<stop stop-color="#CECBCB"/>
<stop offset="1" stop-color="white"/>
</linearGradient>
<linearGradient id="paint6_linear_2_4186" x1="329.728" y1="45.1904" x2="232.973" y2="133.234" gradientUnits="userSpaceOnUse">
<stop stop-color="#E8EAE9"/>
<stop offset="0.498386" stop-color="#707072"/>
<stop offset="1" stop-color="#2F3032"/>
</linearGradient>
<linearGradient id="paint7_linear_2_4186" x1="379.006" y1="384.486" x2="332.418" y2="92.153" gradientUnits="userSpaceOnUse">
<stop stop-color="#E8EAE9"/>
<stop offset="0.498386" stop-color="#707072"/>
<stop offset="1" stop-color="#2F3032"/>
</linearGradient>
<linearGradient id="paint8_linear_2_4186" x1="321.777" y1="247.174" x2="334.239" y2="212.94" gradientUnits="userSpaceOnUse">
<stop stop-color="#ECEAEA"/>
<stop offset="1" stop-color="white" stop-opacity="0"/>
</linearGradient>
<linearGradient id="paint9_linear_2_4186" x1="456.988" y1="188.405" x2="412.188" y2="203.066" gradientUnits="userSpaceOnUse">
<stop stop-color="#ECEAEA"/>
<stop offset="1" stop-color="white" stop-opacity="0"/>
</linearGradient>
<linearGradient id="paint10_linear_2_4186" x1="396.499" y1="233.888" x2="388.854" y2="218.273" gradientUnits="userSpaceOnUse">
<stop stop-color="#4B4B4B"/>
<stop offset="0.899322" stop-opacity="0"/>
</linearGradient>
</defs>
</svg>
