<svg width="320" height="319" viewBox="0 0 320 319" fill="none" xmlns="http://www.w3.org/2000/svg">
<path d="M227.672 210.873C240.366 206.848 263.427 196.009 271.659 188.11C281.163 179.83 261.088 170.993 258.702 169.653C256.316 168.312 139.196 112.244 118.784 103.599C98.3722 94.9534 34.3908 114.68 18.955 123.532C6.37288 130.747 15.4026 135.602 17.1124 136.952C18.8221 138.302 116.466 190.955 151.523 206.952C178.071 219.067 202.755 218.775 227.672 210.873Z" fill="black" fill-opacity="0.1"/>
<path d="M165.541 151.441C165.34 150.958 151.657 148.84 144.84 147.842C142.359 149.982 137.304 154.482 136.927 155.362C136.457 156.462 137.062 165.078 142.494 171.319C147.926 177.56 159.697 167.922 163.441 166.412C167.186 164.902 165.793 152.045 165.541 151.441Z" fill="#2C2C2C"/>
<path d="M66.2451 103.98C66.044 103.497 52.3606 101.379 45.544 100.381C43.0632 102.521 38.0076 107.021 37.6311 107.901C37.1605 109.001 37.7662 117.617 43.198 123.858C48.6297 130.1 60.4004 120.461 64.1452 118.951C67.89 117.441 66.4964 104.584 66.2451 103.98Z" fill="#131313"/>
<path fill-rule="evenodd" clip-rule="evenodd" d="M146.832 156.073L159.617 149.927L159.619 149.933C159.699 149.893 159.778 149.855 159.859 149.817C167.476 146.271 178.519 153.912 184.524 166.884C190.529 179.856 189.223 193.246 181.606 196.793C181.507 196.839 181.408 196.883 181.309 196.925L168.97 202.864L161.891 187.902C160.036 185.521 158.349 182.77 156.94 179.726C155.64 176.918 154.683 174.09 154.058 171.347L146.832 156.073Z" fill="black"/>
<ellipse cx="15.2197" cy="25.8518" rx="15.2197" ry="25.8518" transform="matrix(-0.906198 0.421896 0.420283 0.907838 160.994 149.523)" fill="black"/>
<g filter="url(#filter0_i_2_4264)">
<ellipse cx="11.4153" cy="19.3898" rx="11.4153" ry="19.3898" transform="matrix(-0.906198 0.421896 0.420283 0.907838 159.826 157.014)" fill="url(#paint0_linear_2_4264)"/>
</g>
<g filter="url(#filter1_di_2_4264)">
<path fill-rule="evenodd" clip-rule="evenodd" d="M159.552 166.725C160.636 167.558 161.693 168.584 162.683 169.776L159.669 175.183L159.552 166.725ZM159.845 187.839L163.703 194.33C162.53 194.699 161.251 194.686 159.936 194.337L159.845 187.839ZM157.613 193.396L157.494 184.876C157.351 184.793 157.208 184.7 157.066 184.6L153.8 190.46C155.022 191.699 156.315 192.693 157.613 193.396ZM157.343 173.968L157.222 165.257C154.982 164.15 152.746 163.922 150.85 164.804C150.322 165.051 149.842 165.373 149.411 165.762L154.442 174.226C154.609 174.075 154.795 173.95 155.001 173.854C155.7 173.529 156.517 173.592 157.343 173.968ZM165.721 193.203L160.771 184.875C161.013 184.667 161.216 184.406 161.38 184.101L168.347 188.007C167.963 190.215 167.079 192.035 165.721 193.203ZM153.936 180.215C153.893 180.096 153.853 179.978 153.815 179.86L146.831 175.945C147.063 177.824 147.561 179.809 148.333 181.804L153.936 180.215ZM161.743 180.403C161.826 180.86 161.87 181.305 161.875 181.728L168.566 185.479C168.583 183.401 168.235 181.111 167.507 178.768L161.743 180.403ZM166.723 176.587L161.062 178.193C161.03 178.121 160.998 178.049 160.965 177.978C160.933 177.91 160.902 177.843 160.869 177.776L164.195 171.809C164.936 172.92 165.618 174.132 166.219 175.431C166.397 175.816 166.565 176.202 166.723 176.587ZM155.368 182.901L152.181 188.619C151.102 187.247 150.112 185.676 149.267 183.943L154.971 182.325C155.099 182.525 155.231 182.717 155.368 182.901ZM153.384 176.968L146.681 173.211C146.72 171.113 147.133 169.239 147.906 167.752L153.384 176.968Z" fill="#4C4C4C"/>
</g>
<path fill-rule="evenodd" clip-rule="evenodd" d="M146.836 155.802L159.621 149.656L159.622 149.658C159.702 149.618 159.782 149.579 159.863 149.542C167.48 145.995 178.523 153.636 184.528 166.608C190.534 179.58 189.227 192.971 181.61 196.517C181.538 196.551 181.466 196.583 181.394 196.614L168.974 202.593L161.89 187.62C160.037 185.241 158.352 182.492 156.944 179.451C155.646 176.645 154.689 173.82 154.064 171.079L146.836 155.802Z" fill="black"/>
<path d="M144.254 186.089C150.185 198.9 161.074 206.454 168.577 202.961C176.079 199.468 177.353 186.251 171.422 173.44C165.491 160.629 154.267 152.386 146.764 155.879C139.262 159.371 138.323 173.278 144.254 186.089Z" fill="black"/>
<g filter="url(#filter2_i_2_4264)">
<ellipse cx="10.6992" cy="18.6978" rx="10.6992" ry="18.6978" transform="matrix(-0.901953 0.431974 0.407298 0.91328 159.795 157.732)" fill="url(#paint1_linear_2_4264)"/>
</g>
<g filter="url(#filter3_di_2_4264)">
<path fill-rule="evenodd" clip-rule="evenodd" d="M153.717 187.927C154.477 188.854 155.282 189.66 156.107 190.327L154.804 187.46L153.717 187.927ZM150.209 181.876C149.115 179.113 148.61 176.356 148.661 173.946L151.93 181.138L150.209 181.876ZM161.033 177.232C159.686 174.554 157.561 172.858 155.821 172.982L152.872 166.495C156.693 165.429 161.791 169.301 164.74 175.641L161.033 177.232ZM166.716 182.348C167.226 186.398 166.364 189.885 164.251 191.529L161.302 185.041C161.438 184.884 161.56 184.708 161.667 184.515L166.716 182.348Z" fill="#474747"/>
</g>
<path fill-rule="evenodd" clip-rule="evenodd" d="M49.7096 109.999L61.4116 106.799L61.4129 106.804C61.4881 106.782 61.5638 106.761 61.64 106.741C68.5941 104.931 76.7093 113.063 79.7659 124.903C82.8224 136.743 79.6628 147.807 72.7086 149.617C72.6249 149.638 72.5409 149.659 72.4568 149.678L61.1359 152.78L57.4723 139.063C56.2861 136.782 55.2965 134.22 54.5828 131.455C53.9246 128.905 53.5546 126.392 53.4488 123.999L49.7096 109.999Z" fill="black"/>
<ellipse cx="13.0186" cy="22.1102" rx="13.0186" ry="22.1102" transform="matrix(-0.967199 0.251641 0.250116 0.968836 62.626 106.669)" fill="black"/>
<g filter="url(#filter4_i_2_4264)">
<ellipse cx="9.76439" cy="16.5834" rx="9.76439" ry="16.5834" transform="matrix(-0.967199 0.251641 0.250116 0.968836 60.4907 112.792)" fill="url(#paint2_linear_2_4264)"/>
</g>
<g filter="url(#filter5_di_2_4264)">
<path fill-rule="evenodd" clip-rule="evenodd" d="M58.7579 120.916C59.5436 121.785 60.2765 122.813 60.9269 123.97L57.5535 128.062L58.7579 120.916ZM55.7579 138.716L58.0099 144.786C56.9638 144.917 55.8871 144.707 54.8321 144.209L55.7579 138.716ZM53.0231 143.058L54.2337 135.875C54.1268 135.783 54.0215 135.685 53.9183 135.579L50.2714 140.003C51.1075 141.232 52.0407 142.266 53.0231 143.058ZM55.7846 126.673L57.0233 119.323C55.3102 118.049 53.4661 117.513 51.7369 117.963C51.255 118.089 50.8023 118.285 50.3809 118.546L53.3093 126.438C53.4714 126.338 53.6454 126.263 53.8305 126.215C54.4689 126.049 55.1477 126.229 55.7846 126.673ZM59.8805 144.148L56.9962 136.374C57.2297 136.237 57.4392 136.049 57.6222 135.819L62.8871 140.183C62.2245 141.981 61.2018 143.374 59.8805 144.148ZM51.9558 131.404C51.9379 131.297 51.9222 131.19 51.9086 131.083L46.6414 126.718C46.5476 128.334 46.6608 130.08 47.0035 131.877L51.9558 131.404ZM58.4958 132.766C58.4951 133.163 58.4636 133.543 58.4034 133.899L63.4604 138.09C63.7949 136.344 63.8547 134.363 63.6022 132.279L58.4958 132.766ZM63.278 130.323L58.2628 130.802C58.2474 130.736 58.2312 130.67 58.2142 130.604C58.1987 130.545 58.1827 130.485 58.1662 130.426L61.8863 125.913C62.3389 126.963 62.7263 128.088 63.0322 129.273C63.1228 129.624 63.2047 129.974 63.278 130.323ZM52.7501 133.889L49.1928 138.204C48.4956 136.884 47.9046 135.409 47.4601 133.82L52.5021 133.339C52.5795 133.528 52.6624 133.712 52.7501 133.889ZM51.9938 128.586L46.9359 124.394C47.291 122.634 47.9283 121.119 48.8084 119.987L51.9958 128.577L51.9938 128.586Z" fill="#4C4C4C"/>
</g>
<path fill-rule="evenodd" clip-rule="evenodd" d="M57.6974 140.324C55.8731 137.489 54.3654 134.063 53.3816 130.252C52.454 126.659 52.0989 123.137 52.2487 119.923L49.68 110.306L55.8809 108.61C57.1239 107.073 58.6568 106.002 60.4388 105.538C67.393 103.729 75.5082 111.86 78.5647 123.7C81.4845 135.01 78.732 145.613 72.4182 148.116L72.6274 148.894L61.1063 153.087L57.6974 140.324Z" fill="black"/>
<ellipse cx="12.9769" cy="22.0394" rx="12.9769" ry="22.0394" transform="matrix(-0.967199 0.251641 0.250116 0.968836 62.4607 107.15)" fill="black"/>
<g filter="url(#filter6_i_2_4264)">
<g filter="url(#filter7_i_2_4264)">
<ellipse cx="9.16043" cy="16.0121" rx="9.16043" ry="16.0121" transform="matrix(-0.972221 0.231356 0.244509 0.97027 60.1648 114.089)" fill="url(#paint3_linear_2_4264)"/>
</g>
<g filter="url(#filter8_di_2_4264)">
<path fill-rule="evenodd" clip-rule="evenodd" d="M48.6094 134.315C49.2712 136.507 50.2485 138.433 51.3942 139.937L50.0879 134.058L48.6094 134.315ZM47.739 128.249C47.7609 127.15 47.889 126.114 48.114 125.173L48.7578 128.071L47.739 128.249ZM55.8688 126.832C55.4078 126.43 54.9188 126.161 54.4313 126.054L53.1081 120.099C55.6233 120.171 58.2653 122.526 60.0372 126.106L55.8688 126.832ZM61.8772 132.004C62.696 137.356 61.202 142.005 58.2195 143.105L56.8964 137.15C57.9982 136.475 58.5837 134.701 58.4285 132.605L61.8772 132.004Z" fill="#474747"/>
</g>
</g>
<g filter="url(#filter9_ii_2_4264)">
<path d="M269.307 168.377C271.02 164.934 270.546 161.889 270.594 159.133L270.497 152.103C270.419 146.521 270.406 141.737 270.327 139.905C270.248 138.072 272.195 132.744 262.341 123.058C253.492 114.361 234.174 104.399 229.379 103.187C224.583 101.975 203.952 73.2041 196.35 67.6263C173.647 50.9671 116.457 35.4525 102.369 35.6484C94.2031 35.4161 60.3153 52.8661 56.5428 55.2679C37.0362 67.6868 50.2654 62.6119 35.9856 81.2811C35.032 82.2937 34.4486 87.5297 34.7002 90.1617C34.3531 91.1225 33.5825 93.1159 33.5107 93.4678C33.0637 95.657 34.6478 106.478 34.6771 108.587C34.7114 111.051 34.2855 115.527 34.8081 118.008C35.3307 120.489 41.6778 126.35 41.7287 125.596C41.6903 122.832 41.8668 122.334 42.5334 117.901C44.3455 110.978 47.6191 107.879 50.2508 107.287C55.7558 106.048 60.8353 108.251 64.9186 115.17C72.7848 128.496 69.6748 136.958 70.8051 142.612L141.385 178.01C140.678 174.083 140.839 175.775 140.667 173.312C140.452 170.234 140.29 155.733 149.222 152.51C157.093 149.671 167.289 159.494 172.127 167.506C176.185 174.228 179.451 188.077 180.099 195.422C183.84 197.263 197.53 204.786 218.329 197.935C259.294 184.44 267.599 171.813 269.307 168.377Z" fill="url(#paint4_linear_2_4264)"/>
</g>
<mask id="mask0_2_4264" style="mask-type:alpha" maskUnits="userSpaceOnUse" x="33" y="35" width="238" height="166">
<path d="M269.307 168.377C271.02 164.934 270.546 161.889 270.594 159.133L270.497 152.103C270.419 146.521 270.406 141.737 270.327 139.905C270.248 138.072 272.195 132.744 262.341 123.058C253.492 114.361 234.174 104.399 229.379 103.187C224.583 101.975 203.952 73.2041 196.35 67.6263C173.647 50.9671 116.457 35.4525 102.369 35.6484C94.2031 35.4161 60.3153 52.8661 56.5428 55.2679C37.0362 67.6868 50.2654 62.6119 35.9856 81.2811C35.1731 82.1438 34.6294 86.0723 34.6419 88.8441C34.6458 89.7134 34.5456 90.5852 34.2416 91.3997C33.9086 92.2918 33.558 93.236 33.5107 93.4678C33.0637 95.657 34.6478 106.478 34.6771 108.587C34.7114 111.051 34.2855 115.527 34.8081 118.008C35.3307 120.489 41.6778 126.35 41.7287 125.596C41.7796 124.843 42.1255 120.608 41.9173 117.696C41.8468 112.627 46.0199 108.239 50.2508 107.287C55.7558 106.048 60.8281 107.738 64.9115 114.656C72.1254 126.878 69.6792 133.988 69.381 139.302C69.2793 141.114 70.4766 142.641 72.1009 143.451L137.01 175.828C138.768 176.704 140.692 175.163 140.555 173.204C140.34 170.125 140.29 155.733 149.222 152.51C157.093 149.671 167.289 159.494 172.127 167.506C175.64 173.325 178.559 184.485 179.7 192.143C180.003 194.173 181.2 196.014 183.073 196.853C189.004 199.508 201.278 203.552 218.329 197.935C259.294 184.44 267.599 171.813 269.307 168.377Z" fill="url(#paint5_linear_2_4264)"/>
</mask>
<g mask="url(#mask0_2_4264)">
<g filter="url(#filter10_ddi_2_4264)">
<path d="M159.759 126.72C153.613 122.108 153.451 116.319 145.529 101.446C143.634 97.8891 145.063 93.4114 148.752 91.787L193.413 72.1175C195.82 71.0576 198.772 71.1501 200.602 73.0389C202.946 75.4595 206.987 79.9926 213.952 88.4299C220.181 95.9754 221.371 97.8627 225.99 102.415C226.541 102.957 225.458 104.429 223.13 106.402C215.709 112.692 171.052 135.194 159.759 126.72Z" fill="url(#paint6_linear_2_4264)"/>
</g>
<g filter="url(#filter11_di_2_4264)">
<path d="M96.2085 73.6675C81.534 66.7044 77.5203 65.8933 67.3725 69.9216C62.2424 71.9581 55.8916 74.2115 55.0298 77.7463C54.1681 81.2811 69.2678 89.4742 73.6843 91.8377C75.8429 92.9929 152.851 132.374 151.199 127.689C149.176 121.947 138.182 98.9783 134.138 93.1838C131.535 89.4542 110.883 80.6306 96.2085 73.6675Z" fill="url(#paint7_linear_2_4264)"/>
</g>
<g filter="url(#filter12_f_2_4264)">
<path d="M179.227 156.181C160.423 147.759 149.773 137.006 138.379 127.201C172.036 136.67 242.495 157.436 241.416 158.866C240.066 160.654 235.056 162.822 218.329 164.183C201.861 165.524 181.38 157.146 179.227 156.181Z" fill="url(#paint8_linear_2_4264)" fill-opacity="0.21"/>
</g>
<g filter="url(#filter13_f_2_4264)">
<path d="M250.797 113.739C249.723 112.881 236.191 99.2468 226.108 92.5058C234.587 108.496 253.897 143.241 255.645 143.042C257.83 142.792 267.815 140.779 270.67 133.928C273.48 127.184 252.139 114.811 250.797 113.739Z" fill="url(#paint9_linear_2_4264)" fill-opacity="0.13"/>
</g>
<g filter="url(#filter14_di_2_4264)">
<path d="M114.055 122.496C114.049 122.065 113.797 121.674 113.406 121.491L107.919 118.917C107.164 118.563 106.301 119.121 106.313 119.955C106.319 120.389 106.573 120.782 106.966 120.965L112.457 123.531C113.208 123.882 114.066 123.326 114.055 122.496Z" fill="#323232"/>
</g>
<g filter="url(#filter15_di_2_4264)">
<path d="M78.0831 107.221C78.0771 106.789 77.8252 106.398 77.4347 106.215L71.9473 103.641C71.1928 103.287 70.3296 103.845 70.3412 104.679C70.3473 105.113 70.601 105.506 70.994 105.689L76.4855 108.255C77.2366 108.606 78.0946 108.05 78.0831 107.221Z" fill="#323232"/>
</g>
<path d="M203.477 117.608L163.187 85.6961C158.328 87.084 147.336 92.3296 145.232 93.1531C142.506 94.2202 142.636 95.7949 142.636 95.7949C142.647 96.6219 142.541 96.0447 143.433 97.6707C144.914 100.369 146.102 102.78 149.31 109.737C154.821 121.686 156.002 124.698 160.61 127.376C164.081 129.393 171.312 129.694 180.036 126.681C187.835 123.987 196.778 120.738 203.477 117.608Z" fill="#C4C4C4" fill-opacity="0.2"/>
<g opacity="0.17" filter="url(#filter16_f_2_4264)">
<path d="M261.119 131.745C249.644 141.084 224.014 154.563 212.517 156.724" stroke="url(#paint10_linear_2_4264)" stroke-width="76.2618" stroke-linecap="round" stroke-linejoin="round"/>
</g>
<g filter="url(#filter17_dii_2_4264)">
<path d="M265.278 136.869C267.458 133.838 266.85 131.438 266.463 127.715C266.441 127.499 266.389 127.285 266.325 127.077C265.517 124.456 269.72 130.518 270.217 134.77C270.385 136.205 270.303 136.933 270.186 138.261C270.133 138.868 268.157 142.907 268.354 143.704C268.55 144.5 268.42 150.524 268.46 151.357C268.5 152.189 265.687 157.604 256.634 163.706C249.113 168.775 238.262 172.185 237.147 172.361C236.032 172.537 234.885 168.806 234.071 168.61C231.941 168.098 225.704 170.487 223.372 171.108C220.651 171.832 214.301 173.504 207.325 172.706C198.696 171.72 197.364 170.759 189.386 166.558C185.282 164.397 182.072 160.602 180.178 157.573C179.137 155.907 180.579 154.368 182.451 154.965C188.478 156.888 198.7 160.058 210.036 161.061C229.072 162.745 243.961 153.504 246.094 152.176C255.06 146.593 259.781 144.509 265.278 136.869Z" fill="#141414"/>
</g>
<mask id="mask1_2_4264" style="mask-type:alpha" maskUnits="userSpaceOnUse" x="180" y="133" width="92" height="40">
<path d="M265.287 136.833C265.457 136.596 265.611 136.356 265.751 136.112C267.234 133.523 270.656 131.924 271.153 134.891C271.321 136.325 271.299 137.237 271.184 138.565C271.131 139.172 268.089 142.656 268.286 143.453C268.483 144.249 268.366 149.181 268.39 150.933C268.414 152.686 265.709 157.568 256.66 163.676C249.143 168.75 238.293 172.166 237.179 172.343C236.064 172.52 234.915 168.789 234.101 168.594C231.971 168.083 225.735 170.477 223.403 171.099C220.683 171.825 214.334 173.5 207.357 172.707C198.728 171.726 197.395 170.767 189.414 166.571C186.126 164.842 183.41 162.065 181.486 159.472C179.681 157.04 181.773 154.774 184.67 155.675C190.823 157.588 200.004 160.177 210.061 161.06C229.098 162.732 243.981 153.482 246.113 152.153C255.076 146.564 259.796 144.477 265.287 136.833Z" fill="#272727"/>
</mask>
<g mask="url(#mask1_2_4264)">
<g filter="url(#filter18_d_2_4264)">
<path d="M194.713 157.751L217.364 157.777C217.365 157.781 217.365 157.784 217.366 157.788C217.504 158.414 217.574 159.207 217.388 160.002C217.21 160.764 216.784 161.593 215.809 162.344C214.808 163.116 213.148 163.863 210.421 164.268C208.846 164.501 206.619 164.527 204.318 164.124C202.011 163.719 199.746 162.904 197.995 161.548C197.088 160.845 195.876 159.356 194.815 157.892C194.781 157.845 194.747 157.798 194.713 157.751Z" stroke="white" stroke-opacity="0.9" stroke-width="3.20925"/>
</g>
<g filter="url(#filter19_d_2_4264)">
<path d="M266.335 131.179C266.707 132.422 266.834 133.993 266.084 135.667C265.893 136.095 265.677 136.24 265.611 136.268C265.592 136.276 265.588 136.275 265.585 136.274C265.584 136.274 265.584 136.274 265.583 136.274C265.575 136.273 265.501 136.261 265.363 136.16C264.759 135.716 264.024 135.598 263.534 135.555L266.335 131.179Z" stroke="white" stroke-opacity="0.9" stroke-width="3.20925"/>
</g>
</g>
</g>
<defs>
<filter id="filter0_i_2_4264" x="144.462" y="161.179" width="26.3389" height="36.5086" filterUnits="userSpaceOnUse" color-interpolation-filters="sRGB">
<feFlood flood-opacity="0" result="BackgroundImageFix"/>
<feBlend mode="normal" in="SourceGraphic" in2="BackgroundImageFix" result="shape"/>
<feColorMatrix in="SourceAlpha" type="matrix" values="0 0 0 0 0 0 0 0 0 0 0 0 0 0 0 0 0 0 127 0" result="hardAlpha"/>
<feMorphology radius="1.15548" operator="erode" in="SourceAlpha" result="effect1_innerShadow_2_4264"/>
<feOffset/>
<feGaussianBlur stdDeviation="0.577741"/>
<feComposite in2="hardAlpha" operator="arithmetic" k2="-1" k3="1"/>
<feColorMatrix type="matrix" values="0 0 0 0 0 0 0 0 0 0 0 0 0 0 0 0 0 0 0.25 0"/>
<feBlend mode="normal" in2="shape" result="effect1_innerShadow_2_4264"/>
</filter>
<filter id="filter1_di_2_4264" x="143.215" y="164.032" width="26.0452" height="32.8818" filterUnits="userSpaceOnUse" color-interpolation-filters="sRGB">
<feFlood flood-opacity="0" result="BackgroundImageFix"/>
<feColorMatrix in="SourceAlpha" type="matrix" values="0 0 0 0 0 0 0 0 0 0 0 0 0 0 0 0 0 0 127 0" result="hardAlpha"/>
<feOffset dy="0.462193"/>
<feGaussianBlur stdDeviation="0.346644"/>
<feColorMatrix type="matrix" values="0 0 0 0 1 0 0 0 0 1 0 0 0 0 1 0 0 0 0.41 0"/>
<feBlend mode="normal" in2="BackgroundImageFix" result="effect1_dropShadow_2_4264"/>
<feBlend mode="normal" in="SourceGraphic" in2="effect1_dropShadow_2_4264" result="shape"/>
<feColorMatrix in="SourceAlpha" type="matrix" values="0 0 0 0 0 0 0 0 0 0 0 0 0 0 0 0 0 0 127 0" result="hardAlpha"/>
<feOffset dx="-3.46644" dy="2.31096"/>
<feGaussianBlur stdDeviation="1.73322"/>
<feComposite in2="hardAlpha" operator="arithmetic" k2="-1" k3="1"/>
<feColorMatrix type="matrix" values="0 0 0 0 0 0 0 0 0 0 0 0 0 0 0 0 0 0 0.25 0"/>
<feBlend mode="normal" in2="shape" result="effect2_innerShadow_2_4264"/>
</filter>
<filter id="filter2_i_2_4264" x="145.467" y="161.735" width="24.5874" height="35.3904" filterUnits="userSpaceOnUse" color-interpolation-filters="sRGB">
<feFlood flood-opacity="0" result="BackgroundImageFix"/>
<feBlend mode="normal" in="SourceGraphic" in2="BackgroundImageFix" result="shape"/>
<feColorMatrix in="SourceAlpha" type="matrix" values="0 0 0 0 0 0 0 0 0 0 0 0 0 0 0 0 0 0 127 0" result="hardAlpha"/>
<feMorphology radius="0.994191" operator="erode" in="SourceAlpha" result="effect1_innerShadow_2_4264"/>
<feOffset/>
<feGaussianBlur stdDeviation="0.497096"/>
<feComposite in2="hardAlpha" operator="arithmetic" k2="-1" k3="1"/>
<feColorMatrix type="matrix" values="0 0 0 0 0 0 0 0 0 0 0 0 0 0 0 0 0 0 0.25 0"/>
<feBlend mode="normal" in2="shape" result="effect1_innerShadow_2_4264"/>
</filter>
<filter id="filter3_di_2_4264" x="144.595" y="166.048" width="23.0761" height="28.1895" filterUnits="userSpaceOnUse" color-interpolation-filters="sRGB">
<feFlood flood-opacity="0" result="BackgroundImageFix"/>
<feColorMatrix in="SourceAlpha" type="matrix" values="0 0 0 0 0 0 0 0 0 0 0 0 0 0 0 0 0 0 127 0" result="hardAlpha"/>
<feOffset dy="0.541629"/>
<feGaussianBlur stdDeviation="0.406222"/>
<feColorMatrix type="matrix" values="0 0 0 0 1 0 0 0 0 1 0 0 0 0 1 0 0 0 0.41 0"/>
<feBlend mode="normal" in2="BackgroundImageFix" result="effect1_dropShadow_2_4264"/>
<feBlend mode="normal" in="SourceGraphic" in2="effect1_dropShadow_2_4264" result="shape"/>
<feColorMatrix in="SourceAlpha" type="matrix" values="0 0 0 0 0 0 0 0 0 0 0 0 0 0 0 0 0 0 127 0" result="hardAlpha"/>
<feOffset dx="-4.06222" dy="2.70815"/>
<feGaussianBlur stdDeviation="2.03111"/>
<feComposite in2="hardAlpha" operator="arithmetic" k2="-1" k3="1"/>
<feColorMatrix type="matrix" values="0 0 0 0 0 0 0 0 0 0 0 0 0 0 0 0 0 0 0.25 0"/>
<feBlend mode="normal" in2="shape" result="effect2_innerShadow_2_4264"/>
</filter>
<filter id="filter4_i_2_4264" x="44.877" y="115.06" width="20.6348" height="32.5114" filterUnits="userSpaceOnUse" color-interpolation-filters="sRGB">
<feFlood flood-opacity="0" result="BackgroundImageFix"/>
<feBlend mode="normal" in="SourceGraphic" in2="BackgroundImageFix" result="shape"/>
<feColorMatrix in="SourceAlpha" type="matrix" values="0 0 0 0 0 0 0 0 0 0 0 0 0 0 0 0 0 0 127 0" result="hardAlpha"/>
<feMorphology radius="0.988309" operator="erode" in="SourceAlpha" result="effect1_innerShadow_2_4264"/>
<feOffset/>
<feGaussianBlur stdDeviation="0.494154"/>
<feComposite in2="hardAlpha" operator="arithmetic" k2="-1" k3="1"/>
<feColorMatrix type="matrix" values="0 0 0 0 0 0 0 0 0 0 0 0 0 0 0 0 0 0 0.25 0"/>
<feBlend mode="normal" in2="shape" result="effect1_innerShadow_2_4264"/>
</filter>
<filter id="filter5_di_2_4264" x="43.6449" y="117.608" width="20.7059" height="29.1922" filterUnits="userSpaceOnUse" color-interpolation-filters="sRGB">
<feFlood flood-opacity="0" result="BackgroundImageFix"/>
<feColorMatrix in="SourceAlpha" type="matrix" values="0 0 0 0 0 0 0 0 0 0 0 0 0 0 0 0 0 0 127 0" result="hardAlpha"/>
<feOffset dy="0.395323"/>
<feGaussianBlur stdDeviation="0.296493"/>
<feColorMatrix type="matrix" values="0 0 0 0 1 0 0 0 0 1 0 0 0 0 1 0 0 0 0.41 0"/>
<feBlend mode="normal" in2="BackgroundImageFix" result="effect1_dropShadow_2_4264"/>
<feBlend mode="normal" in="SourceGraphic" in2="effect1_dropShadow_2_4264" result="shape"/>
<feColorMatrix in="SourceAlpha" type="matrix" values="0 0 0 0 0 0 0 0 0 0 0 0 0 0 0 0 0 0 127 0" result="hardAlpha"/>
<feOffset dx="-2.96493" dy="1.97662"/>
<feGaussianBlur stdDeviation="1.48246"/>
<feComposite in2="hardAlpha" operator="arithmetic" k2="-1" k3="1"/>
<feColorMatrix type="matrix" values="0 0 0 0 0 0 0 0 0 0 0 0 0 0 0 0 0 0 0.25 0"/>
<feBlend mode="normal" in2="shape" result="effect2_innerShadow_2_4264"/>
</filter>
<filter id="filter6_i_2_4264" x="45.4429" y="116.063" width="19.4619" height="31.3636" filterUnits="userSpaceOnUse" color-interpolation-filters="sRGB">
<feFlood flood-opacity="0" result="BackgroundImageFix"/>
<feBlend mode="normal" in="SourceGraphic" in2="BackgroundImageFix" result="shape"/>
<feColorMatrix in="SourceAlpha" type="matrix" values="0 0 0 0 0 0 0 0 0 0 0 0 0 0 0 0 0 0 127 0" result="hardAlpha"/>
<feMorphology radius="0.878697" operator="erode" in="SourceAlpha" result="effect1_innerShadow_2_4264"/>
<feOffset/>
<feGaussianBlur stdDeviation="0.439348"/>
<feComposite in2="hardAlpha" operator="arithmetic" k2="-1" k3="1"/>
<feColorMatrix type="matrix" values="0 0 0 0 0 0 0 0 0 0 0 0 0 0 0 0 0 0 0.25 0"/>
<feBlend mode="normal" in2="shape" result="effect1_innerShadow_2_4264"/>
</filter>
<filter id="filter7_i_2_4264" x="45.4429" y="116.063" width="19.4619" height="31.3636" filterUnits="userSpaceOnUse" color-interpolation-filters="sRGB">
<feFlood flood-opacity="0" result="BackgroundImageFix"/>
<feBlend mode="normal" in="SourceGraphic" in2="BackgroundImageFix" result="shape"/>
<feColorMatrix in="SourceAlpha" type="matrix" values="0 0 0 0 0 0 0 0 0 0 0 0 0 0 0 0 0 0 127 0" result="hardAlpha"/>
<feMorphology radius="0.994191" operator="erode" in="SourceAlpha" result="effect1_innerShadow_2_4264"/>
<feOffset/>
<feGaussianBlur stdDeviation="0.497096"/>
<feComposite in2="hardAlpha" operator="arithmetic" k2="-1" k3="1"/>
<feColorMatrix type="matrix" values="0 0 0 0 0 0 0 0 0 0 0 0 0 0 0 0 0 0 0.25 0"/>
<feBlend mode="normal" in2="shape" result="effect1_innerShadow_2_4264"/>
</filter>
<filter id="filter8_di_2_4264" x="43.6768" y="119.828" width="19.235" height="25.985" filterUnits="userSpaceOnUse" color-interpolation-filters="sRGB">
<feFlood flood-opacity="0" result="BackgroundImageFix"/>
<feColorMatrix in="SourceAlpha" type="matrix" values="0 0 0 0 0 0 0 0 0 0 0 0 0 0 0 0 0 0 127 0" result="hardAlpha"/>
<feOffset dy="0.541629"/>
<feGaussianBlur stdDeviation="0.406222"/>
<feColorMatrix type="matrix" values="0 0 0 0 1 0 0 0 0 1 0 0 0 0 1 0 0 0 0.41 0"/>
<feBlend mode="normal" in2="BackgroundImageFix" result="effect1_dropShadow_2_4264"/>
<feBlend mode="normal" in="SourceGraphic" in2="effect1_dropShadow_2_4264" result="shape"/>
<feColorMatrix in="SourceAlpha" type="matrix" values="0 0 0 0 0 0 0 0 0 0 0 0 0 0 0 0 0 0 127 0" result="hardAlpha"/>
<feOffset dx="-4.06222" dy="2.70815"/>
<feGaussianBlur stdDeviation="2.03111"/>
<feComposite in2="hardAlpha" operator="arithmetic" k2="-1" k3="1"/>
<feColorMatrix type="matrix" values="0 0 0 0 0 0 0 0 0 0 0 0 0 0 0 0 0 0 0.25 0"/>
<feBlend mode="normal" in2="shape" result="effect2_innerShadow_2_4264"/>
</filter>
<filter id="filter9_ii_2_4264" x="33.4312" y="24.8136" width="245.313" height="175.948" filterUnits="userSpaceOnUse" color-interpolation-filters="sRGB">
<feFlood flood-opacity="0" result="BackgroundImageFix"/>
<feBlend mode="normal" in="SourceGraphic" in2="BackgroundImageFix" result="shape"/>
<feColorMatrix in="SourceAlpha" type="matrix" values="0 0 0 0 0 0 0 0 0 0 0 0 0 0 0 0 0 0 127 0" result="hardAlpha"/>
<feOffset dx="8.12444" dy="-10.8326"/>
<feGaussianBlur stdDeviation="32.4977"/>
<feComposite in2="hardAlpha" operator="arithmetic" k2="-1" k3="1"/>
<feColorMatrix type="matrix" values="0 0 0 0 0 0 0 0 0 0 0 0 0 0 0 0 0 0 0.07 0"/>
<feBlend mode="normal" in2="shape" result="effect1_innerShadow_2_4264"/>
<feColorMatrix in="SourceAlpha" type="matrix" values="0 0 0 0 0 0 0 0 0 0 0 0 0 0 0 0 0 0 127 0" result="hardAlpha"/>
<feOffset dy="-1.35407"/>
<feGaussianBlur stdDeviation="2.70815"/>
<feComposite in2="hardAlpha" operator="arithmetic" k2="-1" k3="1"/>
<feColorMatrix type="matrix" values="0 0 0 0 0 0 0 0 0 0 0 0 0 0 0 0 0 0 0.25 0"/>
<feBlend mode="normal" in2="effect1_innerShadow_2_4264" result="effect2_innerShadow_2_4264"/>
</filter>
<filter id="filter10_ddi_2_4264" x="140.07" y="67.9729" width="88.3716" height="64.0969" filterUnits="userSpaceOnUse" color-interpolation-filters="sRGB">
<feFlood flood-opacity="0" result="BackgroundImageFix"/>
<feColorMatrix in="SourceAlpha" type="matrix" values="0 0 0 0 0 0 0 0 0 0 0 0 0 0 0 0 0 0 127 0" result="hardAlpha"/>
<feOffset dx="-2.31096" dy="1.15548"/>
<feGaussianBlur stdDeviation="1.15548"/>
<feColorMatrix type="matrix" values="0 0 0 0 1 0 0 0 0 1 0 0 0 0 1 0 0 0 0.28 0"/>
<feBlend mode="normal" in2="BackgroundImageFix" result="effect1_dropShadow_2_4264"/>
<feColorMatrix in="SourceAlpha" type="matrix" values="0 0 0 0 0 0 0 0 0 0 0 0 0 0 0 0 0 0 127 0" result="hardAlpha"/>
<feOffset dy="-1.15548"/>
<feGaussianBlur stdDeviation="1.15548"/>
<feColorMatrix type="matrix" values="0 0 0 0 1 0 0 0 0 1 0 0 0 0 1 0 0 0 0.56 0"/>
<feBlend mode="normal" in2="effect1_dropShadow_2_4264" result="effect2_dropShadow_2_4264"/>
<feBlend mode="normal" in="SourceGraphic" in2="effect2_dropShadow_2_4264" result="shape"/>
<feColorMatrix in="SourceAlpha" type="matrix" values="0 0 0 0 0 0 0 0 0 0 0 0 0 0 0 0 0 0 127 0" result="hardAlpha"/>
<feOffset dx="-1.15548" dy="3.46644"/>
<feGaussianBlur stdDeviation="1.73322"/>
<feComposite in2="hardAlpha" operator="arithmetic" k2="-1" k3="1"/>
<feColorMatrix type="matrix" values="0 0 0 0 0 0 0 0 0 0 0 0 0 0 0 0 0 0 0.75 0"/>
<feBlend mode="normal" in2="shape" result="effect3_innerShadow_2_4264"/>
</filter>
<filter id="filter11_di_2_4264" x="49.3228" y="67.4942" width="102.753" height="64.687" filterUnits="userSpaceOnUse" color-interpolation-filters="sRGB">
<feFlood flood-opacity="0" result="BackgroundImageFix"/>
<feColorMatrix in="SourceAlpha" type="matrix" values="0 0 0 0 0 0 0 0 0 0 0 0 0 0 0 0 0 0 127 0" result="hardAlpha"/>
<feOffset dy="0.850694"/>
<feGaussianBlur stdDeviation="0.425347"/>
<feColorMatrix type="matrix" values="0 0 0 0 0.925374 0 0 0 0 0.925374 0 0 0 0 0.925374 0 0 0 0.37 0"/>
<feBlend mode="normal" in2="BackgroundImageFix" result="effect1_dropShadow_2_4264"/>
<feBlend mode="normal" in="SourceGraphic" in2="effect1_dropShadow_2_4264" result="shape"/>
<feColorMatrix in="SourceAlpha" type="matrix" values="0 0 0 0 0 0 0 0 0 0 0 0 0 0 0 0 0 0 127 0" result="hardAlpha"/>
<feOffset dx="-5.67159" dy="4.10537"/>
<feGaussianBlur stdDeviation="2.83579"/>
<feComposite in2="hardAlpha" operator="arithmetic" k2="-1" k3="1"/>
<feColorMatrix type="matrix" values="0 0 0 0 0 0 0 0 0 0 0 0 0 0 0 0 0 0 0.63 0"/>
<feBlend mode="normal" in2="shape" result="effect2_innerShadow_2_4264"/>
</filter>
<filter id="filter12_f_2_4264" x="106.025" y="94.8473" width="167.756" height="101.834" filterUnits="userSpaceOnUse" color-interpolation-filters="sRGB">
<feFlood flood-opacity="0" result="BackgroundImageFix"/>
<feBlend mode="normal" in="SourceGraphic" in2="BackgroundImageFix" result="shape"/>
<feGaussianBlur stdDeviation="16.1767" result="effect1_foregroundBlur_2_4264"/>
</filter>
<filter id="filter13_f_2_4264" x="205.309" y="71.7071" width="86.4142" height="92.1343" filterUnits="userSpaceOnUse" color-interpolation-filters="sRGB">
<feFlood flood-opacity="0" result="BackgroundImageFix"/>
<feBlend mode="normal" in="SourceGraphic" in2="BackgroundImageFix" result="shape"/>
<feGaussianBlur stdDeviation="10.3993" result="effect1_foregroundBlur_2_4264"/>
</filter>
<filter id="filter14_di_2_4264" x="105.74" y="117.662" width="8.88837" height="8.84088" filterUnits="userSpaceOnUse" color-interpolation-filters="sRGB">
<feFlood flood-opacity="0" result="BackgroundImageFix"/>
<feColorMatrix in="SourceAlpha" type="matrix" values="0 0 0 0 0 0 0 0 0 0 0 0 0 0 0 0 0 0 127 0" result="hardAlpha"/>
<feOffset dy="-0.573094"/>
<feGaussianBlur stdDeviation="0.286547"/>
<feColorMatrix type="matrix" values="0 0 0 0 0.78755 0 0 0 0 0.78755 0 0 0 0 0.78755 0 0 0 0.19 0"/>
<feBlend mode="normal" in2="BackgroundImageFix" result="effect1_dropShadow_2_4264"/>
<feBlend mode="normal" in="SourceGraphic" in2="effect1_dropShadow_2_4264" result="shape"/>
<feColorMatrix in="SourceAlpha" type="matrix" values="0 0 0 0 0 0 0 0 0 0 0 0 0 0 0 0 0 0 127 0" result="hardAlpha"/>
<feOffset dy="2.86547"/>
<feGaussianBlur stdDeviation="1.43273"/>
<feComposite in2="hardAlpha" operator="arithmetic" k2="-1" k3="1"/>
<feColorMatrix type="matrix" values="0 0 0 0 0 0 0 0 0 0 0 0 0 0 0 0 0 0 0.74 0"/>
<feBlend mode="normal" in2="shape" result="effect2_innerShadow_2_4264"/>
</filter>
<filter id="filter15_di_2_4264" x="69.768" y="102.386" width="8.88837" height="8.84088" filterUnits="userSpaceOnUse" color-interpolation-filters="sRGB">
<feFlood flood-opacity="0" result="BackgroundImageFix"/>
<feColorMatrix in="SourceAlpha" type="matrix" values="0 0 0 0 0 0 0 0 0 0 0 0 0 0 0 0 0 0 127 0" result="hardAlpha"/>
<feOffset dy="-0.573094"/>
<feGaussianBlur stdDeviation="0.286547"/>
<feColorMatrix type="matrix" values="0 0 0 0 0.78755 0 0 0 0 0.78755 0 0 0 0 0.78755 0 0 0 0.19 0"/>
<feBlend mode="normal" in2="BackgroundImageFix" result="effect1_dropShadow_2_4264"/>
<feBlend mode="normal" in="SourceGraphic" in2="effect1_dropShadow_2_4264" result="shape"/>
<feColorMatrix in="SourceAlpha" type="matrix" values="0 0 0 0 0 0 0 0 0 0 0 0 0 0 0 0 0 0 127 0" result="hardAlpha"/>
<feOffset dy="2.86547"/>
<feGaussianBlur stdDeviation="1.43273"/>
<feComposite in2="hardAlpha" operator="arithmetic" k2="-1" k3="1"/>
<feColorMatrix type="matrix" values="0 0 0 0 0 0 0 0 0 0 0 0 0 0 0 0 0 0 0.74 0"/>
<feBlend mode="normal" in2="shape" result="effect2_innerShadow_2_4264"/>
</filter>
<filter id="filter16_f_2_4264" x="162.825" y="82.0583" width="147.981" height="124.358" filterUnits="userSpaceOnUse" color-interpolation-filters="sRGB">
<feFlood flood-opacity="0" result="BackgroundImageFix"/>
<feBlend mode="normal" in="SourceGraphic" in2="BackgroundImageFix" result="shape"/>
<feGaussianBlur stdDeviation="5.77741" result="effect1_foregroundBlur_2_4264"/>
</filter>
<filter id="filter17_dii_2_4264" x="177.033" y="124.298" width="96.0745" height="52.0668" filterUnits="userSpaceOnUse" color-interpolation-filters="sRGB">
<feFlood flood-opacity="0" result="BackgroundImageFix"/>
<feColorMatrix in="SourceAlpha" type="matrix" values="0 0 0 0 0 0 0 0 0 0 0 0 0 0 0 0 0 0 127 0" result="hardAlpha"/>
<feOffset dy="0.652446"/>
<feGaussianBlur stdDeviation="1.39784"/>
<feColorMatrix type="matrix" values="0 0 0 0 0 0 0 0 0 0 0 0 0 0 0 0 0 0 0.63 0"/>
<feBlend mode="normal" in2="BackgroundImageFix" result="effect1_dropShadow_2_4264"/>
<feBlend mode="normal" in="SourceGraphic" in2="effect1_dropShadow_2_4264" result="shape"/>
<feColorMatrix in="SourceAlpha" type="matrix" values="0 0 0 0 0 0 0 0 0 0 0 0 0 0 0 0 0 0 127 0" result="hardAlpha"/>
<feOffset dy="0.652446"/>
<feGaussianBlur stdDeviation="0.652446"/>
<feComposite in2="hardAlpha" operator="arithmetic" k2="-1" k3="1"/>
<feColorMatrix type="matrix" values="0 0 0 0 0 0 0 0 0 0 0 0 0 0 0 0 0 0 0.25 0"/>
<feBlend mode="normal" in2="shape" result="effect2_innerShadow_2_4264"/>
<feColorMatrix in="SourceAlpha" type="matrix" values="0 0 0 0 0 0 0 0 0 0 0 0 0 0 0 0 0 0 127 0" result="hardAlpha"/>
<feOffset dy="-0.652446"/>
<feGaussianBlur stdDeviation="0.652446"/>
<feComposite in2="hardAlpha" operator="arithmetic" k2="-1" k3="1"/>
<feColorMatrix type="matrix" values="0 0 0 0 0 0 0 0 0 0 0 0 0 0 0 0 0 0 0.25 0"/>
<feBlend mode="normal" in2="effect2_innerShadow_2_4264" result="effect3_innerShadow_2_4264"/>
</filter>
<filter id="filter18_d_2_4264" x="191.428" y="156.143" width="30.0764" height="12.5564" filterUnits="userSpaceOnUse" color-interpolation-filters="sRGB">
<feFlood flood-opacity="0" result="BackgroundImageFix"/>
<feColorMatrix in="SourceAlpha" type="matrix" values="0 0 0 0 0 0 0 0 0 0 0 0 0 0 0 0 0 0 127 0" result="hardAlpha"/>
<feOffset dx="1.06975" dy="1.32883"/>
<feGaussianBlur stdDeviation="0.664416"/>
<feColorMatrix type="matrix" values="0 0 0 0 1 0 0 0 0 1 0 0 0 0 1 0 0 0 0.24 0"/>
<feBlend mode="normal" in2="BackgroundImageFix" result="effect1_dropShadow_2_4264"/>
<feBlend mode="normal" in="SourceGraphic" in2="effect1_dropShadow_2_4264" result="shape"/>
</filter>
<filter id="filter19_d_2_4264" x="260.176" y="127.932" width="10.4592" height="12.6048" filterUnits="userSpaceOnUse" color-interpolation-filters="sRGB">
<feFlood flood-opacity="0" result="BackgroundImageFix"/>
<feColorMatrix in="SourceAlpha" type="matrix" values="0 0 0 0 0 0 0 0 0 0 0 0 0 0 0 0 0 0 127 0" result="hardAlpha"/>
<feOffset dx="1.06975" dy="1.32883"/>
<feGaussianBlur stdDeviation="0.664416"/>
<feColorMatrix type="matrix" values="0 0 0 0 1 0 0 0 0 1 0 0 0 0 1 0 0 0 0.24 0"/>
<feBlend mode="normal" in2="BackgroundImageFix" result="effect1_dropShadow_2_4264"/>
<feBlend mode="normal" in="SourceGraphic" in2="effect1_dropShadow_2_4264" result="shape"/>
</filter>
<linearGradient id="paint0_linear_2_4264" x1="26.9262" y1="29.5787" x2="28.2667" y2="9.63812" gradientUnits="userSpaceOnUse">
<stop stop-color="#3F3F3F"/>
<stop offset="1" stop-color="#5C5C5C"/>
</linearGradient>
<linearGradient id="paint1_linear_2_4264" x1="25.1772" y1="25.9604" x2="17.626" y2="-8.69521" gradientUnits="userSpaceOnUse">
<stop stop-color="#3F3F3F"/>
<stop offset="1" stop-color="#777676"/>
</linearGradient>
<linearGradient id="paint2_linear_2_4264" x1="23.0321" y1="25.2976" x2="24.1784" y2="8.24314" gradientUnits="userSpaceOnUse">
<stop stop-color="#3F3F3F"/>
<stop offset="1" stop-color="#5C5C5C"/>
</linearGradient>
<linearGradient id="paint3_linear_2_4264" x1="21.5561" y1="22.2315" x2="15.0883" y2="-7.44566" gradientUnits="userSpaceOnUse">
<stop stop-color="#3F3F3F"/>
<stop offset="1" stop-color="#777676"/>
</linearGradient>
<linearGradient id="paint4_linear_2_4264" x1="187.728" y1="200.628" x2="268.778" y2="84.2756" gradientUnits="userSpaceOnUse">
<stop stop-color="#262626"/>
<stop offset="0.628054" stop-color="#545454"/>
<stop offset="1" stop-color="#A8A8A8"/>
</linearGradient>
<linearGradient id="paint5_linear_2_4264" x1="179.393" y1="164.859" x2="119.652" y2="33.1087" gradientUnits="userSpaceOnUse">
<stop stop-color="#CECBCB"/>
<stop offset="1" stop-color="white"/>
</linearGradient>
<linearGradient id="paint6_linear_2_4264" x1="187.655" y1="28.3622" x2="123.385" y2="90.9058" gradientUnits="userSpaceOnUse">
<stop stop-color="#E8EAE9"/>
<stop offset="0.498386" stop-color="#707072"/>
<stop offset="1" stop-color="#2F3032"/>
</linearGradient>
<linearGradient id="paint7_linear_2_4264" x1="229.207" y1="259.697" x2="190.577" y2="60.476" gradientUnits="userSpaceOnUse">
<stop stop-color="#E8EAE9"/>
<stop offset="0.498386" stop-color="#707072"/>
<stop offset="1" stop-color="#2F3032"/>
</linearGradient>
<linearGradient id="paint8_linear_2_4264" x1="186.845" y1="166.932" x2="194.597" y2="143.191" gradientUnits="userSpaceOnUse">
<stop stop-color="#ECEAEA"/>
<stop offset="1" stop-color="white" stop-opacity="0"/>
</linearGradient>
<linearGradient id="paint9_linear_2_4264" x1="278.136" y1="123.563" x2="247.778" y2="134.637" gradientUnits="userSpaceOnUse">
<stop stop-color="#ECEAEA"/>
<stop offset="1" stop-color="white" stop-opacity="0"/>
</linearGradient>
<linearGradient id="paint10_linear_2_4264" x1="237.734" y1="156.115" x2="232.138" y2="145.592" gradientUnits="userSpaceOnUse">
<stop stop-color="#4B4B4B"/>
<stop offset="0.899322" stop-opacity="0"/>
</linearGradient>
</defs>
</svg>
