<svg width="152" height="244" viewBox="0 0 152 244" fill="none" xmlns="http://www.w3.org/2000/svg">
<path d="M1.328 85V73.08H2.896V78.392H8.864V73.08H10.448V85H8.864V79.832H2.896V85H1.328ZM16.6936 85.192C15.8616 85.192 15.1096 85 14.4376 84.616C13.7656 84.2213 13.2323 83.6827 12.8376 83C12.443 82.3173 12.2456 81.544 12.2456 80.68C12.2456 79.816 12.4376 79.048 12.8216 78.376C13.2163 77.704 13.7496 77.1707 14.4216 76.776C15.0936 76.3813 15.851 76.184 16.6936 76.184C17.5256 76.184 18.2776 76.3813 18.9496 76.776C19.6216 77.16 20.1496 77.688 20.5336 78.36C20.9283 79.032 21.1256 79.8053 21.1256 80.68C21.1256 81.5547 20.923 82.3333 20.5176 83.016C20.1123 83.688 19.5736 84.2213 18.9016 84.616C18.2403 85 17.5043 85.192 16.6936 85.192ZM16.6936 83.752C17.227 83.752 17.707 83.6187 18.1336 83.352C18.571 83.0853 18.9123 82.7173 19.1576 82.248C19.4136 81.7787 19.5416 81.256 19.5416 80.68C19.5416 80.0933 19.4136 79.576 19.1576 79.128C18.9123 78.6693 18.571 78.3067 18.1336 78.04C17.707 77.7627 17.227 77.624 16.6936 77.624C16.1496 77.624 15.659 77.7627 15.2216 78.04C14.795 78.3067 14.4536 78.6693 14.1976 79.128C13.9416 79.576 13.8136 80.0933 13.8136 80.68C13.8136 81.256 13.9416 81.7787 14.1976 82.248C14.4536 82.7173 14.795 83.0853 15.2216 83.352C15.659 83.6187 16.1496 83.752 16.6936 83.752ZM24.5741 85L21.6141 76.376H23.2621L25.6141 83.592L25.0381 83.576L27.3421 76.376H28.7501L31.0541 83.576L30.4781 83.592L32.8461 76.376H34.4781L31.5181 85H30.0941L27.8221 77.8H28.2701L25.9981 85H24.5741ZM37.9345 85V76.376H39.4225V85H37.9345ZM37.9345 75V73.08H39.4225V75H37.9345ZM44.9154 85.096C44.0727 85.096 43.422 84.856 42.9634 84.376C42.5154 83.896 42.2914 83.2187 42.2914 82.344V77.8H40.7234V76.376H41.0434C41.4274 76.376 41.7314 76.2587 41.9554 76.024C42.1794 75.7893 42.2914 75.48 42.2914 75.096V74.392H43.7794V76.376H45.7154V77.8H43.7794V82.296C43.7794 82.584 43.822 82.8347 43.9074 83.048C44.0034 83.2613 44.158 83.432 44.3714 83.56C44.5847 83.6773 44.8674 83.736 45.2194 83.736C45.294 83.736 45.3847 83.7307 45.4914 83.72C45.6087 83.7093 45.7154 83.6987 45.8114 83.688V85C45.6727 85.032 45.518 85.0533 45.3474 85.064C45.1767 85.0853 45.0327 85.096 44.9154 85.096ZM51.8647 85L48.9047 76.376H50.5527L52.9047 83.592L52.3287 83.576L54.6327 76.376H56.0407L58.3447 83.576L57.7687 83.592L60.1367 76.376H61.7687L58.8087 85H57.3847L55.1127 77.8H55.5607L53.2887 85H51.8647ZM66.7192 85.192C65.8872 85.192 65.1352 85 64.4632 84.616C63.7912 84.2213 63.2579 83.6827 62.8632 83C62.4686 82.3173 62.2712 81.544 62.2712 80.68C62.2712 79.816 62.4632 79.048 62.8472 78.376C63.2419 77.704 63.7752 77.1707 64.4472 76.776C65.1192 76.3813 65.8766 76.184 66.7192 76.184C67.5512 76.184 68.3032 76.3813 68.9752 76.776C69.6472 77.16 70.1752 77.688 70.5592 78.36C70.9539 79.032 71.1512 79.8053 71.1512 80.68C71.1512 81.5547 70.9486 82.3333 70.5432 83.016C70.1379 83.688 69.5992 84.2213 68.9272 84.616C68.2659 85 67.5299 85.192 66.7192 85.192ZM66.7192 83.752C67.2526 83.752 67.7326 83.6187 68.1592 83.352C68.5966 83.0853 68.9379 82.7173 69.1832 82.248C69.4392 81.7787 69.5672 81.256 69.5672 80.68C69.5672 80.0933 69.4392 79.576 69.1832 79.128C68.9379 78.6693 68.5966 78.3067 68.1592 78.04C67.7326 77.7627 67.2526 77.624 66.7192 77.624C66.1752 77.624 65.6846 77.7627 65.2472 78.04C64.8206 78.3067 64.4792 78.6693 64.2232 79.128C63.9672 79.576 63.8392 80.0933 63.8392 80.68C63.8392 81.256 63.9672 81.7787 64.2232 82.248C64.4792 82.7173 64.8206 83.0853 65.2472 83.352C65.6846 83.6187 66.1752 83.752 66.7192 83.752ZM72.772 85V76.376H74.228V77.96L74.068 77.736C74.2707 77.2453 74.58 76.8827 74.996 76.648C75.412 76.4027 75.9187 76.28 76.516 76.28H77.044V77.688H76.292C75.684 77.688 75.1933 77.88 74.82 78.264C74.4467 78.6373 74.26 79.1707 74.26 79.864V85H72.772ZM78.0458 85V72.888H79.5338V81.192L78.9258 81.048L83.5018 76.376H85.4058L82.0938 79.848L85.6298 85H83.8698L80.6378 80.328L81.5658 80.28L79.0538 82.904L79.5338 81.816V85H78.0458ZM89.7356 85.192C88.8716 85.192 88.1196 84.9787 87.4796 84.552C86.8396 84.1253 86.3863 83.5493 86.1196 82.824L87.3036 82.248C87.549 82.76 87.885 83.1653 88.3116 83.464C88.7383 83.7627 89.213 83.912 89.7356 83.912C90.205 83.912 90.5943 83.8 90.9036 83.576C91.213 83.352 91.3676 83.0587 91.3676 82.696C91.3676 82.44 91.293 82.2373 91.1436 82.088C91.005 81.928 90.8343 81.8053 90.6316 81.72C90.429 81.624 90.2423 81.5547 90.0716 81.512L88.7756 81.144C87.997 80.92 87.4263 80.6 87.0636 80.184C86.7116 79.768 86.5356 79.2827 86.5356 78.728C86.5356 78.216 86.6636 77.7733 86.9196 77.4C87.1863 77.016 87.5436 76.7173 87.9916 76.504C88.4503 76.2907 88.9623 76.184 89.5276 76.184C90.285 76.184 90.9623 76.376 91.5596 76.76C92.1676 77.144 92.5996 77.6827 92.8556 78.376L91.6396 78.936C91.4476 78.488 91.1596 78.136 90.7756 77.88C90.3916 77.6133 89.9596 77.48 89.4796 77.48C89.0423 77.48 88.6956 77.592 88.4396 77.816C88.1836 78.0293 88.0556 78.3013 88.0556 78.632C88.0556 78.8773 88.1196 79.08 88.2476 79.24C88.3756 79.3893 88.5303 79.5067 88.7116 79.592C88.893 79.6667 89.069 79.7307 89.2396 79.784L90.6476 80.2C91.3516 80.4027 91.8956 80.7173 92.2796 81.144C92.6743 81.5707 92.8716 82.0827 92.8716 82.68C92.8716 83.16 92.7383 83.592 92.4716 83.976C92.205 84.36 91.837 84.6587 91.3676 84.872C90.8983 85.0853 90.3543 85.192 89.7356 85.192ZM1.328 133V121.08H8.88V122.52H2.896V126.376H8.32V127.816H2.896V133H1.328ZM13.8625 133.192C13.0305 133.192 12.2892 132.995 11.6385 132.6C10.9878 132.205 10.4758 131.667 10.1025 130.984C9.72917 130.291 9.5425 129.517 9.5425 128.664C9.5425 127.8 9.72383 127.032 10.0865 126.36C10.4598 125.688 10.9612 125.16 11.5905 124.776C12.2305 124.381 12.9452 124.184 13.7345 124.184C14.3745 124.184 14.9398 124.301 15.4305 124.536C15.9318 124.76 16.3532 125.069 16.6945 125.464C17.0465 125.848 17.3132 126.291 17.4945 126.792C17.6865 127.283 17.7825 127.795 17.7825 128.328C17.7825 128.445 17.7718 128.579 17.7505 128.728C17.7398 128.867 17.7238 129 17.7025 129.128H10.6305V127.848H16.8385L16.1345 128.424C16.2305 127.869 16.1772 127.373 15.9745 126.936C15.7718 126.499 15.4732 126.152 15.0785 125.896C14.6838 125.64 14.2358 125.512 13.7345 125.512C13.2332 125.512 12.7745 125.64 12.3585 125.896C11.9425 126.152 11.6172 126.52 11.3825 127C11.1585 127.469 11.0678 128.029 11.1105 128.68C11.0678 129.309 11.1638 129.864 11.3985 130.344C11.6438 130.813 11.9852 131.181 12.4225 131.448C12.8705 131.704 13.3558 131.832 13.8785 131.832C14.4545 131.832 14.9398 131.699 15.3345 131.432C15.7292 131.165 16.0492 130.824 16.2945 130.408L17.5425 131.048C17.3718 131.443 17.1052 131.805 16.7425 132.136C16.3905 132.456 15.9692 132.712 15.4785 132.904C14.9985 133.096 14.4598 133.192 13.8625 133.192ZM21.8213 133.192C21.2559 133.192 20.7546 133.091 20.3173 132.888C19.8906 132.675 19.5546 132.387 19.3093 132.024C19.0639 131.651 18.9413 131.224 18.9413 130.744C18.9413 130.285 19.0373 129.875 19.2293 129.512C19.4319 129.139 19.7413 128.824 20.1573 128.568C20.5839 128.312 21.1173 128.131 21.7573 128.024L24.9573 127.496V128.744L22.0933 129.224C21.5386 129.32 21.1333 129.496 20.8773 129.752C20.6319 130.008 20.5093 130.323 20.5093 130.696C20.5093 131.048 20.6479 131.341 20.9253 131.576C21.2133 131.811 21.5706 131.928 21.9973 131.928C22.5413 131.928 23.0106 131.816 23.4053 131.592C23.8106 131.357 24.1253 131.043 24.3493 130.648C24.5839 130.253 24.7013 129.816 24.7013 129.336V127.144C24.7013 126.675 24.5253 126.296 24.1733 126.008C23.8319 125.709 23.3786 125.56 22.8133 125.56C22.3226 125.56 21.8853 125.688 21.5013 125.944C21.1279 126.189 20.8506 126.52 20.6693 126.936L19.3733 126.264C19.5333 125.869 19.7893 125.517 20.1413 125.208C20.4933 124.888 20.9039 124.637 21.3733 124.456C21.8426 124.275 22.3333 124.184 22.8453 124.184C23.5066 124.184 24.0879 124.312 24.5893 124.568C25.0906 124.813 25.4799 125.16 25.7573 125.608C26.0453 126.045 26.1893 126.557 26.1893 127.144V133H24.7333V131.368L25.0053 131.464C24.8239 131.805 24.5786 132.104 24.2693 132.36C23.9599 132.616 23.5973 132.819 23.1813 132.968C22.7653 133.117 22.3119 133.192 21.8213 133.192ZM31.5241 133.096C30.6815 133.096 30.0308 132.856 29.5721 132.376C29.1241 131.896 28.9001 131.219 28.9001 130.344V125.8H27.3321V124.376H27.6521C28.0361 124.376 28.3401 124.259 28.5641 124.024C28.7881 123.789 28.9001 123.48 28.9001 123.096V122.392H30.3881V124.376H32.3241V125.8H30.3881V130.296C30.3881 130.584 30.4308 130.835 30.5161 131.048C30.6121 131.261 30.7668 131.432 30.9801 131.56C31.1935 131.677 31.4761 131.736 31.8281 131.736C31.9028 131.736 31.9935 131.731 32.1001 131.72C32.2175 131.709 32.3241 131.699 32.4201 131.688V133C32.2815 133.032 32.1268 133.053 31.9561 133.064C31.7855 133.085 31.6415 133.096 31.5241 133.096ZM37.0999 133.192C36.4812 133.192 35.9212 133.048 35.4199 132.76C34.9292 132.472 34.5452 132.072 34.2679 131.56C34.0012 131.037 33.8679 130.44 33.8679 129.768V124.376H35.3559V129.608C35.3559 130.035 35.4412 130.408 35.6119 130.728C35.7932 131.048 36.0385 131.299 36.3479 131.48C36.6679 131.661 37.0305 131.752 37.4359 131.752C37.8412 131.752 38.1985 131.661 38.5079 131.48C38.8279 131.299 39.0732 131.037 39.2439 130.696C39.4252 130.355 39.5159 129.949 39.5159 129.48V124.376H41.0199V133H39.5639V131.32L39.8039 131.464C39.6012 132.008 39.2545 132.435 38.7639 132.744C38.2839 133.043 37.7292 133.192 37.0999 133.192ZM43.0051 133V124.376H44.4611V125.96L44.3011 125.736C44.5038 125.245 44.8131 124.883 45.2291 124.648C45.6451 124.403 46.1518 124.28 46.7491 124.28H47.2771V125.688H46.5251C45.9171 125.688 45.4265 125.88 45.0531 126.264C44.6798 126.637 44.4931 127.171 44.4931 127.864V133H43.0051ZM52.2469 133.192C51.4149 133.192 50.6735 132.995 50.0229 132.6C49.3722 132.205 48.8602 131.667 48.4869 130.984C48.1135 130.291 47.9269 129.517 47.9269 128.664C47.9269 127.8 48.1082 127.032 48.4709 126.36C48.8442 125.688 49.3455 125.16 49.9749 124.776C50.6149 124.381 51.3295 124.184 52.1189 124.184C52.7589 124.184 53.3242 124.301 53.8149 124.536C54.3162 124.76 54.7375 125.069 55.0789 125.464C55.4309 125.848 55.6975 126.291 55.8789 126.792C56.0709 127.283 56.1669 127.795 56.1669 128.328C56.1669 128.445 56.1562 128.579 56.1349 128.728C56.1242 128.867 56.1082 129 56.0869 129.128H49.0149V127.848H55.2229L54.5189 128.424C54.6149 127.869 54.5615 127.373 54.3589 126.936C54.1562 126.499 53.8575 126.152 53.4629 125.896C53.0682 125.64 52.6202 125.512 52.1189 125.512C51.6175 125.512 51.1589 125.64 50.7429 125.896C50.3269 126.152 50.0015 126.52 49.7669 127C49.5429 127.469 49.4522 128.029 49.4949 128.68C49.4522 129.309 49.5482 129.864 49.7829 130.344C50.0282 130.813 50.3695 131.181 50.8069 131.448C51.2549 131.704 51.7402 131.832 52.2629 131.832C52.8389 131.832 53.3242 131.699 53.7189 131.432C54.1135 131.165 54.4335 130.824 54.6789 130.408L55.9269 131.048C55.7562 131.443 55.4895 131.805 55.1269 132.136C54.7749 132.456 54.3535 132.712 53.8629 132.904C53.3829 133.096 52.8442 133.192 52.2469 133.192ZM61.707 133.192C60.8963 133.192 60.1657 132.995 59.515 132.6C58.875 132.205 58.3683 131.667 57.995 130.984C57.6217 130.301 57.435 129.539 57.435 128.696C57.435 127.832 57.6217 127.064 57.995 126.392C58.3683 125.709 58.875 125.171 59.515 124.776C60.1657 124.381 60.8963 124.184 61.707 124.184C62.4217 124.184 63.0563 124.339 63.611 124.648C64.1657 124.947 64.603 125.352 64.923 125.864L64.683 126.232V120.888H66.187V133H64.731V131.16L64.923 131.416C64.6243 131.981 64.187 132.419 63.611 132.728C63.0457 133.037 62.411 133.192 61.707 133.192ZM61.835 131.752C62.379 131.752 62.8643 131.619 63.291 131.352C63.7177 131.085 64.0537 130.723 64.299 130.264C64.555 129.795 64.683 129.272 64.683 128.696C64.683 128.109 64.555 127.587 64.299 127.128C64.0537 126.659 63.7177 126.291 63.291 126.024C62.8643 125.757 62.379 125.624 61.835 125.624C61.3017 125.624 60.8163 125.763 60.379 126.04C59.9523 126.307 59.6163 126.669 59.371 127.128C59.1257 127.576 59.003 128.099 59.003 128.696C59.003 129.272 59.1257 129.795 59.371 130.264C59.6163 130.723 59.9523 131.085 60.379 131.352C60.8057 131.619 61.291 131.752 61.835 131.752ZM1.328 181V169.08H5.536C6.32533 169.08 7.01867 169.229 7.616 169.528C8.21333 169.827 8.67733 170.253 9.008 170.808C9.34933 171.363 9.52 172.013 9.52 172.76C9.52 173.507 9.34933 174.157 9.008 174.712C8.67733 175.256 8.21333 175.683 7.616 175.992C7.02933 176.291 6.336 176.44 5.536 176.44H2.896V181H1.328ZM2.896 175H5.584C6.064 175 6.48 174.909 6.832 174.728C7.184 174.547 7.456 174.285 7.648 173.944C7.84 173.603 7.936 173.208 7.936 172.76C7.936 172.301 7.84 171.907 7.648 171.576C7.456 171.235 7.184 170.973 6.832 170.792C6.48 170.611 6.064 170.52 5.584 170.52H2.896V175ZM13.0788 181.192C12.5134 181.192 12.0121 181.091 11.5748 180.888C11.1481 180.675 10.8121 180.387 10.5668 180.024C10.3214 179.651 10.1988 179.224 10.1988 178.744C10.1988 178.285 10.2948 177.875 10.4868 177.512C10.6894 177.139 10.9988 176.824 11.4148 176.568C11.8414 176.312 12.3748 176.131 13.0148 176.024L16.2148 175.496V176.744L13.3508 177.224C12.7961 177.32 12.3908 177.496 12.1348 177.752C11.8894 178.008 11.7668 178.323 11.7668 178.696C11.7668 179.048 11.9054 179.341 12.1828 179.576C12.4708 179.811 12.8281 179.928 13.2548 179.928C13.7988 179.928 14.2681 179.816 14.6628 179.592C15.0681 179.357 15.3828 179.043 15.6068 178.648C15.8414 178.253 15.9588 177.816 15.9588 177.336V175.144C15.9588 174.675 15.7828 174.296 15.4308 174.008C15.0894 173.709 14.6361 173.56 14.0708 173.56C13.5801 173.56 13.1428 173.688 12.7588 173.944C12.3854 174.189 12.1081 174.52 11.9268 174.936L10.6308 174.264C10.7908 173.869 11.0468 173.517 11.3988 173.208C11.7508 172.888 12.1614 172.637 12.6308 172.456C13.1001 172.275 13.5908 172.184 14.1028 172.184C14.7641 172.184 15.3454 172.312 15.8468 172.568C16.3481 172.813 16.7374 173.16 17.0148 173.608C17.3028 174.045 17.4468 174.557 17.4468 175.144V181H15.9908V179.368L16.2628 179.464C16.0814 179.805 15.8361 180.104 15.5268 180.36C15.2174 180.616 14.8548 180.819 14.4388 180.968C14.0228 181.117 13.5694 181.192 13.0788 181.192ZM19.4339 181V172.376H20.8899V173.96L20.7299 173.736C20.9325 173.245 21.2419 172.883 21.6579 172.648C22.0739 172.403 22.5805 172.28 23.1779 172.28H23.7059V173.688H22.9539C22.3459 173.688 21.8552 173.88 21.4819 174.264C21.1085 174.637 20.9219 175.171 20.9219 175.864V181H19.4339ZM28.2898 181.096C27.4471 181.096 26.7964 180.856 26.3378 180.376C25.8898 179.896 25.6658 179.219 25.6658 178.344V173.8H24.0978V172.376H24.4178C24.8018 172.376 25.1058 172.259 25.3298 172.024C25.5538 171.789 25.6658 171.48 25.6658 171.096V170.392H27.1538V172.376H29.0898V173.8H27.1538V178.296C27.1538 178.584 27.1964 178.835 27.2818 179.048C27.3778 179.261 27.5324 179.432 27.7458 179.56C27.9591 179.677 28.2418 179.736 28.5938 179.736C28.6684 179.736 28.7591 179.731 28.8658 179.72C28.9831 179.709 29.0898 179.699 29.1858 179.688V181C29.0471 181.032 28.8924 181.053 28.7218 181.064C28.5511 181.085 28.4071 181.096 28.2898 181.096ZM30.8095 181V172.376H32.2655V174.056L32.0255 173.912C32.2388 173.368 32.5802 172.947 33.0495 172.648C33.5295 172.339 34.0895 172.184 34.7295 172.184C35.3482 172.184 35.8975 172.323 36.3775 172.6C36.8682 172.877 37.2522 173.261 37.5295 173.752C37.8175 174.243 37.9615 174.797 37.9615 175.416V181H36.4575V175.896C36.4575 175.416 36.3722 175.011 36.2015 174.68C36.0308 174.349 35.7855 174.093 35.4655 173.912C35.1562 173.72 34.7988 173.624 34.3935 173.624C33.9882 173.624 33.6255 173.72 33.3055 173.912C32.9962 174.093 32.7508 174.355 32.5695 174.696C32.3882 175.027 32.2975 175.427 32.2975 175.896V181H30.8095ZM43.7388 181.192C42.9068 181.192 42.1654 180.995 41.5148 180.6C40.8641 180.205 40.3521 179.667 39.9788 178.984C39.6054 178.291 39.4188 177.517 39.4188 176.664C39.4188 175.8 39.6001 175.032 39.9628 174.36C40.3361 173.688 40.8374 173.16 41.4668 172.776C42.1068 172.381 42.8214 172.184 43.6108 172.184C44.2508 172.184 44.8161 172.301 45.3068 172.536C45.8081 172.76 46.2294 173.069 46.5708 173.464C46.9228 173.848 47.1894 174.291 47.3708 174.792C47.5628 175.283 47.6588 175.795 47.6588 176.328C47.6588 176.445 47.6481 176.579 47.6268 176.728C47.6161 176.867 47.6001 177 47.5788 177.128H40.5068V175.848H46.7148L46.0108 176.424C46.1068 175.869 46.0534 175.373 45.8508 174.936C45.6481 174.499 45.3494 174.152 44.9548 173.896C44.5601 173.64 44.1121 173.512 43.6108 173.512C43.1094 173.512 42.6508 173.64 42.2348 173.896C41.8188 174.152 41.4934 174.52 41.2588 175C41.0348 175.469 40.9441 176.029 40.9868 176.68C40.9441 177.309 41.0401 177.864 41.2748 178.344C41.5201 178.813 41.8614 179.181 42.2988 179.448C42.7468 179.704 43.2321 179.832 43.7548 179.832C44.3308 179.832 44.8161 179.699 45.2108 179.432C45.6054 179.165 45.9254 178.824 46.1708 178.408L47.4188 179.048C47.2481 179.443 46.9814 179.805 46.6188 180.136C46.2668 180.456 45.8454 180.712 45.3548 180.904C44.8748 181.096 44.3361 181.192 43.7388 181.192ZM49.2789 181V172.376H50.7349V173.96L50.5749 173.736C50.7775 173.245 51.0869 172.883 51.5029 172.648C51.9189 172.403 52.4255 172.28 53.0229 172.28H53.5509V173.688H52.7989C52.1909 173.688 51.7002 173.88 51.3269 174.264C50.9535 174.637 50.7669 175.171 50.7669 175.864V181H49.2789ZM57.6406 181.192C56.7766 181.192 56.0246 180.979 55.3846 180.552C54.7446 180.125 54.2913 179.549 54.0246 178.824L55.2086 178.248C55.454 178.76 55.79 179.165 56.2166 179.464C56.6433 179.763 57.118 179.912 57.6406 179.912C58.11 179.912 58.4993 179.8 58.8086 179.576C59.118 179.352 59.2726 179.059 59.2726 178.696C59.2726 178.44 59.198 178.237 59.0486 178.088C58.91 177.928 58.7393 177.805 58.5366 177.72C58.334 177.624 58.1473 177.555 57.9766 177.512L56.6806 177.144C55.902 176.92 55.3313 176.6 54.9686 176.184C54.6166 175.768 54.4406 175.283 54.4406 174.728C54.4406 174.216 54.5686 173.773 54.8246 173.4C55.0913 173.016 55.4486 172.717 55.8966 172.504C56.3553 172.291 56.8673 172.184 57.4326 172.184C58.19 172.184 58.8673 172.376 59.4646 172.76C60.0726 173.144 60.5046 173.683 60.7606 174.376L59.5446 174.936C59.3526 174.488 59.0646 174.136 58.6806 173.88C58.2966 173.613 57.8646 173.48 57.3846 173.48C56.9473 173.48 56.6006 173.592 56.3446 173.816C56.0886 174.029 55.9606 174.301 55.9606 174.632C55.9606 174.877 56.0246 175.08 56.1526 175.24C56.2806 175.389 56.4353 175.507 56.6166 175.592C56.798 175.667 56.974 175.731 57.1446 175.784L58.5526 176.2C59.2566 176.403 59.8006 176.717 60.1846 177.144C60.5793 177.571 60.7766 178.083 60.7766 178.68C60.7766 179.16 60.6433 179.592 60.3766 179.976C60.11 180.36 59.742 180.659 59.2726 180.872C58.8033 181.085 58.2593 181.192 57.6406 181.192ZM62.4045 181V168.888H63.8925V174.056L63.6205 173.912C63.8338 173.368 64.1752 172.947 64.6445 172.648C65.1245 172.339 65.6845 172.184 66.3245 172.184C66.9432 172.184 67.4925 172.323 67.9725 172.6C68.4632 172.877 68.8472 173.261 69.1245 173.752C69.4125 174.243 69.5565 174.797 69.5565 175.416V181H68.0525V175.896C68.0525 175.416 67.9618 175.011 67.7805 174.68C67.6098 174.349 67.3698 174.093 67.0605 173.912C66.7512 173.72 66.3938 173.624 65.9885 173.624C65.5938 173.624 65.2365 173.72 64.9165 173.912C64.5965 174.093 64.3458 174.355 64.1645 174.696C63.9832 175.027 63.8925 175.427 63.8925 175.896V181H62.4045ZM71.3658 181V172.376H72.8538V181H71.3658ZM71.3658 171V169.08H72.8538V171H71.3658ZM74.8426 184.2V172.376H76.2986V174.232L76.1066 173.864C76.4266 173.352 76.864 172.947 77.4186 172.648C77.9733 172.339 78.608 172.184 79.3226 172.184C80.1333 172.184 80.8586 172.381 81.4986 172.776C82.1493 173.171 82.6613 173.709 83.0346 174.392C83.408 175.064 83.5946 175.832 83.5946 176.696C83.5946 177.539 83.408 178.301 83.0346 178.984C82.6613 179.667 82.1493 180.205 81.4986 180.6C80.8586 180.995 80.128 181.192 79.3066 181.192C78.6133 181.192 77.9786 181.037 77.4026 180.728C76.8373 180.419 76.4 179.981 76.0906 179.416L76.3306 179.16V184.2H74.8426ZM79.1946 179.752C79.7386 179.752 80.224 179.619 80.6506 179.352C81.0773 179.085 81.408 178.723 81.6426 178.264C81.888 177.795 82.0106 177.272 82.0106 176.696C82.0106 176.099 81.888 175.576 81.6426 175.128C81.408 174.669 81.0773 174.307 80.6506 174.04C80.224 173.763 79.7386 173.624 79.1946 173.624C78.6506 173.624 78.16 173.757 77.7226 174.024C77.296 174.291 76.9546 174.659 76.6986 175.128C76.4533 175.587 76.3306 176.109 76.3306 176.696C76.3306 177.272 76.4533 177.795 76.6986 178.264C76.9546 178.723 77.296 179.085 77.7226 179.352C78.16 179.619 78.6506 179.752 79.1946 179.752ZM1.328 229V217.08H6.336C7.05067 217.08 7.664 217.208 8.176 217.464C8.69867 217.72 9.09867 218.083 9.376 218.552C9.664 219.011 9.808 219.56 9.808 220.2C9.808 220.787 9.65333 221.32 9.344 221.8C9.04533 222.269 8.60267 222.637 8.016 222.904L8 222.312C8.512 222.504 8.93333 222.76 9.264 223.08C9.60533 223.389 9.86133 223.752 10.032 224.168C10.2027 224.573 10.288 225.005 10.288 225.464C10.288 226.563 9.936 227.427 9.232 228.056C8.528 228.685 7.568 229 6.352 229H1.328ZM2.896 227.56H6.416C7.10933 227.56 7.664 227.373 8.08 227C8.496 226.627 8.704 226.12 8.704 225.48C8.704 224.84 8.496 224.333 8.08 223.96C7.664 223.576 7.10933 223.384 6.416 223.384H2.896V227.56ZM2.896 221.976H6.304C6.88 221.976 7.344 221.811 7.696 221.48C8.048 221.139 8.224 220.707 8.224 220.184C8.224 219.64 8.048 219.224 7.696 218.936C7.344 218.648 6.88 218.504 6.304 218.504H2.896V221.976ZM14.9661 229.192C14.3475 229.192 13.7875 229.048 13.2861 228.76C12.7955 228.472 12.4115 228.072 12.1341 227.56C11.8675 227.037 11.7341 226.44 11.7341 225.768V220.376H13.2221V225.608C13.2221 226.035 13.3075 226.408 13.4781 226.728C13.6595 227.048 13.9048 227.299 14.2141 227.48C14.5341 227.661 14.8968 227.752 15.3021 227.752C15.7075 227.752 16.0648 227.661 16.3741 227.48C16.6941 227.299 16.9395 227.037 17.1101 226.696C17.2915 226.355 17.3821 225.949 17.3821 225.48V220.376H18.8861V229H17.4301V227.32L17.6701 227.464C17.4675 228.008 17.1208 228.435 16.6301 228.744C16.1501 229.043 15.5955 229.192 14.9661 229.192ZM23.9594 229.192C23.0954 229.192 22.3434 228.979 21.7034 228.552C21.0634 228.125 20.61 227.549 20.3434 226.824L21.5274 226.248C21.7727 226.76 22.1087 227.165 22.5354 227.464C22.962 227.763 23.4367 227.912 23.9594 227.912C24.4287 227.912 24.818 227.8 25.1274 227.576C25.4367 227.352 25.5914 227.059 25.5914 226.696C25.5914 226.44 25.5167 226.237 25.3674 226.088C25.2287 225.928 25.058 225.805 24.8554 225.72C24.6527 225.624 24.466 225.555 24.2954 225.512L22.9994 225.144C22.2207 224.92 21.65 224.6 21.2874 224.184C20.9354 223.768 20.7594 223.283 20.7594 222.728C20.7594 222.216 20.8874 221.773 21.1434 221.4C21.41 221.016 21.7674 220.717 22.2154 220.504C22.674 220.291 23.186 220.184 23.7514 220.184C24.5087 220.184 25.186 220.376 25.7834 220.76C26.3914 221.144 26.8234 221.683 27.0794 222.376L25.8634 222.936C25.6714 222.488 25.3834 222.136 24.9994 221.88C24.6154 221.613 24.1834 221.48 23.7034 221.48C23.266 221.48 22.9194 221.592 22.6634 221.816C22.4074 222.029 22.2794 222.301 22.2794 222.632C22.2794 222.877 22.3434 223.08 22.4714 223.24C22.5994 223.389 22.754 223.507 22.9354 223.592C23.1167 223.667 23.2927 223.731 23.4634 223.784L24.8714 224.2C25.5754 224.403 26.1194 224.717 26.5034 225.144C26.898 225.571 27.0954 226.083 27.0954 226.68C27.0954 227.16 26.962 227.592 26.6954 227.976C26.4287 228.36 26.0607 228.659 25.5914 228.872C25.122 229.085 24.578 229.192 23.9594 229.192ZM31.8113 229.192C30.9473 229.192 30.1953 228.979 29.5553 228.552C28.9153 228.125 28.4619 227.549 28.1953 226.824L29.3793 226.248C29.6246 226.76 29.9606 227.165 30.3873 227.464C30.8139 227.763 31.2886 227.912 31.8113 227.912C32.2806 227.912 32.6699 227.8 32.9793 227.576C33.2886 227.352 33.4433 227.059 33.4433 226.696C33.4433 226.44 33.3686 226.237 33.2193 226.088C33.0806 225.928 32.9099 225.805 32.7073 225.72C32.5046 225.624 32.3179 225.555 32.1473 225.512L30.8513 225.144C30.0726 224.92 29.5019 224.6 29.1393 224.184C28.7873 223.768 28.6113 223.283 28.6113 222.728C28.6113 222.216 28.7393 221.773 28.9953 221.4C29.2619 221.016 29.6193 220.717 30.0673 220.504C30.5259 220.291 31.0379 220.184 31.6033 220.184C32.3606 220.184 33.0379 220.376 33.6353 220.76C34.2433 221.144 34.6753 221.683 34.9313 222.376L33.7153 222.936C33.5233 222.488 33.2353 222.136 32.8513 221.88C32.4673 221.613 32.0353 221.48 31.5553 221.48C31.1179 221.48 30.7713 221.592 30.5153 221.816C30.2593 222.029 30.1313 222.301 30.1313 222.632C30.1313 222.877 30.1953 223.08 30.3233 223.24C30.4513 223.389 30.6059 223.507 30.7873 223.592C30.9686 223.667 31.1446 223.731 31.3153 223.784L32.7233 224.2C33.4273 224.403 33.9713 224.717 34.3553 225.144C34.7499 225.571 34.9473 226.083 34.9473 226.68C34.9473 227.16 34.8139 227.592 34.5473 227.976C34.2806 228.36 33.9126 228.659 33.4433 228.872C32.9739 229.085 32.4299 229.192 31.8113 229.192ZM36.5751 229V220.376H38.0631V229H36.5751ZM36.5751 219V217.08H38.0631V219H36.5751ZM40.052 229V220.376H41.508V222.056L41.268 221.912C41.4813 221.368 41.8227 220.947 42.292 220.648C42.772 220.339 43.332 220.184 43.972 220.184C44.5907 220.184 45.14 220.323 45.62 220.6C46.1107 220.877 46.4947 221.261 46.772 221.752C47.06 222.243 47.204 222.797 47.204 223.416V229H45.7V223.896C45.7 223.416 45.6147 223.011 45.444 222.68C45.2733 222.349 45.028 222.093 44.708 221.912C44.3987 221.72 44.0413 221.624 43.636 221.624C43.2307 221.624 42.868 221.72 42.548 221.912C42.2387 222.093 41.9933 222.355 41.812 222.696C41.6307 223.027 41.54 223.427 41.54 223.896V229H40.052ZM52.9813 229.192C52.1493 229.192 51.4079 228.995 50.7573 228.6C50.1066 228.205 49.5946 227.667 49.2213 226.984C48.8479 226.291 48.6613 225.517 48.6613 224.664C48.6613 223.8 48.8426 223.032 49.2053 222.36C49.5786 221.688 50.0799 221.16 50.7093 220.776C51.3493 220.381 52.0639 220.184 52.8533 220.184C53.4933 220.184 54.0586 220.301 54.5493 220.536C55.0506 220.76 55.4719 221.069 55.8133 221.464C56.1653 221.848 56.4319 222.291 56.6133 222.792C56.8053 223.283 56.9013 223.795 56.9013 224.328C56.9013 224.445 56.8906 224.579 56.8693 224.728C56.8586 224.867 56.8426 225 56.8213 225.128H49.7493V223.848H55.9573L55.2533 224.424C55.3493 223.869 55.2959 223.373 55.0933 222.936C54.8906 222.499 54.5919 222.152 54.1973 221.896C53.8026 221.64 53.3546 221.512 52.8533 221.512C52.3519 221.512 51.8933 221.64 51.4773 221.896C51.0613 222.152 50.7359 222.52 50.5013 223C50.2773 223.469 50.1866 224.029 50.2293 224.68C50.1866 225.309 50.2826 225.864 50.5173 226.344C50.7626 226.813 51.1039 227.181 51.5413 227.448C51.9893 227.704 52.4746 227.832 52.9973 227.832C53.5733 227.832 54.0586 227.699 54.4533 227.432C54.8479 227.165 55.1679 226.824 55.4133 226.408L56.6613 227.048C56.4906 227.443 56.2239 227.805 55.8613 228.136C55.5093 228.456 55.0879 228.712 54.5973 228.904C54.1173 229.096 53.5786 229.192 52.9813 229.192ZM61.6094 229.192C60.7454 229.192 59.9934 228.979 59.3534 228.552C58.7134 228.125 58.26 227.549 57.9934 226.824L59.1774 226.248C59.4227 226.76 59.7587 227.165 60.1854 227.464C60.612 227.763 61.0867 227.912 61.6094 227.912C62.0787 227.912 62.468 227.8 62.7774 227.576C63.0867 227.352 63.2414 227.059 63.2414 226.696C63.2414 226.44 63.1667 226.237 63.0174 226.088C62.8787 225.928 62.708 225.805 62.5054 225.72C62.3027 225.624 62.116 225.555 61.9454 225.512L60.6494 225.144C59.8707 224.92 59.3 224.6 58.9374 224.184C58.5854 223.768 58.4094 223.283 58.4094 222.728C58.4094 222.216 58.5374 221.773 58.7934 221.4C59.06 221.016 59.4174 220.717 59.8654 220.504C60.324 220.291 60.836 220.184 61.4014 220.184C62.1587 220.184 62.836 220.376 63.4334 220.76C64.0414 221.144 64.4734 221.683 64.7294 222.376L63.5134 222.936C63.3214 222.488 63.0334 222.136 62.6494 221.88C62.2654 221.613 61.8334 221.48 61.3534 221.48C60.916 221.48 60.5694 221.592 60.3134 221.816C60.0574 222.029 59.9294 222.301 59.9294 222.632C59.9294 222.877 59.9934 223.08 60.1214 223.24C60.2494 223.389 60.404 223.507 60.5854 223.592C60.7667 223.667 60.9427 223.731 61.1134 223.784L62.5214 224.2C63.2254 224.403 63.7694 224.717 64.1534 225.144C64.548 225.571 64.7454 226.083 64.7454 226.68C64.7454 227.16 64.612 227.592 64.3454 227.976C64.0787 228.36 63.7107 228.659 63.2414 228.872C62.772 229.085 62.228 229.192 61.6094 229.192ZM69.4613 229.192C68.5973 229.192 67.8453 228.979 67.2053 228.552C66.5653 228.125 66.1119 227.549 65.8453 226.824L67.0293 226.248C67.2746 226.76 67.6106 227.165 68.0373 227.464C68.4639 227.763 68.9386 227.912 69.4613 227.912C69.9306 227.912 70.3199 227.8 70.6293 227.576C70.9386 227.352 71.0933 227.059 71.0933 226.696C71.0933 226.44 71.0186 226.237 70.8693 226.088C70.7306 225.928 70.5599 225.805 70.3573 225.72C70.1546 225.624 69.9679 225.555 69.7973 225.512L68.5013 225.144C67.7226 224.92 67.1519 224.6 66.7893 224.184C66.4373 223.768 66.2613 223.283 66.2613 222.728C66.2613 222.216 66.3893 221.773 66.6453 221.4C66.9119 221.016 67.2693 220.717 67.7173 220.504C68.1759 220.291 68.6879 220.184 69.2533 220.184C70.0106 220.184 70.6879 220.376 71.2853 220.76C71.8933 221.144 72.3253 221.683 72.5813 222.376L71.3653 222.936C71.1733 222.488 70.8853 222.136 70.5013 221.88C70.1173 221.613 69.6853 221.48 69.2053 221.48C68.7679 221.48 68.4213 221.592 68.1653 221.816C67.9093 222.029 67.7813 222.301 67.7813 222.632C67.7813 222.877 67.8453 223.08 67.9733 223.24C68.1013 223.389 68.2559 223.507 68.4373 223.592C68.6186 223.667 68.7946 223.731 68.9653 223.784L70.3733 224.2C71.0773 224.403 71.6213 224.717 72.0053 225.144C72.3999 225.571 72.5973 226.083 72.5973 226.68C72.5973 227.16 72.4639 227.592 72.1973 227.976C71.9306 228.36 71.5626 228.659 71.0933 228.872C70.6239 229.085 70.0799 229.192 69.4613 229.192ZM76.8468 229V217.08H81.0548C81.8441 217.08 82.5374 217.229 83.1348 217.528C83.7321 217.827 84.1961 218.253 84.5268 218.808C84.8681 219.363 85.0388 220.013 85.0388 220.76C85.0388 221.603 84.8254 222.317 84.3988 222.904C83.9721 223.491 83.3961 223.912 82.6708 224.168L85.4388 229H83.6148L80.7028 223.832L81.7428 224.44H78.4148V229H76.8468ZM78.4148 223H81.1028C81.5721 223 81.9828 222.909 82.3348 222.728C82.6868 222.547 82.9588 222.285 83.1508 221.944C83.3534 221.603 83.4548 221.208 83.4548 220.76C83.4548 220.301 83.3534 219.907 83.1508 219.576C82.9588 219.235 82.6868 218.973 82.3348 218.792C81.9828 218.611 81.5721 218.52 81.1028 218.52H78.4148V223ZM90.2094 229.192C89.3774 229.192 88.636 228.995 87.9854 228.6C87.3347 228.205 86.8227 227.667 86.4494 226.984C86.076 226.291 85.8894 225.517 85.8894 224.664C85.8894 223.8 86.0707 223.032 86.4334 222.36C86.8067 221.688 87.308 221.16 87.9374 220.776C88.5774 220.381 89.292 220.184 90.0814 220.184C90.7214 220.184 91.2867 220.301 91.7774 220.536C92.2787 220.76 92.7 221.069 93.0414 221.464C93.3934 221.848 93.66 222.291 93.8414 222.792C94.0334 223.283 94.1294 223.795 94.1294 224.328C94.1294 224.445 94.1187 224.579 94.0974 224.728C94.0867 224.867 94.0707 225 94.0494 225.128H86.9774V223.848H93.1854L92.4814 224.424C92.5774 223.869 92.524 223.373 92.3214 222.936C92.1187 222.499 91.82 222.152 91.4254 221.896C91.0307 221.64 90.5827 221.512 90.0814 221.512C89.58 221.512 89.1214 221.64 88.7054 221.896C88.2894 222.152 87.964 222.52 87.7294 223C87.5054 223.469 87.4147 224.029 87.4574 224.68C87.4147 225.309 87.5107 225.864 87.7454 226.344C87.9907 226.813 88.332 227.181 88.7694 227.448C89.2174 227.704 89.7027 227.832 90.2254 227.832C90.8014 227.832 91.2867 227.699 91.6814 227.432C92.076 227.165 92.396 226.824 92.6414 226.408L93.8894 227.048C93.7187 227.443 93.452 227.805 93.0894 228.136C92.7374 228.456 92.316 228.712 91.8254 228.904C91.3454 229.096 90.8067 229.192 90.2094 229.192ZM95.7495 229V216.888H97.2375V229H95.7495ZM101.754 229.192C101.189 229.192 100.688 229.091 100.25 228.888C99.8237 228.675 99.4877 228.387 99.2424 228.024C98.997 227.651 98.8744 227.224 98.8744 226.744C98.8744 226.285 98.9704 225.875 99.1624 225.512C99.365 225.139 99.6744 224.824 100.09 224.568C100.517 224.312 101.05 224.131 101.69 224.024L104.89 223.496V224.744L102.026 225.224C101.472 225.32 101.066 225.496 100.81 225.752C100.565 226.008 100.442 226.323 100.442 226.696C100.442 227.048 100.581 227.341 100.858 227.576C101.146 227.811 101.504 227.928 101.93 227.928C102.474 227.928 102.944 227.816 103.338 227.592C103.744 227.357 104.058 227.043 104.282 226.648C104.517 226.253 104.634 225.816 104.634 225.336V223.144C104.634 222.675 104.458 222.296 104.106 222.008C103.765 221.709 103.312 221.56 102.746 221.56C102.256 221.56 101.818 221.688 101.434 221.944C101.061 222.189 100.784 222.52 100.602 222.936L99.3064 222.264C99.4664 221.869 99.7224 221.517 100.074 221.208C100.426 220.888 100.837 220.637 101.306 220.456C101.776 220.275 102.266 220.184 102.778 220.184C103.44 220.184 104.021 220.312 104.522 220.568C105.024 220.813 105.413 221.16 105.69 221.608C105.978 222.045 106.122 222.557 106.122 223.144V229H104.666V227.368L104.938 227.464C104.757 227.805 104.512 228.104 104.202 228.36C103.893 228.616 103.53 228.819 103.114 228.968C102.698 229.117 102.245 229.192 101.754 229.192ZM111.457 229.096C110.615 229.096 109.964 228.856 109.505 228.376C109.057 227.896 108.833 227.219 108.833 226.344V221.8H107.265V220.376H107.585C107.969 220.376 108.273 220.259 108.497 220.024C108.721 219.789 108.833 219.48 108.833 219.096V218.392H110.321V220.376H112.257V221.8H110.321V226.296C110.321 226.584 110.364 226.835 110.449 227.048C110.545 227.261 110.7 227.432 110.913 227.56C111.127 227.677 111.409 227.736 111.761 227.736C111.836 227.736 111.927 227.731 112.033 227.72C112.151 227.709 112.257 227.699 112.353 227.688V229C112.215 229.032 112.06 229.053 111.889 229.064C111.719 229.085 111.575 229.096 111.457 229.096ZM113.977 229V220.376H115.465V229H113.977ZM113.977 219V217.08H115.465V219H113.977ZM121.55 229.192C120.718 229.192 119.966 229 119.294 228.616C118.622 228.221 118.089 227.683 117.694 227C117.299 226.317 117.102 225.544 117.102 224.68C117.102 223.816 117.294 223.048 117.678 222.376C118.073 221.704 118.606 221.171 119.278 220.776C119.95 220.381 120.707 220.184 121.55 220.184C122.382 220.184 123.134 220.381 123.806 220.776C124.478 221.16 125.006 221.688 125.39 222.36C125.785 223.032 125.982 223.805 125.982 224.68C125.982 225.555 125.779 226.333 125.374 227.016C124.969 227.688 124.43 228.221 123.758 228.616C123.097 229 122.361 229.192 121.55 229.192ZM121.55 227.752C122.083 227.752 122.563 227.619 122.99 227.352C123.427 227.085 123.769 226.717 124.014 226.248C124.27 225.779 124.398 225.256 124.398 224.68C124.398 224.093 124.27 223.576 124.014 223.128C123.769 222.669 123.427 222.307 122.99 222.04C122.563 221.763 122.083 221.624 121.55 221.624C121.006 221.624 120.515 221.763 120.078 222.04C119.651 222.307 119.31 222.669 119.054 223.128C118.798 223.576 118.67 224.093 118.67 224.68C118.67 225.256 118.798 225.779 119.054 226.248C119.31 226.717 119.651 227.085 120.078 227.352C120.515 227.619 121.006 227.752 121.55 227.752ZM127.603 229V220.376H129.059V222.056L128.819 221.912C129.032 221.368 129.373 220.947 129.843 220.648C130.323 220.339 130.883 220.184 131.523 220.184C132.141 220.184 132.691 220.323 133.171 220.6C133.661 220.877 134.045 221.261 134.323 221.752C134.611 222.243 134.755 222.797 134.755 223.416V229H133.251V223.896C133.251 223.416 133.165 223.011 132.995 222.68C132.824 222.349 132.579 222.093 132.259 221.912C131.949 221.72 131.592 221.624 131.187 221.624C130.781 221.624 130.419 221.72 130.099 221.912C129.789 222.093 129.544 222.355 129.363 222.696C129.181 223.027 129.091 223.427 129.091 223.896V229H127.603Z" fill="#131313" fill-opacity="0.6"/>
<path d="M0.22 24L5.46 9.1H8.38L13.62 24H11.1L9.96 20.66H3.9L2.74 24H0.22ZM4.58 18.56H9.24L6.6 10.76H7.26L4.58 18.56ZM20.5477 24.24C19.7077 24.24 18.941 24.0667 18.2477 23.72C17.5677 23.3733 17.041 22.8733 16.6677 22.22L16.9277 21.8V24H14.7677V8.86H17.0277V15.42L16.6677 14.9C17.0677 14.2867 17.601 13.8067 18.2677 13.46C18.9343 13.1133 19.6943 12.94 20.5477 12.94C21.5743 12.94 22.4943 13.1867 23.3077 13.68C24.1343 14.1733 24.781 14.8467 25.2477 15.7C25.7277 16.5533 25.9677 17.5133 25.9677 18.58C25.9677 19.6467 25.7277 20.6067 25.2477 21.46C24.781 22.3133 24.141 22.9933 23.3277 23.5C22.5143 23.9933 21.5877 24.24 20.5477 24.24ZM20.3277 22.14C20.9677 22.14 21.5343 21.9867 22.0277 21.68C22.521 21.3733 22.9077 20.9533 23.1877 20.42C23.481 19.8733 23.6277 19.26 23.6277 18.58C23.6277 17.9 23.481 17.2933 23.1877 16.76C22.9077 16.2267 22.521 15.8067 22.0277 15.5C21.5343 15.1933 20.9677 15.04 20.3277 15.04C19.701 15.04 19.1343 15.1933 18.6277 15.5C18.1343 15.8067 17.741 16.2267 17.4477 16.76C17.1677 17.2933 17.0277 17.9 17.0277 18.58C17.0277 19.26 17.1677 19.8733 17.4477 20.42C17.741 20.9533 18.1343 21.3733 18.6277 21.68C19.1343 21.9867 19.701 22.14 20.3277 22.14ZM32.9861 24.24C31.9461 24.24 30.9928 23.9933 30.1261 23.5C29.2728 23.0067 28.5928 22.3333 28.0861 21.48C27.5794 20.6267 27.3261 19.66 27.3261 18.58C27.3261 17.4867 27.5794 16.52 28.0861 15.68C28.5928 14.8267 29.2728 14.16 30.1261 13.68C30.9794 13.1867 31.9328 12.94 32.9861 12.94C34.0528 12.94 35.0061 13.1867 35.8461 13.68C36.6994 14.16 37.3728 14.8267 37.8661 15.68C38.3728 16.52 38.6261 17.4867 38.6261 18.58C38.6261 19.6733 38.3728 20.6467 37.8661 21.5C37.3594 22.3533 36.6794 23.0267 35.8261 23.52C34.9728 24 34.0261 24.24 32.9861 24.24ZM32.9861 22.14C33.6261 22.14 34.1928 21.9867 34.6861 21.68C35.1794 21.3733 35.5661 20.9533 35.8461 20.42C36.1394 19.8733 36.2861 19.26 36.2861 18.58C36.2861 17.9 36.1394 17.2933 35.8461 16.76C35.5661 16.2267 35.1794 15.8067 34.6861 15.5C34.1928 15.1933 33.6261 15.04 32.9861 15.04C32.3594 15.04 31.7928 15.1933 31.2861 15.5C30.7928 15.8067 30.3994 16.2267 30.1061 16.76C29.8261 17.2933 29.6861 17.9 29.6861 18.58C29.6861 19.26 29.8261 19.8733 30.1061 20.42C30.3994 20.9533 30.7928 21.3733 31.2861 21.68C31.7928 21.9867 32.3594 22.14 32.9861 22.14ZM44.2925 24.24C43.4792 24.24 42.7658 24.06 42.1525 23.7C41.5392 23.3267 41.0592 22.8133 40.7125 22.16C40.3792 21.4933 40.2125 20.7267 40.2125 19.86V13.18H42.4725V19.66C42.4725 20.1533 42.5725 20.5867 42.7725 20.96C42.9725 21.3333 43.2525 21.6267 43.6125 21.84C43.9725 22.04 44.3858 22.14 44.8525 22.14C45.3325 22.14 45.7525 22.0333 46.1125 21.82C46.4725 21.6067 46.7525 21.3067 46.9525 20.92C47.1658 20.5333 47.2725 20.08 47.2725 19.56V13.18H49.5125V24H47.3725V21.88L47.6125 22.16C47.3592 22.8267 46.9392 23.34 46.3525 23.7C45.7658 24.06 45.0792 24.24 44.2925 24.24ZM56.4313 24.12C55.2979 24.12 54.4179 23.8 53.7913 23.16C53.1646 22.52 52.8513 21.62 52.8513 20.46V15.22H50.9513V13.18H51.2513C51.7579 13.18 52.1513 13.0333 52.4313 12.74C52.7113 12.4467 52.8513 12.0467 52.8513 11.54V10.7H55.1113V13.18H57.5713V15.22H55.1113V20.36C55.1113 20.7333 55.1713 21.0533 55.2913 21.32C55.4113 21.5733 55.6046 21.7733 55.8713 21.92C56.1379 22.0533 56.4846 22.12 56.9113 22.12C57.0179 22.12 57.1379 22.1133 57.2713 22.1C57.4046 22.0867 57.5313 22.0733 57.6513 22.06V24C57.4646 24.0267 57.2579 24.0533 57.0313 24.08C56.8046 24.1067 56.6046 24.12 56.4313 24.12Z" fill="#1A202C"/>
</svg>
