<svg width="152" height="244" viewBox="0 0 152 244" fill="none" xmlns="http://www.w3.org/2000/svg">
<path d="M1.328 85V73.08H9.088V74.52H2.896V78.296H8.768V79.736H2.896V83.56H9.088V85H1.328ZM12.9351 85L9.55913 76.376H11.2231L13.9271 83.672H13.3511L16.0711 76.376H17.7351L14.3431 85H12.9351ZM22.5581 85.192C21.7261 85.192 20.9848 84.9947 20.3341 84.6C19.6835 84.2053 19.1715 83.6667 18.7981 82.984C18.4248 82.2907 18.2381 81.5173 18.2381 80.664C18.2381 79.8 18.4195 79.032 18.7821 78.36C19.1555 77.688 19.6568 77.16 20.2861 76.776C20.9261 76.3813 21.6408 76.184 22.4301 76.184C23.0701 76.184 23.6355 76.3013 24.1261 76.536C24.6275 76.76 25.0488 77.0693 25.3901 77.464C25.7421 77.848 26.0088 78.2907 26.1901 78.792C26.3821 79.2827 26.4781 79.7947 26.4781 80.328C26.4781 80.4453 26.4675 80.5787 26.4461 80.728C26.4355 80.8667 26.4195 81 26.3981 81.128H19.3261V79.848H25.5341L24.8301 80.424C24.9261 79.8693 24.8728 79.3733 24.6701 78.936C24.4675 78.4987 24.1688 78.152 23.7741 77.896C23.3795 77.64 22.9315 77.512 22.4301 77.512C21.9288 77.512 21.4701 77.64 21.0541 77.896C20.6381 78.152 20.3128 78.52 20.0781 79C19.8541 79.4693 19.7635 80.0293 19.8061 80.68C19.7635 81.3093 19.8595 81.864 20.0941 82.344C20.3395 82.8133 20.6808 83.1813 21.1181 83.448C21.5661 83.704 22.0515 83.832 22.5741 83.832C23.1501 83.832 23.6355 83.6987 24.0301 83.432C24.4248 83.1653 24.7448 82.824 24.9901 82.408L26.2381 83.048C26.0675 83.4427 25.8008 83.8053 25.4381 84.136C25.0861 84.456 24.6648 84.712 24.1741 84.904C23.6941 85.096 23.1555 85.192 22.5581 85.192ZM28.0983 85V76.376H29.5543V78.056L29.3143 77.912C29.5276 77.368 29.8689 76.9467 30.3383 76.648C30.8183 76.3387 31.3783 76.184 32.0183 76.184C32.6369 76.184 33.1863 76.3227 33.6663 76.6C34.1569 76.8773 34.5409 77.2613 34.8183 77.752C35.1063 78.2427 35.2503 78.7973 35.2503 79.416V85H33.7463V79.896C33.7463 79.416 33.6609 79.0107 33.4903 78.68C33.3196 78.3493 33.0743 78.0933 32.7543 77.912C32.4449 77.72 32.0876 77.624 31.6823 77.624C31.2769 77.624 30.9143 77.72 30.5943 77.912C30.2849 78.0933 30.0396 78.3547 29.8583 78.696C29.6769 79.0267 29.5863 79.4267 29.5863 79.896V85H28.0983ZM40.5635 85.096C39.7208 85.096 39.0702 84.856 38.6115 84.376C38.1635 83.896 37.9395 83.2187 37.9395 82.344V77.8H36.3715V76.376H36.6915C37.0755 76.376 37.3795 76.2587 37.6035 76.024C37.8275 75.7893 37.9395 75.48 37.9395 75.096V74.392H39.4275V76.376H41.3635V77.8H39.4275V82.296C39.4275 82.584 39.4702 82.8347 39.5555 83.048C39.6515 83.2613 39.8062 83.432 40.0195 83.56C40.2328 83.6773 40.5155 83.736 40.8675 83.736C40.9422 83.736 41.0328 83.7307 41.1395 83.72C41.2568 83.7093 41.3635 83.6987 41.4595 83.688V85C41.3208 85.032 41.1662 85.0533 40.9955 85.064C40.8248 85.0853 40.6808 85.096 40.5635 85.096ZM46.1713 85.192C45.3073 85.192 44.5553 84.9787 43.9153 84.552C43.2753 84.1253 42.8219 83.5493 42.5553 82.824L43.7393 82.248C43.9846 82.76 44.3206 83.1653 44.7473 83.464C45.1739 83.7627 45.6486 83.912 46.1713 83.912C46.6406 83.912 47.0299 83.8 47.3393 83.576C47.6486 83.352 47.8033 83.0587 47.8033 82.696C47.8033 82.44 47.7286 82.2373 47.5793 82.088C47.4406 81.928 47.2699 81.8053 47.0673 81.72C46.8646 81.624 46.6779 81.5547 46.5073 81.512L45.2113 81.144C44.4326 80.92 43.8619 80.6 43.4993 80.184C43.1473 79.768 42.9713 79.2827 42.9713 78.728C42.9713 78.216 43.0993 77.7733 43.3553 77.4C43.6219 77.016 43.9793 76.7173 44.4273 76.504C44.8859 76.2907 45.3979 76.184 45.9633 76.184C46.7206 76.184 47.3979 76.376 47.9953 76.76C48.6033 77.144 49.0353 77.6827 49.2913 78.376L48.0753 78.936C47.8833 78.488 47.5953 78.136 47.2113 77.88C46.8273 77.6133 46.3953 77.48 45.9153 77.48C45.4779 77.48 45.1313 77.592 44.8753 77.816C44.6193 78.0293 44.4913 78.3013 44.4913 78.632C44.4913 78.8773 44.5553 79.08 44.6833 79.24C44.8113 79.3893 44.9659 79.5067 45.1473 79.592C45.3286 79.6667 45.5046 79.7307 45.6753 79.784L47.0833 80.2C47.7873 80.4027 48.3313 80.7173 48.7153 81.144C49.1099 81.5707 49.3073 82.0827 49.3073 82.68C49.3073 83.16 49.1739 83.592 48.9073 83.976C48.6406 84.36 48.2726 84.6587 47.8033 84.872C47.3339 85.0853 46.7899 85.192 46.1713 85.192ZM1.328 133V121.08H6.336C7.05067 121.08 7.664 121.208 8.176 121.464C8.69867 121.72 9.09867 122.083 9.376 122.552C9.664 123.011 9.808 123.56 9.808 124.2C9.808 124.787 9.65333 125.32 9.344 125.8C9.04533 126.269 8.60267 126.637 8.016 126.904L8 126.312C8.512 126.504 8.93333 126.76 9.264 127.08C9.60533 127.389 9.86133 127.752 10.032 128.168C10.2027 128.573 10.288 129.005 10.288 129.464C10.288 130.563 9.936 131.427 9.232 132.056C8.528 132.685 7.568 133 6.352 133H1.328ZM2.896 131.56H6.416C7.10933 131.56 7.664 131.373 8.08 131C8.496 130.627 8.704 130.12 8.704 129.48C8.704 128.84 8.496 128.333 8.08 127.96C7.664 127.576 7.10933 127.384 6.416 127.384H2.896V131.56ZM2.896 125.976H6.304C6.88 125.976 7.344 125.811 7.696 125.48C8.048 125.139 8.224 124.707 8.224 124.184C8.224 123.64 8.048 123.224 7.696 122.936C7.344 122.648 6.88 122.504 6.304 122.504H2.896V125.976ZM11.9101 133V120.888H13.3981V133H11.9101ZM19.483 133.192C18.651 133.192 17.899 133 17.227 132.616C16.555 132.221 16.0217 131.683 15.627 131C15.2323 130.317 15.035 129.544 15.035 128.68C15.035 127.816 15.227 127.048 15.611 126.376C16.0057 125.704 16.539 125.171 17.211 124.776C17.883 124.381 18.6403 124.184 19.483 124.184C20.315 124.184 21.067 124.381 21.739 124.776C22.411 125.16 22.939 125.688 23.323 126.36C23.7177 127.032 23.915 127.805 23.915 128.68C23.915 129.555 23.7123 130.333 23.307 131.016C22.9017 131.688 22.363 132.221 21.691 132.616C21.0297 133 20.2937 133.192 19.483 133.192ZM19.483 131.752C20.0163 131.752 20.4963 131.619 20.923 131.352C21.3603 131.085 21.7017 130.717 21.947 130.248C22.203 129.779 22.331 129.256 22.331 128.68C22.331 128.093 22.203 127.576 21.947 127.128C21.7017 126.669 21.3603 126.307 20.923 126.04C20.4963 125.763 20.0163 125.624 19.483 125.624C18.939 125.624 18.4483 125.763 18.011 126.04C17.5843 126.307 17.243 126.669 16.987 127.128C16.731 127.576 16.603 128.093 16.603 128.68C16.603 129.256 16.731 129.779 16.987 130.248C17.243 130.717 17.5843 131.085 18.011 131.352C18.4483 131.619 18.939 131.752 19.483 131.752ZM29.6478 136.52C29.0398 136.52 28.4744 136.424 27.9518 136.232C27.4398 136.04 26.9971 135.773 26.6238 135.432C26.2611 135.101 25.9838 134.712 25.7918 134.264L27.1838 133.624C27.3331 134.029 27.6158 134.371 28.0318 134.648C28.4584 134.936 28.9918 135.08 29.6318 135.08C30.1224 135.08 30.5651 134.984 30.9598 134.792C31.3651 134.611 31.6851 134.333 31.9198 133.96C32.1544 133.597 32.2718 133.155 32.2718 132.632V130.696L32.5438 130.984C32.2451 131.571 31.8131 132.019 31.2478 132.328C30.6931 132.637 30.0798 132.792 29.4078 132.792C28.5971 132.792 27.8718 132.605 27.2318 132.232C26.5918 131.848 26.0904 131.331 25.7278 130.68C25.3651 130.019 25.1838 129.288 25.1838 128.488C25.1838 127.677 25.3651 126.947 25.7278 126.296C26.0904 125.645 26.5864 125.133 27.2158 124.76C27.8558 124.376 28.5811 124.184 29.3918 124.184C30.0638 124.184 30.6718 124.339 31.2158 124.648C31.7704 124.947 32.2131 125.363 32.5438 125.896L32.3198 126.296V124.376H33.7758V132.632C33.7758 133.379 33.5998 134.045 33.2478 134.632C32.8958 135.219 32.4051 135.677 31.7758 136.008C31.1571 136.349 30.4478 136.52 29.6478 136.52ZM29.5358 131.352C30.0478 131.352 30.5064 131.224 30.9118 130.968C31.3278 130.712 31.6584 130.371 31.9038 129.944C32.1491 129.507 32.2718 129.021 32.2718 128.488C32.2718 127.965 32.1491 127.485 31.9038 127.048C31.6584 126.611 31.3278 126.264 30.9118 126.008C30.5064 125.752 30.0478 125.624 29.5358 125.624C29.0131 125.624 28.5384 125.752 28.1118 126.008C27.6851 126.264 27.3491 126.611 27.1038 127.048C26.8691 127.475 26.7518 127.955 26.7518 128.488C26.7518 129.021 26.8691 129.507 27.1038 129.944C27.3491 130.371 27.6798 130.712 28.0958 130.968C28.5224 131.224 29.0024 131.352 29.5358 131.352ZM1.328 181V169.08H5.536C6.32533 169.08 7.01867 169.229 7.616 169.528C8.21333 169.827 8.67733 170.253 9.008 170.808C9.34933 171.363 9.52 172.013 9.52 172.76C9.52 173.507 9.34933 174.157 9.008 174.712C8.67733 175.256 8.21333 175.683 7.616 175.992C7.02933 176.291 6.336 176.44 5.536 176.44H2.896V181H1.328ZM2.896 175H5.584C6.064 175 6.48 174.909 6.832 174.728C7.184 174.547 7.456 174.285 7.648 173.944C7.84 173.603 7.936 173.208 7.936 172.76C7.936 172.301 7.84 171.907 7.648 171.576C7.456 171.235 7.184 170.973 6.832 170.792C6.48 170.611 6.064 170.52 5.584 170.52H2.896V175ZM14.928 181.192C14.096 181.192 13.344 181 12.672 180.616C12 180.221 11.4667 179.683 11.072 179C10.6773 178.317 10.48 177.544 10.48 176.68C10.48 175.816 10.672 175.048 11.056 174.376C11.4507 173.704 11.984 173.171 12.656 172.776C13.328 172.381 14.0853 172.184 14.928 172.184C15.76 172.184 16.512 172.381 17.184 172.776C17.856 173.16 18.384 173.688 18.768 174.36C19.1627 175.032 19.36 175.805 19.36 176.68C19.36 177.555 19.1573 178.333 18.752 179.016C18.3467 179.688 17.808 180.221 17.136 180.616C16.4747 181 15.7387 181.192 14.928 181.192ZM14.928 179.752C15.4613 179.752 15.9413 179.619 16.368 179.352C16.8053 179.085 17.1467 178.717 17.392 178.248C17.648 177.779 17.776 177.256 17.776 176.68C17.776 176.093 17.648 175.576 17.392 175.128C17.1467 174.669 16.8053 174.307 16.368 174.04C15.9413 173.763 15.4613 173.624 14.928 173.624C14.384 173.624 13.8933 173.763 13.456 174.04C13.0293 174.307 12.688 174.669 12.432 175.128C12.176 175.576 12.048 176.093 12.048 176.68C12.048 177.256 12.176 177.779 12.432 178.248C12.688 178.717 13.0293 179.085 13.456 179.352C13.8933 179.619 14.384 179.752 14.928 179.752ZM24.9008 181.192C24.0901 181.192 23.3594 180.995 22.7088 180.6C22.0688 180.205 21.5621 179.667 21.1888 178.984C20.8154 178.301 20.6288 177.539 20.6288 176.696C20.6288 175.832 20.8154 175.064 21.1888 174.392C21.5621 173.709 22.0688 173.171 22.7088 172.776C23.3594 172.381 24.0901 172.184 24.9008 172.184C25.6154 172.184 26.2501 172.339 26.8048 172.648C27.3594 172.947 27.7968 173.352 28.1168 173.864L27.8768 174.232V168.888H29.3808V181H27.9248V179.16L28.1168 179.416C27.8181 179.981 27.3808 180.419 26.8048 180.728C26.2394 181.037 25.6048 181.192 24.9008 181.192ZM25.0288 179.752C25.5728 179.752 26.0581 179.619 26.4848 179.352C26.9114 179.085 27.2474 178.723 27.4928 178.264C27.7488 177.795 27.8768 177.272 27.8768 176.696C27.8768 176.109 27.7488 175.587 27.4928 175.128C27.2474 174.659 26.9114 174.291 26.4848 174.024C26.0581 173.757 25.5728 173.624 25.0288 173.624C24.4954 173.624 24.0101 173.763 23.5728 174.04C23.1461 174.307 22.8101 174.669 22.5648 175.128C22.3194 175.576 22.1968 176.099 22.1968 176.696C22.1968 177.272 22.3194 177.795 22.5648 178.264C22.8101 178.723 23.1461 179.085 23.5728 179.352C23.9994 179.619 24.4848 179.752 25.0288 179.752ZM35.3639 181.192C34.5212 181.192 33.7692 180.995 33.1079 180.6C32.4572 180.205 31.9452 179.667 31.5719 178.984C31.1985 178.301 31.0119 177.533 31.0119 176.68C31.0119 175.816 31.1985 175.048 31.5719 174.376C31.9452 173.704 32.4572 173.171 33.1079 172.776C33.7692 172.381 34.5212 172.184 35.3639 172.184C35.9292 172.184 36.4572 172.285 36.9479 172.488C37.4385 172.691 37.8705 172.963 38.2439 173.304C38.6172 173.645 38.8892 174.045 39.0599 174.504L37.7319 175.144C37.5292 174.696 37.2199 174.333 36.8039 174.056C36.3879 173.768 35.9079 173.624 35.3639 173.624C34.8412 173.624 34.3665 173.757 33.9399 174.024C33.5239 174.291 33.1932 174.653 32.9479 175.112C32.7025 175.571 32.5799 176.099 32.5799 176.696C32.5799 177.272 32.7025 177.795 32.9479 178.264C33.1932 178.723 33.5239 179.085 33.9399 179.352C34.3665 179.619 34.8412 179.752 35.3639 179.752C35.9079 179.752 36.3879 179.613 36.8039 179.336C37.2199 179.048 37.5292 178.669 37.7319 178.2L39.0599 178.872C38.8892 179.32 38.6172 179.72 38.2439 180.072C37.8705 180.413 37.4385 180.685 36.9479 180.888C36.4572 181.091 35.9292 181.192 35.3639 181.192ZM43.1031 181.192C42.5378 181.192 42.0365 181.091 41.5991 180.888C41.1725 180.675 40.8365 180.387 40.5911 180.024C40.3458 179.651 40.2231 179.224 40.2231 178.744C40.2231 178.285 40.3191 177.875 40.5111 177.512C40.7138 177.139 41.0231 176.824 41.4391 176.568C41.8658 176.312 42.3991 176.131 43.0391 176.024L46.2391 175.496V176.744L43.3751 177.224C42.8205 177.32 42.4151 177.496 42.1591 177.752C41.9138 178.008 41.7911 178.323 41.7911 178.696C41.7911 179.048 41.9298 179.341 42.2071 179.576C42.4951 179.811 42.8525 179.928 43.2791 179.928C43.8231 179.928 44.2925 179.816 44.6871 179.592C45.0925 179.357 45.4071 179.043 45.6311 178.648C45.8658 178.253 45.9831 177.816 45.9831 177.336V175.144C45.9831 174.675 45.8071 174.296 45.4551 174.008C45.1138 173.709 44.6605 173.56 44.0951 173.56C43.6045 173.56 43.1671 173.688 42.7831 173.944C42.4098 174.189 42.1325 174.52 41.9511 174.936L40.6551 174.264C40.8151 173.869 41.0711 173.517 41.4231 173.208C41.7751 172.888 42.1858 172.637 42.6551 172.456C43.1245 172.275 43.6151 172.184 44.1271 172.184C44.7885 172.184 45.3698 172.312 45.8711 172.568C46.3725 172.813 46.7618 173.16 47.0391 173.608C47.3271 174.045 47.4711 174.557 47.4711 175.144V181H46.0151V179.368L46.2871 179.464C46.1058 179.805 45.8605 180.104 45.5511 180.36C45.2418 180.616 44.8791 180.819 44.4631 180.968C44.0471 181.117 43.5938 181.192 43.1031 181.192ZM52.5463 181.192C51.6823 181.192 50.9303 180.979 50.2903 180.552C49.6503 180.125 49.1969 179.549 48.9303 178.824L50.1143 178.248C50.3596 178.76 50.6956 179.165 51.1223 179.464C51.5489 179.763 52.0236 179.912 52.5463 179.912C53.0156 179.912 53.4049 179.8 53.7143 179.576C54.0236 179.352 54.1783 179.059 54.1783 178.696C54.1783 178.44 54.1036 178.237 53.9543 178.088C53.8156 177.928 53.6449 177.805 53.4423 177.72C53.2396 177.624 53.0529 177.555 52.8823 177.512L51.5863 177.144C50.8076 176.92 50.2369 176.6 49.8743 176.184C49.5223 175.768 49.3463 175.283 49.3463 174.728C49.3463 174.216 49.4743 173.773 49.7303 173.4C49.9969 173.016 50.3543 172.717 50.8023 172.504C51.2609 172.291 51.7729 172.184 52.3383 172.184C53.0956 172.184 53.7729 172.376 54.3703 172.76C54.9783 173.144 55.4103 173.683 55.6663 174.376L54.4503 174.936C54.2583 174.488 53.9703 174.136 53.5863 173.88C53.2023 173.613 52.7703 173.48 52.2903 173.48C51.8529 173.48 51.5063 173.592 51.2503 173.816C50.9943 174.029 50.8663 174.301 50.8663 174.632C50.8663 174.877 50.9303 175.08 51.0583 175.24C51.1863 175.389 51.3409 175.507 51.5223 175.592C51.7036 175.667 51.8796 175.731 52.0503 175.784L53.4583 176.2C54.1623 176.403 54.7063 176.717 55.0903 177.144C55.4849 177.571 55.6823 178.083 55.6823 178.68C55.6823 179.16 55.5489 179.592 55.2823 179.976C55.0156 180.36 54.6476 180.659 54.1783 180.872C53.7089 181.085 53.1649 181.192 52.5463 181.192ZM60.8141 181.096C59.9715 181.096 59.3208 180.856 58.8621 180.376C58.4141 179.896 58.1901 179.219 58.1901 178.344V173.8H56.6221V172.376H56.9421C57.3261 172.376 57.6301 172.259 57.8541 172.024C58.0781 171.789 58.1901 171.48 58.1901 171.096V170.392H59.6781V172.376H61.6141V173.8H59.6781V178.296C59.6781 178.584 59.7208 178.835 59.8061 179.048C59.9021 179.261 60.0568 179.432 60.2701 179.56C60.4835 179.677 60.7661 179.736 61.1181 179.736C61.1928 179.736 61.2835 179.731 61.3901 179.72C61.5075 179.709 61.6141 179.699 61.7101 179.688V181C61.5715 181.032 61.4168 181.053 61.2461 181.064C61.0755 181.085 60.9315 181.096 60.8141 181.096ZM1.328 229V217.08H2.896V229H1.328ZM5.05075 229V220.376H6.50675V222.056L6.26675 221.912C6.48008 221.368 6.82142 220.947 7.29075 220.648C7.77075 220.339 8.33075 220.184 8.97075 220.184C9.58942 220.184 10.1388 220.323 10.6188 220.6C11.1094 220.877 11.4934 221.261 11.7708 221.752C12.0588 222.243 12.2028 222.797 12.2028 223.416V229H10.6988V223.896C10.6988 223.416 10.6134 223.011 10.4428 222.68C10.2721 222.349 10.0268 222.093 9.70675 221.912C9.39742 221.72 9.04008 221.624 8.63475 221.624C8.22942 221.624 7.86675 221.72 7.54675 221.912C7.23742 222.093 6.99208 222.355 6.81075 222.696C6.62942 223.027 6.53875 223.427 6.53875 223.896V229H5.05075ZM16.2557 229L12.8797 220.376H14.5437L17.2477 227.672H16.6717L19.3917 220.376H21.0557L17.6637 229H16.2557ZM22.067 229V220.376H23.555V229H22.067ZM22.067 219V217.08H23.555V219H22.067ZM29.0479 229.096C28.2052 229.096 27.5545 228.856 27.0959 228.376C26.6479 227.896 26.4239 227.219 26.4239 226.344V221.8H24.8559V220.376H25.1759C25.5599 220.376 25.8639 220.259 26.0879 220.024C26.3119 219.789 26.4239 219.48 26.4239 219.096V218.392H27.9119V220.376H29.8479V221.8H27.9119V226.296C27.9119 226.584 27.9545 226.835 28.0399 227.048C28.1359 227.261 28.2905 227.432 28.5039 227.56C28.7172 227.677 28.9999 227.736 29.3519 227.736C29.4265 227.736 29.5172 227.731 29.6239 227.72C29.7412 227.709 29.8479 227.699 29.9439 227.688V229C29.8052 229.032 29.6505 229.053 29.4799 229.064C29.3092 229.085 29.1652 229.096 29.0479 229.096ZM35.3012 229.192C34.4692 229.192 33.7279 228.995 33.0772 228.6C32.4266 228.205 31.9146 227.667 31.5412 226.984C31.1679 226.291 30.9812 225.517 30.9812 224.664C30.9812 223.8 31.1626 223.032 31.5252 222.36C31.8986 221.688 32.3999 221.16 33.0292 220.776C33.6692 220.381 34.3839 220.184 35.1732 220.184C35.8132 220.184 36.3786 220.301 36.8692 220.536C37.3706 220.76 37.7919 221.069 38.1332 221.464C38.4852 221.848 38.7519 222.291 38.9333 222.792C39.1252 223.283 39.2212 223.795 39.2212 224.328C39.2212 224.445 39.2106 224.579 39.1892 224.728C39.1786 224.867 39.1626 225 39.1412 225.128H32.0692V223.848H38.2773L37.5732 224.424C37.6692 223.869 37.6159 223.373 37.4132 222.936C37.2106 222.499 36.9119 222.152 36.5173 221.896C36.1226 221.64 35.6746 221.512 35.1732 221.512C34.6719 221.512 34.2132 221.64 33.7972 221.896C33.3812 222.152 33.0559 222.52 32.8212 223C32.5972 223.469 32.5066 224.029 32.5492 224.68C32.5066 225.309 32.6026 225.864 32.8372 226.344C33.0826 226.813 33.4239 227.181 33.8612 227.448C34.3092 227.704 34.7946 227.832 35.3172 227.832C35.8932 227.832 36.3786 227.699 36.7733 227.432C37.1679 227.165 37.4879 226.824 37.7333 226.408L38.9812 227.048C38.8106 227.443 38.5439 227.805 38.1812 228.136C37.8292 228.456 37.4079 228.712 36.9173 228.904C36.4372 229.096 35.8986 229.192 35.3012 229.192ZM45.815 229.192C45.2497 229.192 44.7483 229.091 44.311 228.888C43.8843 228.675 43.5483 228.387 43.303 228.024C43.0577 227.651 42.935 227.224 42.935 226.744C42.935 226.285 43.031 225.875 43.223 225.512C43.4257 225.139 43.735 224.824 44.151 224.568C44.5777 224.312 45.111 224.131 45.751 224.024L48.951 223.496V224.744L46.087 225.224C45.5323 225.32 45.127 225.496 44.871 225.752C44.6257 226.008 44.503 226.323 44.503 226.696C44.503 227.048 44.6417 227.341 44.919 227.576C45.207 227.811 45.5643 227.928 45.991 227.928C46.535 227.928 47.0043 227.816 47.399 227.592C47.8043 227.357 48.119 227.043 48.343 226.648C48.5777 226.253 48.695 225.816 48.695 225.336V223.144C48.695 222.675 48.519 222.296 48.167 222.008C47.8257 221.709 47.3723 221.56 46.807 221.56C46.3163 221.56 45.879 221.688 45.495 221.944C45.1217 222.189 44.8443 222.52 44.663 222.936L43.367 222.264C43.527 221.869 43.783 221.517 44.135 221.208C44.487 220.888 44.8977 220.637 45.367 220.456C45.8363 220.275 46.327 220.184 46.839 220.184C47.5003 220.184 48.0817 220.312 48.583 220.568C49.0843 220.813 49.4737 221.16 49.751 221.608C50.039 222.045 50.183 222.557 50.183 223.144V229H48.727V227.368L48.999 227.464C48.8177 227.805 48.5723 228.104 48.263 228.36C47.9537 228.616 47.591 228.819 47.175 228.968C46.759 229.117 46.3057 229.192 45.815 229.192ZM55.5277 229V221.8H53.8797V220.376H55.5277V219.768C55.5277 219.149 55.6611 218.627 55.9277 218.2C56.2051 217.773 56.5677 217.448 57.0157 217.224C57.4744 217 57.9811 216.888 58.5357 216.888C58.6531 216.888 58.7811 216.899 58.9197 216.92C59.0691 216.931 59.1917 216.947 59.2877 216.968V218.296C59.2024 218.275 59.1011 218.264 58.9837 218.264C58.8664 218.253 58.7757 218.248 58.7117 218.248C58.2211 218.248 57.8157 218.365 57.4957 218.6C57.1864 218.835 57.0317 219.224 57.0317 219.768V220.376H59.0797V221.8H57.0317V229H55.5277ZM60.5457 229V220.376H62.0017V221.96L61.8417 221.736C62.0444 221.245 62.3537 220.883 62.7697 220.648C63.1857 220.403 63.6924 220.28 64.2897 220.28H64.8177V221.688H64.0657C63.4577 221.688 62.9671 221.88 62.5937 222.264C62.2204 222.637 62.0337 223.171 62.0337 223.864V229H60.5457ZM65.8195 229V220.376H67.3075V229H65.8195ZM65.8195 219V217.08H67.3075V219H65.8195ZM73.2644 229.192C72.4324 229.192 71.691 228.995 71.0404 228.6C70.3897 228.205 69.8777 227.667 69.5044 226.984C69.131 226.291 68.9444 225.517 68.9444 224.664C68.9444 223.8 69.1257 223.032 69.4884 222.36C69.8617 221.688 70.363 221.16 70.9924 220.776C71.6324 220.381 72.347 220.184 73.1364 220.184C73.7764 220.184 74.3417 220.301 74.8324 220.536C75.3337 220.76 75.755 221.069 76.0964 221.464C76.4484 221.848 76.715 222.291 76.8964 222.792C77.0884 223.283 77.1844 223.795 77.1844 224.328C77.1844 224.445 77.1737 224.579 77.1524 224.728C77.1417 224.867 77.1257 225 77.1044 225.128H70.0324V223.848H76.2404L75.5364 224.424C75.6324 223.869 75.579 223.373 75.3764 222.936C75.1737 222.499 74.875 222.152 74.4804 221.896C74.0857 221.64 73.6377 221.512 73.1364 221.512C72.635 221.512 72.1764 221.64 71.7604 221.896C71.3444 222.152 71.019 222.52 70.7844 223C70.5604 223.469 70.4697 224.029 70.5124 224.68C70.4697 225.309 70.5657 225.864 70.8004 226.344C71.0457 226.813 71.387 227.181 71.8244 227.448C72.2724 227.704 72.7577 227.832 73.2804 227.832C73.8564 227.832 74.3417 227.699 74.7364 227.432C75.131 227.165 75.451 226.824 75.6964 226.408L76.9444 227.048C76.7737 227.443 76.507 227.805 76.1444 228.136C75.7924 228.456 75.371 228.712 74.8804 228.904C74.4004 229.096 73.8617 229.192 73.2644 229.192ZM78.8045 229V220.376H80.2605V222.056L80.0205 221.912C80.2338 221.368 80.5752 220.947 81.0445 220.648C81.5245 220.339 82.0845 220.184 82.7245 220.184C83.3432 220.184 83.8925 220.323 84.3725 220.6C84.8632 220.877 85.2472 221.261 85.5245 221.752C85.8125 222.243 85.9565 222.797 85.9565 223.416V229H84.4525V223.896C84.4525 223.416 84.3672 223.011 84.1965 222.68C84.0258 222.349 83.7805 222.093 83.4605 221.912C83.1512 221.72 82.7938 221.624 82.3885 221.624C81.9832 221.624 81.6205 221.72 81.3005 221.912C80.9912 222.093 80.7458 222.355 80.5645 222.696C80.3832 223.027 80.2925 223.427 80.2925 223.896V229H78.8045ZM91.6857 229.192C90.8751 229.192 90.1444 228.995 89.4937 228.6C88.8537 228.205 88.3471 227.667 87.9737 226.984C87.6004 226.301 87.4137 225.539 87.4137 224.696C87.4137 223.832 87.6004 223.064 87.9737 222.392C88.3471 221.709 88.8537 221.171 89.4937 220.776C90.1444 220.381 90.8751 220.184 91.6857 220.184C92.4004 220.184 93.0351 220.339 93.5897 220.648C94.1444 220.947 94.5817 221.352 94.9017 221.864L94.6617 222.232V216.888H96.1657V229H94.7097V227.16L94.9017 227.416C94.6031 227.981 94.1657 228.419 93.5897 228.728C93.0244 229.037 92.3897 229.192 91.6857 229.192ZM91.8137 227.752C92.3577 227.752 92.8431 227.619 93.2697 227.352C93.6964 227.085 94.0324 226.723 94.2777 226.264C94.5337 225.795 94.6617 225.272 94.6617 224.696C94.6617 224.109 94.5337 223.587 94.2777 223.128C94.0324 222.659 93.6964 222.291 93.2697 222.024C92.8431 221.757 92.3577 221.624 91.8137 221.624C91.2804 221.624 90.7951 221.763 90.3577 222.04C89.9311 222.307 89.5951 222.669 89.3497 223.128C89.1044 223.576 88.9817 224.099 88.9817 224.696C88.9817 225.272 89.1044 225.795 89.3497 226.264C89.5951 226.723 89.9311 227.085 90.3577 227.352C90.7844 227.619 91.2697 227.752 91.8137 227.752Z" fill="#131313" fill-opacity="0.6"/>
<path d="M8.48 24.24C7.42667 24.24 6.44667 24.0467 5.54 23.66C4.64667 23.2733 3.86667 22.74 3.2 22.06C2.54667 21.3667 2.03333 20.5533 1.66 19.62C1.28667 18.6867 1.1 17.66 1.1 16.54C1.1 15.4333 1.28 14.4133 1.64 13.48C2.01333 12.5333 2.53333 11.72 3.2 11.04C3.86667 10.3467 4.64667 9.81333 5.54 9.44C6.43333 9.05333 7.41333 8.86 8.48 8.86C9.53333 8.86 10.4733 9.04 11.3 9.4C12.14 9.76 12.8467 10.2333 13.42 10.82C13.9933 11.3933 14.4067 12.02 14.66 12.7L12.54 13.7C12.22 12.9 11.7067 12.2533 11 11.76C10.3067 11.2533 9.46667 11 8.48 11C7.49333 11 6.62 11.2333 5.86 11.7C5.1 12.1667 4.50667 12.8133 4.08 13.64C3.66667 14.4667 3.46 15.4333 3.46 16.54C3.46 17.6467 3.66667 18.62 4.08 19.46C4.50667 20.2867 5.1 20.9333 5.86 21.4C6.62 21.8533 7.49333 22.08 8.48 22.08C9.46667 22.08 10.3067 21.8333 11 21.34C11.7067 20.8467 12.22 20.2 12.54 19.4L14.66 20.4C14.4067 21.0667 13.9933 21.6933 13.42 22.28C12.8467 22.8667 12.14 23.34 11.3 23.7C10.4733 24.06 9.53333 24.24 8.48 24.24ZM21.4916 24.24C20.4516 24.24 19.4982 23.9933 18.6316 23.5C17.7782 23.0067 17.0982 22.3333 16.5916 21.48C16.0849 20.6267 15.8316 19.66 15.8316 18.58C15.8316 17.4867 16.0849 16.52 16.5916 15.68C17.0982 14.8267 17.7782 14.16 18.6316 13.68C19.4849 13.1867 20.4382 12.94 21.4916 12.94C22.5582 12.94 23.5116 13.1867 24.3516 13.68C25.2049 14.16 25.8782 14.8267 26.3716 15.68C26.8782 16.52 27.1316 17.4867 27.1316 18.58C27.1316 19.6733 26.8782 20.6467 26.3716 21.5C25.8649 22.3533 25.1849 23.0267 24.3316 23.52C23.4782 24 22.5316 24.24 21.4916 24.24ZM21.4916 22.14C22.1316 22.14 22.6982 21.9867 23.1916 21.68C23.6849 21.3733 24.0716 20.9533 24.3516 20.42C24.6449 19.8733 24.7916 19.26 24.7916 18.58C24.7916 17.9 24.6449 17.2933 24.3516 16.76C24.0716 16.2267 23.6849 15.8067 23.1916 15.5C22.6982 15.1933 22.1316 15.04 21.4916 15.04C20.8649 15.04 20.2982 15.1933 19.7916 15.5C19.2982 15.8067 18.9049 16.2267 18.6116 16.76C18.3316 17.2933 18.1916 17.9 18.1916 18.58C18.1916 19.26 18.3316 19.8733 18.6116 20.42C18.9049 20.9533 19.2982 21.3733 19.7916 21.68C20.2982 21.9867 20.8649 22.14 21.4916 22.14ZM28.938 24V13.18H31.098V15.52L30.818 15.16C31.0446 14.4267 31.458 13.8733 32.058 13.5C32.658 13.1267 33.3446 12.94 34.118 12.94C34.9846 12.94 35.7513 13.1733 36.418 13.64C37.098 14.0933 37.5513 14.7 37.778 15.46L37.138 15.52C37.458 14.6533 37.9446 14.0067 38.598 13.58C39.2646 13.1533 40.0246 12.94 40.878 12.94C41.6246 12.94 42.298 13.1133 42.898 13.46C43.5113 13.8067 43.998 14.2867 44.358 14.9C44.718 15.5133 44.898 16.2133 44.898 17V24H42.638V17.62C42.638 17.0733 42.538 16.6133 42.338 16.24C42.1513 15.8533 41.8846 15.56 41.538 15.36C41.2046 15.1467 40.8113 15.04 40.358 15.04C39.9046 15.04 39.5046 15.1467 39.158 15.36C38.8113 15.56 38.538 15.8533 38.338 16.24C38.138 16.6267 38.038 17.0867 38.038 17.62V24H35.798V17.62C35.798 17.0733 35.698 16.6133 35.498 16.24C35.3113 15.8533 35.0446 15.56 34.698 15.36C34.3646 15.1467 33.9646 15.04 33.498 15.04C33.0446 15.04 32.6446 15.1467 32.298 15.36C31.9513 15.56 31.678 15.8533 31.478 16.24C31.2913 16.6267 31.198 17.0867 31.198 17.62V24H28.938ZM46.9169 24V13.18H49.0769V15.52L48.7969 15.16C49.0235 14.4267 49.4369 13.8733 50.0369 13.5C50.6369 13.1267 51.3235 12.94 52.0969 12.94C52.9635 12.94 53.7302 13.1733 54.3969 13.64C55.0769 14.0933 55.5302 14.7 55.7569 15.46L55.1169 15.52C55.4369 14.6533 55.9235 14.0067 56.5769 13.58C57.2435 13.1533 58.0035 12.94 58.8569 12.94C59.6035 12.94 60.2769 13.1133 60.8769 13.46C61.4902 13.8067 61.9769 14.2867 62.3369 14.9C62.6969 15.5133 62.8769 16.2133 62.8769 17V24H60.6169V17.62C60.6169 17.0733 60.5169 16.6133 60.3169 16.24C60.1302 15.8533 59.8635 15.56 59.5169 15.36C59.1835 15.1467 58.7902 15.04 58.3369 15.04C57.8835 15.04 57.4835 15.1467 57.1369 15.36C56.7902 15.56 56.5169 15.8533 56.3169 16.24C56.1169 16.6267 56.0169 17.0867 56.0169 17.62V24H53.7769V17.62C53.7769 17.0733 53.6769 16.6133 53.4769 16.24C53.2902 15.8533 53.0235 15.56 52.6769 15.36C52.3435 15.1467 51.9435 15.04 51.4769 15.04C51.0235 15.04 50.6235 15.1467 50.2769 15.36C49.9302 15.56 49.6569 15.8533 49.4569 16.24C49.2702 16.6267 49.1769 17.0867 49.1769 17.62V24H46.9169ZM68.7558 24.24C67.9424 24.24 67.2291 24.06 66.6158 23.7C66.0024 23.3267 65.5224 22.8133 65.1758 22.16C64.8424 21.4933 64.6758 20.7267 64.6758 19.86V13.18H66.9358V19.66C66.9358 20.1533 67.0358 20.5867 67.2358 20.96C67.4358 21.3333 67.7158 21.6267 68.0758 21.84C68.4358 22.04 68.8491 22.14 69.3158 22.14C69.7958 22.14 70.2158 22.0333 70.5758 21.82C70.9358 21.6067 71.2158 21.3067 71.4158 20.92C71.6291 20.5333 71.7358 20.08 71.7358 19.56V13.18H73.9758V24H71.8358V21.88L72.0758 22.16C71.8224 22.8267 71.4024 23.34 70.8158 23.7C70.2291 24.06 69.5424 24.24 68.7558 24.24ZM76.2145 24V13.18H78.3745V15.3L78.1145 15.02C78.3812 14.34 78.8079 13.8267 79.3945 13.48C79.9812 13.12 80.6612 12.94 81.4345 12.94C82.2345 12.94 82.9412 13.1133 83.5545 13.46C84.1679 13.8067 84.6479 14.2867 84.9945 14.9C85.3412 15.5133 85.5145 16.22 85.5145 17.02V24H83.2745V17.62C83.2745 17.0733 83.1745 16.6133 82.9745 16.24C82.7745 15.8533 82.4879 15.56 82.1145 15.36C81.7545 15.1467 81.3412 15.04 80.8745 15.04C80.4079 15.04 79.9879 15.1467 79.6145 15.36C79.2545 15.56 78.9745 15.8533 78.7745 16.24C78.5745 16.6267 78.4745 17.0867 78.4745 17.62V24H76.2145ZM87.5333 24V13.18H89.7933V24H87.5333ZM87.5333 11.7V9.1H89.7933V11.7H87.5333ZM96.7156 24.12C95.5823 24.12 94.7023 23.8 94.0756 23.16C93.449 22.52 93.1356 21.62 93.1356 20.46V15.22H91.2356V13.18H91.5356C92.0423 13.18 92.4356 13.0333 92.7156 12.74C92.9956 12.4467 93.1356 12.0467 93.1356 11.54V10.7H95.3956V13.18H97.8556V15.22H95.3956V20.36C95.3956 20.7333 95.4556 21.0533 95.5756 21.32C95.6956 21.5733 95.889 21.7733 96.1556 21.92C96.4223 22.0533 96.769 22.12 97.1956 22.12C97.3023 22.12 97.4223 22.1133 97.5556 22.1C97.689 22.0867 97.8156 22.0733 97.9356 22.06V24C97.749 24.0267 97.5423 24.0533 97.3156 24.08C97.089 24.1067 96.889 24.12 96.7156 24.12ZM100.701 28.42C100.434 28.42 100.168 28.3933 99.9011 28.34C99.6478 28.3 99.4144 28.2333 99.2011 28.14V26.2C99.3611 26.24 99.5544 26.2733 99.7811 26.3C100.008 26.34 100.228 26.36 100.441 26.36C101.068 26.36 101.528 26.22 101.821 25.94C102.128 25.6733 102.401 25.2533 102.641 24.68L103.361 23.04L103.321 24.94L98.6411 13.18H101.061L104.521 22.2H103.701L107.141 13.18H109.581L104.801 25.18C104.548 25.82 104.228 26.38 103.841 26.86C103.468 27.3533 103.021 27.7333 102.501 28C101.994 28.28 101.394 28.42 100.701 28.42Z" fill="#1A202C"/>
</svg>
