<svg width="292" height="108" viewBox="0 0 292 108" fill="none" xmlns="http://www.w3.org/2000/svg">
<path d="M10.816 35.384C9.30133 35.384 7.89333 35.1067 6.592 34.552C5.312 33.9973 4.20267 33.2293 3.264 32.248C2.34667 31.2453 1.67467 30.0827 1.248 28.76L4.864 27.192C5.44 28.5573 6.272 29.6347 7.36 30.424C8.448 31.192 9.67467 31.576 11.04 31.576C11.808 31.576 12.4693 31.4587 13.024 31.224C13.6 30.968 14.0373 30.6267 14.336 30.2C14.656 29.7733 14.816 29.2613 14.816 28.664C14.816 27.96 14.6027 27.384 14.176 26.936C13.7707 26.4667 13.152 26.104 12.32 25.848L7.744 24.376C5.888 23.8 4.49067 22.936 3.552 21.784C2.61333 20.632 2.144 19.2773 2.144 17.72C2.144 16.3547 2.47467 15.1493 3.136 14.104C3.81867 13.0587 4.75733 12.248 5.952 11.672C7.168 11.0747 8.55467 10.776 10.112 10.776C11.5413 10.776 12.8533 11.032 14.048 11.544C15.2427 12.0347 16.2667 12.728 17.12 13.624C17.9947 14.4987 18.6453 15.5333 19.072 16.728L15.488 18.328C15.0187 17.1333 14.3147 16.216 13.376 15.576C12.4373 14.9147 11.3493 14.584 10.112 14.584C9.38667 14.584 8.74667 14.712 8.192 14.968C7.63733 15.2027 7.2 15.544 6.88 15.992C6.58133 16.4187 6.432 16.9307 6.432 17.528C6.432 18.1893 6.64533 18.776 7.072 19.288C7.49867 19.7787 8.14933 20.1627 9.024 20.44L13.408 21.816C15.3067 22.4347 16.7253 23.288 17.664 24.376C18.624 25.464 19.104 26.808 19.104 28.408C19.104 29.7733 18.752 30.9787 18.048 32.024C17.344 33.0693 16.3733 33.8907 15.136 34.488C13.8987 35.0853 12.4587 35.384 10.816 35.384ZM21.7108 35V10.776H25.9028V21.016L25.3268 20.408C25.7321 19.3627 26.3934 18.5733 27.3108 18.04C28.2494 17.4853 29.3374 17.208 30.5748 17.208C31.8548 17.208 32.9854 17.4853 33.9668 18.04C34.9694 18.5947 35.7481 19.3733 36.3028 20.376C36.8574 21.3573 37.1348 22.4987 37.1348 23.8V35H32.9428V24.792C32.9428 24.024 32.7934 23.3627 32.4948 22.808C32.1961 22.2533 31.7801 21.8267 31.2468 21.528C30.7348 21.208 30.1268 21.048 29.4228 21.048C28.7401 21.048 28.1321 21.208 27.5988 21.528C27.0654 21.8267 26.6494 22.2533 26.3508 22.808C26.0521 23.3627 25.9028 24.024 25.9028 24.792V35H21.7108ZM48.2315 35.384C46.5248 35.384 44.9675 34.9893 43.5595 34.2C42.1728 33.4107 41.0635 32.3333 40.2315 30.968C39.4208 29.6027 39.0155 28.0453 39.0155 26.296C39.0155 24.5467 39.4208 22.9893 40.2315 21.624C41.0635 20.2587 42.1728 19.1813 43.5595 18.392C44.9462 17.6027 46.5035 17.208 48.2315 17.208C49.9382 17.208 51.4848 17.6027 52.8715 18.392C54.2582 19.1813 55.3568 20.2587 56.1675 21.624C56.9995 22.968 57.4155 24.5253 57.4155 26.296C57.4155 28.0453 56.9995 29.6027 56.1675 30.968C55.3355 32.3333 54.2262 33.4107 52.8395 34.2C51.4528 34.9893 49.9168 35.384 48.2315 35.384ZM48.2315 31.544C49.1702 31.544 49.9915 31.32 50.6955 30.872C51.4208 30.424 51.9862 29.8053 52.3915 29.016C52.8182 28.2053 53.0315 27.2987 53.0315 26.296C53.0315 25.272 52.8182 24.376 52.3915 23.608C51.9862 22.8187 51.4208 22.2 50.6955 21.752C49.9915 21.2827 49.1702 21.048 48.2315 21.048C47.2715 21.048 46.4288 21.2827 45.7035 21.752C44.9782 22.2 44.4022 22.8187 43.9755 23.608C43.5702 24.376 43.3675 25.272 43.3675 26.296C43.3675 27.2987 43.5702 28.2053 43.9755 29.016C44.4022 29.8053 44.9782 30.424 45.7035 30.872C46.4288 31.32 47.2715 31.544 48.2315 31.544ZM63.706 35L57.722 17.592H62.138L66.522 30.808L64.986 30.776L69.658 17.592H73.37L78.01 30.776L76.474 30.808L80.858 17.592H85.274L79.29 35H75.546L70.81 21.208H72.218L67.418 35H63.706ZM86.612 35V17.592H90.548V21.464L90.228 20.888C90.6333 19.5867 91.2627 18.68 92.116 18.168C92.9907 17.656 94.036 17.4 95.252 17.4H96.276V21.112H94.772C93.5773 21.112 92.6173 21.4853 91.892 22.232C91.1667 22.9573 90.804 23.9813 90.804 25.304V35H86.612ZM106.133 35.384C104.426 35.384 102.869 34.9893 101.461 34.2C100.074 33.4107 98.9647 32.3333 98.1327 30.968C97.3221 29.6027 96.9167 28.0453 96.9167 26.296C96.9167 24.5467 97.3221 22.9893 98.1327 21.624C98.9647 20.2587 100.074 19.1813 101.461 18.392C102.847 17.6027 104.405 17.208 106.133 17.208C107.839 17.208 109.386 17.6027 110.773 18.392C112.159 19.1813 113.258 20.2587 114.069 21.624C114.901 22.968 115.317 24.5253 115.317 26.296C115.317 28.0453 114.901 29.6027 114.069 30.968C113.237 32.3333 112.127 33.4107 110.741 34.2C109.354 34.9893 107.818 35.384 106.133 35.384ZM106.133 31.544C107.071 31.544 107.893 31.32 108.597 30.872C109.322 30.424 109.887 29.8053 110.293 29.016C110.719 28.2053 110.933 27.2987 110.933 26.296C110.933 25.272 110.719 24.376 110.293 23.608C109.887 22.8187 109.322 22.2 108.597 21.752C107.893 21.2827 107.071 21.048 106.133 21.048C105.173 21.048 104.33 21.2827 103.605 21.752C102.879 22.2 102.303 22.8187 101.877 23.608C101.471 24.376 101.269 25.272 101.269 26.296C101.269 27.2987 101.471 28.2053 101.877 29.016C102.303 29.8053 102.879 30.424 103.605 30.872C104.33 31.32 105.173 31.544 106.133 31.544ZM126.048 35.384C124.341 35.384 122.784 34.9893 121.376 34.2C119.989 33.4107 118.88 32.3333 118.048 30.968C117.237 29.6027 116.832 28.0453 116.832 26.296C116.832 24.5467 117.237 22.9893 118.048 21.624C118.88 20.2587 119.989 19.1813 121.376 18.392C122.762 17.6027 124.32 17.208 126.048 17.208C127.754 17.208 129.301 17.6027 130.688 18.392C132.074 19.1813 133.173 20.2587 133.984 21.624C134.816 22.968 135.232 24.5253 135.232 26.296C135.232 28.0453 134.816 29.6027 133.984 30.968C133.152 32.3333 132.042 33.4107 130.656 34.2C129.269 34.9893 127.733 35.384 126.048 35.384ZM126.048 31.544C126.986 31.544 127.808 31.32 128.512 30.872C129.237 30.424 129.802 29.8053 130.208 29.016C130.634 28.2053 130.848 27.2987 130.848 26.296C130.848 25.272 130.634 24.376 130.208 23.608C129.802 22.8187 129.237 22.2 128.512 21.752C127.808 21.2827 126.986 21.048 126.048 21.048C125.088 21.048 124.245 21.2827 123.52 21.752C122.794 22.2 122.218 22.8187 121.792 23.608C121.386 24.376 121.184 25.272 121.184 26.296C121.184 27.2987 121.386 28.2053 121.792 29.016C122.218 29.8053 122.794 30.424 123.52 30.872C124.245 31.32 125.088 31.544 126.048 31.544ZM137.451 35V17.592H141.387V21.624L140.939 20.952C141.259 19.6933 141.899 18.7547 142.859 18.136C143.819 17.5173 144.949 17.208 146.251 17.208C147.68 17.208 148.939 17.5813 150.027 18.328C151.115 19.0747 151.819 20.056 152.139 21.272L150.955 21.368C151.488 19.9813 152.288 18.9467 153.355 18.264C154.421 17.56 155.648 17.208 157.035 17.208C158.272 17.208 159.371 17.4853 160.331 18.04C161.312 18.5947 162.08 19.3733 162.635 20.376C163.189 21.3573 163.467 22.4987 163.467 23.8V35H159.275V24.792C159.275 24.024 159.136 23.3627 158.859 22.808C158.581 22.2533 158.197 21.8267 157.707 21.528C157.216 21.208 156.619 21.048 155.915 21.048C155.253 21.048 154.667 21.208 154.155 21.528C153.643 21.8267 153.248 22.2533 152.971 22.808C152.693 23.3627 152.555 24.024 152.555 24.792V35H148.363V24.792C148.363 24.024 148.224 23.3627 147.947 22.808C147.669 22.2533 147.275 21.8267 146.763 21.528C146.272 21.208 145.685 21.048 145.003 21.048C144.341 21.048 143.755 21.208 143.243 21.528C142.731 21.8267 142.336 22.2533 142.059 22.808C141.781 23.3627 141.643 24.024 141.643 24.792V35H137.451Z" fill="#FF5C00"/>
<path d="M7.024 79.192C6.18133 79.192 5.392 79.0427 4.656 78.744C3.92 78.4347 3.27467 78.0027 2.72 77.448C2.176 76.8933 1.74933 76.2427 1.44 75.496C1.13067 74.7387 0.976 73.9173 0.976 73.032C0.976 72.136 1.13067 71.3147 1.44 70.568C1.74933 69.8213 2.176 69.1707 2.72 68.616C3.27467 68.0613 3.91467 67.6347 4.64 67.336C5.376 67.0373 6.17067 66.888 7.024 66.888C7.87733 66.888 8.66667 67.0427 9.392 67.352C10.128 67.6507 10.768 68.0773 11.312 68.632C11.8667 69.176 12.2987 69.8213 12.608 70.568C12.928 71.3147 13.088 72.136 13.088 73.032C13.088 73.9173 12.928 74.7387 12.608 75.496C12.2987 76.2427 11.8667 76.8933 11.312 77.448C10.768 78.0027 10.128 78.4347 9.392 78.744C8.66667 79.0427 7.87733 79.192 7.024 79.192ZM7.024 77.736C7.68533 77.736 8.288 77.6187 8.832 77.384C9.376 77.1387 9.84533 76.8027 10.24 76.376C10.6453 75.9387 10.9547 75.4373 11.168 74.872C11.392 74.296 11.504 73.6827 11.504 73.032C11.504 72.3813 11.392 71.7733 11.168 71.208C10.9547 70.6427 10.6453 70.1467 10.24 69.72C9.84533 69.2827 9.376 68.9467 8.832 68.712C8.288 68.4667 7.68533 68.344 7.024 68.344C6.37333 68.344 5.776 68.4667 5.232 68.712C4.688 68.9467 4.21333 69.2827 3.808 69.72C3.41333 70.1467 3.104 70.6427 2.88 71.208C2.656 71.7733 2.544 72.3813 2.544 73.032C2.544 73.6827 2.656 74.296 2.88 74.872C3.104 75.4373 3.41333 75.9387 3.808 76.376C4.21333 76.8027 4.688 77.1387 5.232 77.384C5.776 77.6187 6.37333 77.736 7.024 77.736ZM17.9349 79.192C17.3162 79.192 16.7562 79.048 16.2549 78.76C15.7642 78.472 15.3802 78.072 15.1029 77.56C14.8362 77.0373 14.7029 76.44 14.7029 75.768V70.376H16.1909V75.608C16.1909 76.0347 16.2762 76.408 16.4469 76.728C16.6282 77.048 16.8735 77.2987 17.1829 77.48C17.5029 77.6613 17.8655 77.752 18.2709 77.752C18.6762 77.752 19.0335 77.6613 19.3429 77.48C19.6629 77.2987 19.9082 77.0373 20.0789 76.696C20.2602 76.3547 20.3509 75.9493 20.3509 75.48V70.376H21.8549V79H20.3989V77.32L20.6389 77.464C20.4362 78.008 20.0895 78.4347 19.5989 78.744C19.1189 79.0427 18.5642 79.192 17.9349 79.192ZM23.8401 79V70.376H25.2961V71.96L25.1361 71.736C25.3388 71.2453 25.6481 70.8827 26.0641 70.648C26.4801 70.4027 26.9868 70.28 27.5841 70.28H28.1121V71.688H27.3601C26.7521 71.688 26.2615 71.88 25.8881 72.264C25.5148 72.6373 25.3281 73.1707 25.3281 73.864V79H23.8401ZM33.9595 79L30.5835 70.376H32.2475L34.9515 77.672H34.3755L37.0955 70.376H38.7595L35.3675 79H33.9595ZM39.7708 79V70.376H41.2588V79H39.7708ZM39.7708 69V67.08H41.2588V69H39.7708ZM46.3356 79.192C45.4716 79.192 44.7196 78.9787 44.0796 78.552C43.4396 78.1253 42.9863 77.5493 42.7196 76.824L43.9036 76.248C44.149 76.76 44.485 77.1653 44.9116 77.464C45.3383 77.7627 45.813 77.912 46.3356 77.912C46.805 77.912 47.1943 77.8 47.5036 77.576C47.813 77.352 47.9676 77.0587 47.9676 76.696C47.9676 76.44 47.893 76.2373 47.7436 76.088C47.605 75.928 47.4343 75.8053 47.2316 75.72C47.029 75.624 46.8423 75.5547 46.6716 75.512L45.3756 75.144C44.597 74.92 44.0263 74.6 43.6636 74.184C43.3116 73.768 43.1356 73.2827 43.1356 72.728C43.1356 72.216 43.2636 71.7733 43.5196 71.4C43.7863 71.016 44.1436 70.7173 44.5916 70.504C45.0503 70.2907 45.5623 70.184 46.1276 70.184C46.885 70.184 47.5623 70.376 48.1596 70.76C48.7676 71.144 49.1996 71.6827 49.4556 72.376L48.2396 72.936C48.0476 72.488 47.7596 72.136 47.3756 71.88C46.9916 71.6133 46.5596 71.48 46.0796 71.48C45.6423 71.48 45.2956 71.592 45.0396 71.816C44.7836 72.0293 44.6556 72.3013 44.6556 72.632C44.6556 72.8773 44.7196 73.08 44.8476 73.24C44.9756 73.3893 45.1303 73.5067 45.3116 73.592C45.493 73.6667 45.669 73.7307 45.8396 73.784L47.2476 74.2C47.9516 74.4027 48.4956 74.7173 48.8796 75.144C49.2743 75.5707 49.4716 76.0827 49.4716 76.68C49.4716 77.16 49.3383 77.592 49.0716 77.976C48.805 78.36 48.437 78.6587 47.9676 78.872C47.4983 79.0853 46.9543 79.192 46.3356 79.192ZM51.0995 79V70.376H52.5875V79H51.0995ZM51.0995 69V67.08H52.5875V69H51.0995ZM58.6724 79.192C57.8404 79.192 57.0884 79 56.4164 78.616C55.7444 78.2213 55.211 77.6827 54.8164 77C54.4217 76.3173 54.2244 75.544 54.2244 74.68C54.2244 73.816 54.4164 73.048 54.8004 72.376C55.195 71.704 55.7284 71.1707 56.4004 70.776C57.0724 70.3813 57.8297 70.184 58.6724 70.184C59.5044 70.184 60.2564 70.3813 60.9284 70.776C61.6004 71.16 62.1284 71.688 62.5124 72.36C62.907 73.032 63.1044 73.8053 63.1044 74.68C63.1044 75.5547 62.9017 76.3333 62.4964 77.016C62.091 77.688 61.5524 78.2213 60.8804 78.616C60.219 79 59.483 79.192 58.6724 79.192ZM58.6724 77.752C59.2057 77.752 59.6857 77.6187 60.1124 77.352C60.5497 77.0853 60.891 76.7173 61.1364 76.248C61.3924 75.7787 61.5204 75.256 61.5204 74.68C61.5204 74.0933 61.3924 73.576 61.1364 73.128C60.891 72.6693 60.5497 72.3067 60.1124 72.04C59.6857 71.7627 59.2057 71.624 58.6724 71.624C58.1284 71.624 57.6377 71.7627 57.2004 72.04C56.7737 72.3067 56.4324 72.6693 56.1764 73.128C55.9204 73.576 55.7924 74.0933 55.7924 74.68C55.7924 75.256 55.9204 75.7787 56.1764 76.248C56.4324 76.7173 56.7737 77.0853 57.2004 77.352C57.6377 77.6187 58.1284 77.752 58.6724 77.752ZM64.7251 79V70.376H66.1811V72.056L65.9411 71.912C66.1545 71.368 66.4958 70.9467 66.9651 70.648C67.4451 70.3387 68.0051 70.184 68.6451 70.184C69.2638 70.184 69.8131 70.3227 70.2931 70.6C70.7838 70.8773 71.1678 71.2613 71.4451 71.752C71.7331 72.2427 71.8771 72.7973 71.8771 73.416V79H70.3731V73.896C70.3731 73.416 70.2878 73.0107 70.1171 72.68C69.9465 72.3493 69.7011 72.0933 69.3811 71.912C69.0718 71.72 68.7145 71.624 68.3091 71.624C67.9038 71.624 67.5411 71.72 67.2211 71.912C66.9118 72.0933 66.6665 72.3547 66.4851 72.696C66.3038 73.0267 66.2131 73.4267 66.2131 73.896V79H64.7251ZM76.132 79V70.376H77.62V79H76.132ZM76.132 69V67.08H77.62V69H76.132ZM82.6969 79.192C81.8329 79.192 81.0809 78.9787 80.4409 78.552C79.8009 78.1253 79.3475 77.5493 79.0809 76.824L80.2649 76.248C80.5102 76.76 80.8462 77.1653 81.2729 77.464C81.6995 77.7627 82.1742 77.912 82.6969 77.912C83.1662 77.912 83.5555 77.8 83.8649 77.576C84.1742 77.352 84.3289 77.0587 84.3289 76.696C84.3289 76.44 84.2542 76.2373 84.1049 76.088C83.9662 75.928 83.7955 75.8053 83.5929 75.72C83.3902 75.624 83.2035 75.5547 83.0329 75.512L81.7369 75.144C80.9582 74.92 80.3875 74.6 80.0249 74.184C79.6729 73.768 79.4969 73.2827 79.4969 72.728C79.4969 72.216 79.6249 71.7733 79.8809 71.4C80.1475 71.016 80.5049 70.7173 80.9529 70.504C81.4115 70.2907 81.9235 70.184 82.4889 70.184C83.2462 70.184 83.9235 70.376 84.5209 70.76C85.1289 71.144 85.5609 71.6827 85.8169 72.376L84.6009 72.936C84.4089 72.488 84.1209 72.136 83.7369 71.88C83.3529 71.6133 82.9209 71.48 82.4409 71.48C82.0035 71.48 81.6569 71.592 81.4009 71.816C81.1449 72.0293 81.0169 72.3013 81.0169 72.632C81.0169 72.8773 81.0809 73.08 81.2089 73.24C81.3369 73.3893 81.4915 73.5067 81.6729 73.592C81.8542 73.6667 82.0302 73.7307 82.2009 73.784L83.6089 74.2C84.3129 74.4027 84.8569 74.7173 85.2409 75.144C85.6355 75.5707 85.8329 76.0827 85.8329 76.68C85.8329 77.16 85.6995 77.592 85.4329 77.976C85.1662 78.36 84.7982 78.6587 84.3289 78.872C83.8595 79.0853 83.3155 79.192 82.6969 79.192ZM93.4104 79.096C92.5677 79.096 91.917 78.856 91.4584 78.376C91.0104 77.896 90.7864 77.2187 90.7864 76.344V71.8H89.2184V70.376H89.5384C89.9224 70.376 90.2264 70.2587 90.4504 70.024C90.6744 69.7893 90.7864 69.48 90.7864 69.096V68.392H92.2744V70.376H94.2104V71.8H92.2744V76.296C92.2744 76.584 92.317 76.8347 92.4024 77.048C92.4984 77.2613 92.653 77.432 92.8664 77.56C93.0797 77.6773 93.3624 77.736 93.7144 77.736C93.789 77.736 93.8797 77.7307 93.9864 77.72C94.1037 77.7093 94.2104 77.6987 94.3064 77.688V79C94.1677 79.032 94.013 79.0533 93.8424 79.064C93.6717 79.0853 93.5277 79.096 93.4104 79.096ZM99.7917 79.192C98.9597 79.192 98.2077 79 97.5357 78.616C96.8637 78.2213 96.3304 77.6827 95.9357 77C95.5411 76.3173 95.3437 75.544 95.3437 74.68C95.3437 73.816 95.5357 73.048 95.9197 72.376C96.3144 71.704 96.8477 71.1707 97.5197 70.776C98.1917 70.3813 98.9491 70.184 99.7917 70.184C100.624 70.184 101.376 70.3813 102.048 70.776C102.72 71.16 103.248 71.688 103.632 72.36C104.026 73.032 104.224 73.8053 104.224 74.68C104.224 75.5547 104.021 76.3333 103.616 77.016C103.21 77.688 102.672 78.2213 102 78.616C101.338 79 100.602 79.192 99.7917 79.192ZM99.7917 77.752C100.325 77.752 100.805 77.6187 101.232 77.352C101.669 77.0853 102.01 76.7173 102.256 76.248C102.512 75.7787 102.64 75.256 102.64 74.68C102.64 74.0933 102.512 73.576 102.256 73.128C102.01 72.6693 101.669 72.3067 101.232 72.04C100.805 71.7627 100.325 71.624 99.7917 71.624C99.2477 71.624 98.7571 71.7627 98.3197 72.04C97.8931 72.3067 97.5517 72.6693 97.2957 73.128C97.0397 73.576 96.9117 74.0933 96.9117 74.68C96.9117 75.256 97.0397 75.7787 97.2957 76.248C97.5517 76.7173 97.8931 77.0853 98.3197 77.352C98.7571 77.6187 99.2477 77.752 99.7917 77.752ZM108.29 82.2V70.376H109.746V72.232L109.554 71.864C109.874 71.352 110.311 70.9467 110.866 70.648C111.421 70.3387 112.055 70.184 112.77 70.184C113.581 70.184 114.306 70.3813 114.946 70.776C115.597 71.1707 116.109 71.7093 116.482 72.392C116.855 73.064 117.042 73.832 117.042 74.696C117.042 75.5387 116.855 76.3013 116.482 76.984C116.109 77.6667 115.597 78.2053 114.946 78.6C114.306 78.9947 113.575 79.192 112.754 79.192C112.061 79.192 111.426 79.0373 110.85 78.728C110.285 78.4187 109.847 77.9813 109.538 77.416L109.778 77.16V82.2H108.29ZM112.642 77.752C113.186 77.752 113.671 77.6187 114.098 77.352C114.525 77.0853 114.855 76.7227 115.09 76.264C115.335 75.7947 115.458 75.272 115.458 74.696C115.458 74.0987 115.335 73.576 115.09 73.128C114.855 72.6693 114.525 72.3067 114.098 72.04C113.671 71.7627 113.186 71.624 112.642 71.624C112.098 71.624 111.607 71.7573 111.17 72.024C110.743 72.2907 110.402 72.6587 110.146 73.128C109.901 73.5867 109.778 74.1093 109.778 74.696C109.778 75.272 109.901 75.7947 110.146 76.264C110.402 76.7227 110.743 77.0853 111.17 77.352C111.607 77.6187 112.098 77.752 112.642 77.752ZM118.673 79V70.376H120.129V71.96L119.969 71.736C120.172 71.2453 120.481 70.8827 120.897 70.648C121.313 70.4027 121.82 70.28 122.417 70.28H122.945V71.688H122.193C121.585 71.688 121.095 71.88 120.721 72.264C120.348 72.6373 120.161 73.1707 120.161 73.864V79H118.673ZM128.043 79.192C127.211 79.192 126.459 79 125.787 78.616C125.115 78.2213 124.582 77.6827 124.187 77C123.792 76.3173 123.595 75.544 123.595 74.68C123.595 73.816 123.787 73.048 124.171 72.376C124.566 71.704 125.099 71.1707 125.771 70.776C126.443 70.3813 127.2 70.184 128.043 70.184C128.875 70.184 129.627 70.3813 130.299 70.776C130.971 71.16 131.499 71.688 131.883 72.36C132.278 73.032 132.475 73.8053 132.475 74.68C132.475 75.5547 132.272 76.3333 131.867 77.016C131.462 77.688 130.923 78.2213 130.251 78.616C129.59 79 128.854 79.192 128.043 79.192ZM128.043 77.752C128.576 77.752 129.056 77.6187 129.483 77.352C129.92 77.0853 130.262 76.7173 130.507 76.248C130.763 75.7787 130.891 75.256 130.891 74.68C130.891 74.0933 130.763 73.576 130.507 73.128C130.262 72.6693 129.92 72.3067 129.483 72.04C129.056 71.7627 128.576 71.624 128.043 71.624C127.499 71.624 127.008 71.7627 126.571 72.04C126.144 72.3067 125.803 72.6693 125.547 73.128C125.291 73.576 125.163 74.0933 125.163 74.68C125.163 75.256 125.291 75.7787 125.547 76.248C125.803 76.7173 126.144 77.0853 126.571 77.352C127.008 77.6187 127.499 77.752 128.043 77.752ZM136.34 79L132.964 70.376H134.628L137.332 77.672H136.756L139.476 70.376H141.14L137.748 79H136.34ZM142.151 79V70.376H143.639V79H142.151ZM142.151 69V67.08H143.639V69H142.151ZM149.548 79.192C148.737 79.192 148.006 78.9947 147.356 78.6C146.716 78.2053 146.209 77.6667 145.836 76.984C145.462 76.3013 145.276 75.5387 145.276 74.696C145.276 73.832 145.462 73.064 145.836 72.392C146.209 71.7093 146.716 71.1707 147.356 70.776C148.006 70.3813 148.737 70.184 149.548 70.184C150.262 70.184 150.897 70.3387 151.452 70.648C152.006 70.9467 152.444 71.352 152.764 71.864L152.524 72.232V66.888H154.028V79H152.572V77.16L152.764 77.416C152.465 77.9813 152.028 78.4187 151.452 78.728C150.886 79.0373 150.252 79.192 149.548 79.192ZM149.676 77.752C150.22 77.752 150.705 77.6187 151.132 77.352C151.558 77.0853 151.894 76.7227 152.14 76.264C152.396 75.7947 152.524 75.272 152.524 74.696C152.524 74.1093 152.396 73.5867 152.14 73.128C151.894 72.6587 151.558 72.2907 151.132 72.024C150.705 71.7573 150.22 71.624 149.676 71.624C149.142 71.624 148.657 71.7627 148.22 72.04C147.793 72.3067 147.457 72.6693 147.212 73.128C146.966 73.576 146.844 74.0987 146.844 74.696C146.844 75.272 146.966 75.7947 147.212 76.264C147.457 76.7227 147.793 77.0853 148.22 77.352C148.646 77.6187 149.132 77.752 149.676 77.752ZM159.979 79.192C159.147 79.192 158.405 78.9947 157.755 78.6C157.104 78.2053 156.592 77.6667 156.219 76.984C155.845 76.2907 155.659 75.5173 155.659 74.664C155.659 73.8 155.84 73.032 156.203 72.36C156.576 71.688 157.077 71.16 157.707 70.776C158.347 70.3813 159.061 70.184 159.851 70.184C160.491 70.184 161.056 70.3013 161.547 70.536C162.048 70.76 162.469 71.0693 162.811 71.464C163.163 71.848 163.429 72.2907 163.611 72.792C163.803 73.2827 163.899 73.7947 163.899 74.328C163.899 74.4453 163.888 74.5787 163.867 74.728C163.856 74.8667 163.84 75 163.819 75.128H156.747V73.848H162.955L162.251 74.424C162.347 73.8693 162.293 73.3733 162.091 72.936C161.888 72.4987 161.589 72.152 161.195 71.896C160.8 71.64 160.352 71.512 159.851 71.512C159.349 71.512 158.891 71.64 158.475 71.896C158.059 72.152 157.733 72.52 157.499 73C157.275 73.4693 157.184 74.0293 157.227 74.68C157.184 75.3093 157.28 75.864 157.515 76.344C157.76 76.8133 158.101 77.1813 158.539 77.448C158.987 77.704 159.472 77.832 159.995 77.832C160.571 77.832 161.056 77.6987 161.451 77.432C161.845 77.1653 162.165 76.824 162.411 76.408L163.659 77.048C163.488 77.4427 163.221 77.8053 162.859 78.136C162.507 78.456 162.085 78.712 161.595 78.904C161.115 79.096 160.576 79.192 159.979 79.192ZM171.965 79.192C171.122 79.192 170.37 78.9947 169.709 78.6C169.058 78.2053 168.546 77.6667 168.173 76.984C167.799 76.3013 167.613 75.5333 167.613 74.68C167.613 73.816 167.799 73.048 168.173 72.376C168.546 71.704 169.058 71.1707 169.709 70.776C170.37 70.3813 171.122 70.184 171.965 70.184C172.53 70.184 173.058 70.2853 173.549 70.488C174.039 70.6907 174.471 70.9627 174.845 71.304C175.218 71.6453 175.49 72.0453 175.661 72.504L174.333 73.144C174.13 72.696 173.821 72.3333 173.405 72.056C172.989 71.768 172.509 71.624 171.965 71.624C171.442 71.624 170.967 71.7573 170.541 72.024C170.125 72.2907 169.794 72.6533 169.549 73.112C169.303 73.5707 169.181 74.0987 169.181 74.696C169.181 75.272 169.303 75.7947 169.549 76.264C169.794 76.7227 170.125 77.0853 170.541 77.352C170.967 77.6187 171.442 77.752 171.965 77.752C172.509 77.752 172.989 77.6133 173.405 77.336C173.821 77.048 174.13 76.6693 174.333 76.2L175.661 76.872C175.49 77.32 175.218 77.72 174.845 78.072C174.471 78.4133 174.039 78.6853 173.549 78.888C173.058 79.0907 172.53 79.192 171.965 79.192ZM181.381 79.192C180.549 79.192 179.797 79 179.125 78.616C178.453 78.2213 177.92 77.6827 177.525 77C177.13 76.3173 176.933 75.544 176.933 74.68C176.933 73.816 177.125 73.048 177.509 72.376C177.904 71.704 178.437 71.1707 179.109 70.776C179.781 70.3813 180.538 70.184 181.381 70.184C182.213 70.184 182.965 70.3813 183.637 70.776C184.309 71.16 184.837 71.688 185.221 72.36C185.616 73.032 185.813 73.8053 185.813 74.68C185.813 75.5547 185.61 76.3333 185.205 77.016C184.8 77.688 184.261 78.2213 183.589 78.616C182.928 79 182.192 79.192 181.381 79.192ZM181.381 77.752C181.914 77.752 182.394 77.6187 182.821 77.352C183.258 77.0853 183.6 76.7173 183.845 76.248C184.101 75.7787 184.229 75.256 184.229 74.68C184.229 74.0933 184.101 73.576 183.845 73.128C183.6 72.6693 183.258 72.3067 182.821 72.04C182.394 71.7627 181.914 71.624 181.381 71.624C180.837 71.624 180.346 71.7627 179.909 72.04C179.482 72.3067 179.141 72.6693 178.885 73.128C178.629 73.576 178.501 74.0933 178.501 74.68C178.501 75.256 178.629 75.7787 178.885 76.248C179.141 76.7173 179.482 77.0853 179.909 77.352C180.346 77.6187 180.837 77.752 181.381 77.752ZM187.434 79V70.376H188.89V72.056L188.65 71.912C188.863 71.368 189.205 70.9467 189.674 70.648C190.154 70.3387 190.714 70.184 191.354 70.184C191.973 70.184 192.522 70.3227 193.002 70.6C193.493 70.8773 193.877 71.2613 194.154 71.752C194.442 72.2427 194.586 72.7973 194.586 73.416V79H193.082V73.896C193.082 73.416 192.997 73.0107 192.826 72.68C192.655 72.3493 192.41 72.0933 192.09 71.912C191.781 71.72 191.423 71.624 191.018 71.624C190.613 71.624 190.25 71.72 189.93 71.912C189.621 72.0933 189.375 72.3547 189.194 72.696C189.013 73.0267 188.922 73.4267 188.922 73.896V79H187.434ZM198.639 79L195.263 70.376H196.927L199.631 77.672H199.055L201.775 70.376H203.439L200.047 79H198.639ZM208.262 79.192C207.43 79.192 206.689 78.9947 206.038 78.6C205.387 78.2053 204.875 77.6667 204.502 76.984C204.129 76.2907 203.942 75.5173 203.942 74.664C203.942 73.8 204.123 73.032 204.486 72.36C204.859 71.688 205.361 71.16 205.99 70.776C206.63 70.3813 207.345 70.184 208.134 70.184C208.774 70.184 209.339 70.3013 209.83 70.536C210.331 70.76 210.753 71.0693 211.094 71.464C211.446 71.848 211.713 72.2907 211.894 72.792C212.086 73.2827 212.182 73.7947 212.182 74.328C212.182 74.4453 212.171 74.5787 212.15 74.728C212.139 74.8667 212.123 75 212.102 75.128H205.03V73.848H211.238L210.534 74.424C210.63 73.8693 210.577 73.3733 210.374 72.936C210.171 72.4987 209.873 72.152 209.478 71.896C209.083 71.64 208.635 71.512 208.134 71.512C207.633 71.512 207.174 71.64 206.758 71.896C206.342 72.152 206.017 72.52 205.782 73C205.558 73.4693 205.467 74.0293 205.51 74.68C205.467 75.3093 205.563 75.864 205.798 76.344C206.043 76.8133 206.385 77.1813 206.822 77.448C207.27 77.704 207.755 77.832 208.278 77.832C208.854 77.832 209.339 77.6987 209.734 77.432C210.129 77.1653 210.449 76.824 210.694 76.408L211.942 77.048C211.771 77.4427 211.505 77.8053 211.142 78.136C210.79 78.456 210.369 78.712 209.878 78.904C209.398 79.096 208.859 79.192 208.262 79.192ZM213.802 79V70.376H215.258V72.056L215.018 71.912C215.231 71.368 215.573 70.9467 216.042 70.648C216.522 70.3387 217.082 70.184 217.722 70.184C218.341 70.184 218.89 70.3227 219.37 70.6C219.861 70.8773 220.245 71.2613 220.522 71.752C220.81 72.2427 220.954 72.7973 220.954 73.416V79H219.45V73.896C219.45 73.416 219.365 73.0107 219.194 72.68C219.023 72.3493 218.778 72.0933 218.458 71.912C218.149 71.72 217.791 71.624 217.386 71.624C216.981 71.624 216.618 71.72 216.298 71.912C215.989 72.0933 215.743 72.3547 215.562 72.696C215.381 73.0267 215.29 73.4267 215.29 73.896V79H213.802ZM222.763 79V70.376H224.251V79H222.763ZM222.763 69V67.08H224.251V69H222.763ZM230.208 79.192C229.376 79.192 228.635 78.9947 227.984 78.6C227.333 78.2053 226.821 77.6667 226.448 76.984C226.075 76.2907 225.888 75.5173 225.888 74.664C225.888 73.8 226.069 73.032 226.432 72.36C226.805 71.688 227.307 71.16 227.936 70.776C228.576 70.3813 229.291 70.184 230.08 70.184C230.72 70.184 231.285 70.3013 231.776 70.536C232.277 70.76 232.699 71.0693 233.04 71.464C233.392 71.848 233.659 72.2907 233.84 72.792C234.032 73.2827 234.128 73.7947 234.128 74.328C234.128 74.4453 234.117 74.5787 234.096 74.728C234.085 74.8667 234.069 75 234.048 75.128H226.976V73.848H233.184L232.48 74.424C232.576 73.8693 232.523 73.3733 232.32 72.936C232.117 72.4987 231.819 72.152 231.424 71.896C231.029 71.64 230.581 71.512 230.08 71.512C229.579 71.512 229.12 71.64 228.704 71.896C228.288 72.152 227.963 72.52 227.728 73C227.504 73.4693 227.413 74.0293 227.456 74.68C227.413 75.3093 227.509 75.864 227.744 76.344C227.989 76.8133 228.331 77.1813 228.768 77.448C229.216 77.704 229.701 77.832 230.224 77.832C230.8 77.832 231.285 77.6987 231.68 77.432C232.075 77.1653 232.395 76.824 232.64 76.408L233.888 77.048C233.717 77.4427 233.451 77.8053 233.088 78.136C232.736 78.456 232.315 78.712 231.824 78.904C231.344 79.096 230.805 79.192 230.208 79.192ZM235.748 79V70.376H237.204V72.056L236.964 71.912C237.178 71.368 237.519 70.9467 237.988 70.648C238.468 70.3387 239.028 70.184 239.668 70.184C240.287 70.184 240.836 70.3227 241.316 70.6C241.807 70.8773 242.191 71.2613 242.468 71.752C242.756 72.2427 242.9 72.7973 242.9 73.416V79H241.396V73.896C241.396 73.416 241.311 73.0107 241.14 72.68C240.97 72.3493 240.724 72.0933 240.404 71.912C240.095 71.72 239.738 71.624 239.332 71.624C238.927 71.624 238.564 71.72 238.244 71.912C237.935 72.0933 237.69 72.3547 237.508 72.696C237.327 73.0267 237.236 73.4267 237.236 73.896V79H235.748ZM248.709 79.192C247.867 79.192 247.115 78.9947 246.453 78.6C245.803 78.2053 245.291 77.6667 244.917 76.984C244.544 76.3013 244.357 75.5333 244.357 74.68C244.357 73.816 244.544 73.048 244.917 72.376C245.291 71.704 245.803 71.1707 246.453 70.776C247.115 70.3813 247.867 70.184 248.709 70.184C249.275 70.184 249.803 70.2853 250.293 70.488C250.784 70.6907 251.216 70.9627 251.589 71.304C251.963 71.6453 252.235 72.0453 252.405 72.504L251.077 73.144C250.875 72.696 250.565 72.3333 250.149 72.056C249.733 71.768 249.253 71.624 248.709 71.624C248.187 71.624 247.712 71.7573 247.285 72.024C246.869 72.2907 246.539 72.6533 246.293 73.112C246.048 73.5707 245.925 74.0987 245.925 74.696C245.925 75.272 246.048 75.7947 246.293 76.264C246.539 76.7227 246.869 77.0853 247.285 77.352C247.712 77.6187 248.187 77.752 248.709 77.752C249.253 77.752 249.733 77.6133 250.149 77.336C250.565 77.048 250.875 76.6693 251.077 76.2L252.405 76.872C252.235 77.32 251.963 77.72 251.589 78.072C251.216 78.4133 250.784 78.6853 250.293 78.888C249.803 79.0907 249.275 79.192 248.709 79.192ZM257.998 79.192C257.166 79.192 256.425 78.9947 255.774 78.6C255.123 78.2053 254.611 77.6667 254.238 76.984C253.865 76.2907 253.678 75.5173 253.678 74.664C253.678 73.8 253.859 73.032 254.222 72.36C254.595 71.688 255.097 71.16 255.726 70.776C256.366 70.3813 257.081 70.184 257.87 70.184C258.51 70.184 259.075 70.3013 259.566 70.536C260.067 70.76 260.489 71.0693 260.83 71.464C261.182 71.848 261.449 72.2907 261.63 72.792C261.822 73.2827 261.918 73.7947 261.918 74.328C261.918 74.4453 261.907 74.5787 261.886 74.728C261.875 74.8667 261.859 75 261.838 75.128H254.766V73.848H260.974L260.27 74.424C260.366 73.8693 260.313 73.3733 260.11 72.936C259.907 72.4987 259.609 72.152 259.214 71.896C258.819 71.64 258.371 71.512 257.87 71.512C257.369 71.512 256.91 71.64 256.494 71.896C256.078 72.152 255.753 72.52 255.518 73C255.294 73.4693 255.203 74.0293 255.246 74.68C255.203 75.3093 255.299 75.864 255.534 76.344C255.779 76.8133 256.121 77.1813 256.558 77.448C257.006 77.704 257.491 77.832 258.014 77.832C258.59 77.832 259.075 77.6987 259.47 77.432C259.865 77.1653 260.185 76.824 260.43 76.408L261.678 77.048C261.507 77.4427 261.241 77.8053 260.878 78.136C260.526 78.456 260.105 78.712 259.614 78.904C259.134 79.096 258.595 79.192 257.998 79.192ZM3.68 103.192C3.11467 103.192 2.61333 103.091 2.176 102.888C1.74933 102.675 1.41333 102.387 1.168 102.024C0.922667 101.651 0.8 101.224 0.8 100.744C0.8 100.285 0.896 99.8747 1.088 99.512C1.29067 99.1387 1.6 98.824 2.016 98.568C2.44267 98.312 2.976 98.1307 3.616 98.024L6.816 97.496V98.744L3.952 99.224C3.39733 99.32 2.992 99.496 2.736 99.752C2.49067 100.008 2.368 100.323 2.368 100.696C2.368 101.048 2.50667 101.341 2.784 101.576C3.072 101.811 3.42933 101.928 3.856 101.928C4.4 101.928 4.86933 101.816 5.264 101.592C5.66933 101.357 5.984 101.043 6.208 100.648C6.44267 100.253 6.56 99.816 6.56 99.336V97.144C6.56 96.6747 6.384 96.296 6.032 96.008C5.69067 95.7093 5.23733 95.56 4.672 95.56C4.18133 95.56 3.744 95.688 3.36 95.944C2.98667 96.1893 2.70933 96.52 2.528 96.936L1.232 96.264C1.392 95.8693 1.648 95.5173 2 95.208C2.352 94.888 2.76267 94.6373 3.232 94.456C3.70133 94.2747 4.192 94.184 4.704 94.184C5.36533 94.184 5.94667 94.312 6.448 94.568C6.94933 94.8133 7.33867 95.16 7.616 95.608C7.904 96.0453 8.048 96.5573 8.048 97.144V103H6.592V101.368L6.864 101.464C6.68267 101.805 6.43733 102.104 6.128 102.36C5.81867 102.616 5.456 102.819 5.04 102.968C4.624 103.117 4.17067 103.192 3.68 103.192ZM10.0351 103V94.376H11.4911V96.056L11.2511 95.912C11.4645 95.368 11.8058 94.9467 12.2751 94.648C12.7551 94.3387 13.3151 94.184 13.9551 94.184C14.5738 94.184 15.1231 94.3227 15.6031 94.6C16.0938 94.8773 16.4778 95.2613 16.7551 95.752C17.0431 96.2427 17.1871 96.7973 17.1871 97.416V103H15.6831V97.896C15.6831 97.416 15.5978 97.0107 15.4271 96.68C15.2565 96.3493 15.0111 96.0933 14.6911 95.912C14.3818 95.72 14.0245 95.624 13.6191 95.624C13.2138 95.624 12.8511 95.72 12.5311 95.912C12.2218 96.0933 11.9765 96.3547 11.7951 96.696C11.6138 97.0267 11.5231 97.4267 11.5231 97.896V103H10.0351ZM22.9164 103.192C22.1057 103.192 21.375 102.995 20.7244 102.6C20.0844 102.205 19.5777 101.667 19.2044 100.984C18.831 100.301 18.6444 99.5387 18.6444 98.696C18.6444 97.832 18.831 97.064 19.2044 96.392C19.5777 95.7093 20.0844 95.1707 20.7244 94.776C21.375 94.3813 22.1057 94.184 22.9164 94.184C23.631 94.184 24.2657 94.3387 24.8204 94.648C25.375 94.9467 25.8124 95.352 26.1324 95.864L25.8924 96.232V90.888H27.3964V103H25.9404V101.16L26.1324 101.416C25.8337 101.981 25.3964 102.419 24.8204 102.728C24.255 103.037 23.6204 103.192 22.9164 103.192ZM23.0444 101.752C23.5884 101.752 24.0737 101.619 24.5004 101.352C24.927 101.085 25.263 100.723 25.5084 100.264C25.7644 99.7947 25.8924 99.272 25.8924 98.696C25.8924 98.1093 25.7644 97.5867 25.5084 97.128C25.263 96.6587 24.927 96.2907 24.5004 96.024C24.0737 95.7573 23.5884 95.624 23.0444 95.624C22.511 95.624 22.0257 95.7627 21.5884 96.04C21.1617 96.3067 20.8257 96.6693 20.5804 97.128C20.335 97.576 20.2124 98.0987 20.2124 98.696C20.2124 99.272 20.335 99.7947 20.5804 100.264C20.8257 100.723 21.1617 101.085 21.5884 101.352C22.015 101.619 22.5004 101.752 23.0444 101.752ZM31.8251 103V90.888H33.3131V96.056L33.0411 95.912C33.2545 95.368 33.5958 94.9467 34.0651 94.648C34.5451 94.3387 35.1051 94.184 35.7451 94.184C36.3638 94.184 36.9131 94.3227 37.3931 94.6C37.8838 94.8773 38.2678 95.2613 38.5451 95.752C38.8331 96.2427 38.9771 96.7973 38.9771 97.416V103H37.4731V97.896C37.4731 97.416 37.3825 97.0107 37.2011 96.68C37.0305 96.3493 36.7905 96.0933 36.4811 95.912C36.1718 95.72 35.8145 95.624 35.4091 95.624C35.0145 95.624 34.6571 95.72 34.3371 95.912C34.0171 96.0933 33.7665 96.3547 33.5851 96.696C33.4038 97.0267 33.3131 97.4267 33.3131 97.896V103H31.8251ZM44.7544 103.192C43.9224 103.192 43.181 102.995 42.5304 102.6C41.8797 102.205 41.3677 101.667 40.9944 100.984C40.621 100.291 40.4344 99.5173 40.4344 98.664C40.4344 97.8 40.6157 97.032 40.9784 96.36C41.3517 95.688 41.853 95.16 42.4824 94.776C43.1224 94.3813 43.837 94.184 44.6264 94.184C45.2664 94.184 45.8317 94.3013 46.3224 94.536C46.8237 94.76 47.245 95.0693 47.5864 95.464C47.9384 95.848 48.205 96.2907 48.3864 96.792C48.5784 97.2827 48.6744 97.7947 48.6744 98.328C48.6744 98.4453 48.6637 98.5787 48.6424 98.728C48.6317 98.8667 48.6157 99 48.5944 99.128H41.5224V97.848H47.7304L47.0264 98.424C47.1224 97.8693 47.069 97.3733 46.8664 96.936C46.6637 96.4987 46.365 96.152 45.9704 95.896C45.5757 95.64 45.1277 95.512 44.6264 95.512C44.125 95.512 43.6664 95.64 43.2504 95.896C42.8344 96.152 42.509 96.52 42.2744 97C42.0504 97.4693 41.9597 98.0293 42.0024 98.68C41.9597 99.3093 42.0557 99.864 42.2904 100.344C42.5357 100.813 42.877 101.181 43.3144 101.448C43.7624 101.704 44.2477 101.832 44.7704 101.832C45.3464 101.832 45.8317 101.699 46.2264 101.432C46.621 101.165 46.941 100.824 47.1864 100.408L48.4344 101.048C48.2637 101.443 47.997 101.805 47.6344 102.136C47.2824 102.456 46.861 102.712 46.3704 102.904C45.8904 103.096 45.3517 103.192 44.7544 103.192ZM50.2945 103V90.888H51.7825V103H50.2945ZM53.7714 106.2V94.376H55.2274V96.232L55.0354 95.864C55.3554 95.352 55.7927 94.9467 56.3474 94.648C56.902 94.3387 57.5367 94.184 58.2514 94.184C59.062 94.184 59.7874 94.3813 60.4274 94.776C61.078 95.1707 61.59 95.7093 61.9634 96.392C62.3367 97.064 62.5234 97.832 62.5234 98.696C62.5234 99.5387 62.3367 100.301 61.9634 100.984C61.59 101.667 61.078 102.205 60.4274 102.6C59.7874 102.995 59.0567 103.192 58.2354 103.192C57.542 103.192 56.9074 103.037 56.3314 102.728C55.766 102.419 55.3287 101.981 55.0194 101.416L55.2594 101.16V106.2H53.7714ZM58.1234 101.752C58.6674 101.752 59.1527 101.619 59.5794 101.352C60.006 101.085 60.3367 100.723 60.5714 100.264C60.8167 99.7947 60.9394 99.272 60.9394 98.696C60.9394 98.0987 60.8167 97.576 60.5714 97.128C60.3367 96.6693 60.006 96.3067 59.5794 96.04C59.1527 95.7627 58.6674 95.624 58.1234 95.624C57.5794 95.624 57.0887 95.7573 56.6514 96.024C56.2247 96.2907 55.8834 96.6587 55.6274 97.128C55.382 97.5867 55.2594 98.1093 55.2594 98.696C55.2594 99.272 55.382 99.7947 55.6274 100.264C55.8834 100.723 56.2247 101.085 56.6514 101.352C57.0887 101.619 57.5794 101.752 58.1234 101.752ZM66.6001 103V94.376H68.0881V103H66.6001ZM66.6001 93V91.08H68.0881V93H66.6001ZM70.077 103V94.376H71.533V96.056L71.293 95.912C71.5063 95.368 71.8477 94.9467 72.317 94.648C72.797 94.3387 73.357 94.184 73.997 94.184C74.6157 94.184 75.165 94.3227 75.645 94.6C76.1357 94.8773 76.5197 95.2613 76.797 95.752C77.085 96.2427 77.229 96.7973 77.229 97.416V103H75.725V97.896C75.725 97.416 75.6397 97.0107 75.469 96.68C75.2983 96.3493 75.053 96.0933 74.733 95.912C74.4237 95.72 74.0663 95.624 73.661 95.624C73.2557 95.624 72.893 95.72 72.573 95.912C72.2637 96.0933 72.0183 96.3547 71.837 96.696C71.6557 97.0267 71.565 97.4267 71.565 97.896V103H70.077ZM83.0383 103.192C82.1956 103.192 81.4436 102.995 80.7823 102.6C80.1316 102.205 79.6196 101.667 79.2463 100.984C78.8729 100.301 78.6863 99.5333 78.6863 98.68C78.6863 97.816 78.8729 97.048 79.2463 96.376C79.6196 95.704 80.1316 95.1707 80.7823 94.776C81.4436 94.3813 82.1956 94.184 83.0383 94.184C83.6036 94.184 84.1316 94.2853 84.6223 94.488C85.1129 94.6907 85.5449 94.9627 85.9183 95.304C86.2916 95.6453 86.5636 96.0453 86.7343 96.504L85.4063 97.144C85.2036 96.696 84.8943 96.3333 84.4783 96.056C84.0623 95.768 83.5823 95.624 83.0383 95.624C82.5156 95.624 82.0409 95.7573 81.6143 96.024C81.1983 96.2907 80.8676 96.6533 80.6223 97.112C80.3769 97.5707 80.2543 98.0987 80.2543 98.696C80.2543 99.272 80.3769 99.7947 80.6223 100.264C80.8676 100.723 81.1983 101.085 81.6143 101.352C82.0409 101.619 82.5156 101.752 83.0383 101.752C83.5823 101.752 84.0623 101.613 84.4783 101.336C84.8943 101.048 85.2036 100.669 85.4063 100.2L86.7343 100.872C86.5636 101.32 86.2916 101.72 85.9183 102.072C85.5449 102.413 85.1129 102.685 84.6223 102.888C84.1316 103.091 83.6036 103.192 83.0383 103.192ZM88.3589 103V94.376H89.8149V95.96L89.6549 95.736C89.8575 95.2453 90.1669 94.8827 90.5829 94.648C90.9989 94.4027 91.5055 94.28 92.1029 94.28H92.6309V95.688H91.8789C91.2709 95.688 90.7802 95.88 90.4069 96.264C90.0335 96.6373 89.8469 97.1707 89.8469 97.864V103H88.3589ZM97.6006 103.192C96.7686 103.192 96.0273 102.995 95.3766 102.6C94.726 102.205 94.214 101.667 93.8406 100.984C93.4673 100.291 93.2806 99.5173 93.2806 98.664C93.2806 97.8 93.462 97.032 93.8246 96.36C94.198 95.688 94.6993 95.16 95.3286 94.776C95.9686 94.3813 96.6833 94.184 97.4726 94.184C98.1126 94.184 98.678 94.3013 99.1686 94.536C99.67 94.76 100.091 95.0693 100.433 95.464C100.785 95.848 101.051 96.2907 101.233 96.792C101.425 97.2827 101.521 97.7947 101.521 98.328C101.521 98.4453 101.51 98.5787 101.489 98.728C101.478 98.8667 101.462 99 101.441 99.128H94.3686V97.848H100.577L99.8726 98.424C99.9686 97.8693 99.9153 97.3733 99.7126 96.936C99.51 96.4987 99.2113 96.152 98.8166 95.896C98.422 95.64 97.974 95.512 97.4726 95.512C96.9713 95.512 96.5126 95.64 96.0966 95.896C95.6806 96.152 95.3553 96.52 95.1206 97C94.8966 97.4693 94.806 98.0293 94.8486 98.68C94.806 99.3093 94.902 99.864 95.1366 100.344C95.382 100.813 95.7233 101.181 96.1606 101.448C96.6086 101.704 97.094 101.832 97.6166 101.832C98.1926 101.832 98.678 101.699 99.0726 101.432C99.4673 101.165 99.7873 100.824 100.033 100.408L101.281 101.048C101.11 101.443 100.843 101.805 100.481 102.136C100.129 102.456 99.7073 102.712 99.2166 102.904C98.7366 103.096 98.198 103.192 97.6006 103.192ZM105.559 103.192C104.994 103.192 104.493 103.091 104.055 102.888C103.629 102.675 103.293 102.387 103.047 102.024C102.802 101.651 102.679 101.224 102.679 100.744C102.679 100.285 102.775 99.8747 102.967 99.512C103.17 99.1387 103.479 98.824 103.895 98.568C104.322 98.312 104.855 98.1307 105.495 98.024L108.695 97.496V98.744L105.831 99.224C105.277 99.32 104.871 99.496 104.615 99.752C104.37 100.008 104.247 100.323 104.247 100.696C104.247 101.048 104.386 101.341 104.663 101.576C104.951 101.811 105.309 101.928 105.735 101.928C106.279 101.928 106.749 101.816 107.143 101.592C107.549 101.357 107.863 101.043 108.087 100.648C108.322 100.253 108.439 99.816 108.439 99.336V97.144C108.439 96.6747 108.263 96.296 107.911 96.008C107.57 95.7093 107.117 95.56 106.551 95.56C106.061 95.56 105.623 95.688 105.239 95.944C104.866 96.1893 104.589 96.52 104.407 96.936L103.111 96.264C103.271 95.8693 103.527 95.5173 103.879 95.208C104.231 94.888 104.642 94.6373 105.111 94.456C105.581 94.2747 106.071 94.184 106.583 94.184C107.245 94.184 107.826 94.312 108.327 94.568C108.829 94.8133 109.218 95.16 109.495 95.608C109.783 96.0453 109.927 96.5573 109.927 97.144V103H108.471V101.368L108.743 101.464C108.562 101.805 108.317 102.104 108.007 102.36C107.698 102.616 107.335 102.819 106.919 102.968C106.503 103.117 106.05 103.192 105.559 103.192ZM115.002 103.192C114.138 103.192 113.386 102.979 112.746 102.552C112.106 102.125 111.653 101.549 111.386 100.824L112.57 100.248C112.816 100.76 113.152 101.165 113.578 101.464C114.005 101.763 114.48 101.912 115.002 101.912C115.472 101.912 115.861 101.8 116.17 101.576C116.48 101.352 116.634 101.059 116.634 100.696C116.634 100.44 116.56 100.237 116.41 100.088C116.272 99.928 116.101 99.8053 115.898 99.72C115.696 99.624 115.509 99.5547 115.338 99.512L114.042 99.144C113.264 98.92 112.693 98.6 112.33 98.184C111.978 97.768 111.802 97.2827 111.802 96.728C111.802 96.216 111.93 95.7733 112.186 95.4C112.453 95.016 112.81 94.7173 113.258 94.504C113.717 94.2907 114.229 94.184 114.794 94.184C115.552 94.184 116.229 94.376 116.826 94.76C117.434 95.144 117.866 95.6827 118.122 96.376L116.906 96.936C116.714 96.488 116.426 96.136 116.042 95.88C115.658 95.6133 115.226 95.48 114.746 95.48C114.309 95.48 113.962 95.592 113.706 95.816C113.45 96.0293 113.322 96.3013 113.322 96.632C113.322 96.8773 113.386 97.08 113.514 97.24C113.642 97.3893 113.797 97.5067 113.978 97.592C114.16 97.6667 114.336 97.7307 114.506 97.784L115.914 98.2C116.618 98.4027 117.162 98.7173 117.546 99.144C117.941 99.5707 118.138 100.083 118.138 100.68C118.138 101.16 118.005 101.592 117.738 101.976C117.472 102.36 117.104 102.659 116.634 102.872C116.165 103.085 115.621 103.192 115.002 103.192ZM123.734 103.192C122.902 103.192 122.161 102.995 121.51 102.6C120.86 102.205 120.348 101.667 119.974 100.984C119.601 100.291 119.414 99.5173 119.414 98.664C119.414 97.8 119.596 97.032 119.958 96.36C120.332 95.688 120.833 95.16 121.462 94.776C122.102 94.3813 122.817 94.184 123.606 94.184C124.246 94.184 124.812 94.3013 125.302 94.536C125.804 94.76 126.225 95.0693 126.566 95.464C126.918 95.848 127.185 96.2907 127.366 96.792C127.558 97.2827 127.654 97.7947 127.654 98.328C127.654 98.4453 127.644 98.5787 127.622 98.728C127.612 98.8667 127.596 99 127.574 99.128H120.502V97.848H126.71L126.006 98.424C126.102 97.8693 126.049 97.3733 125.846 96.936C125.644 96.4987 125.345 96.152 124.95 95.896C124.556 95.64 124.108 95.512 123.606 95.512C123.105 95.512 122.646 95.64 122.23 95.896C121.814 96.152 121.489 96.52 121.254 97C121.03 97.4693 120.94 98.0293 120.982 98.68C120.94 99.3093 121.036 99.864 121.27 100.344C121.516 100.813 121.857 101.181 122.294 101.448C122.742 101.704 123.228 101.832 123.75 101.832C124.326 101.832 124.812 101.699 125.206 101.432C125.601 101.165 125.921 100.824 126.166 100.408L127.414 101.048C127.244 101.443 126.977 101.805 126.614 102.136C126.262 102.456 125.841 102.712 125.35 102.904C124.87 103.096 124.332 103.192 123.734 103.192ZM132.184 106.52C131.992 106.52 131.8 106.504 131.608 106.472C131.416 106.451 131.235 106.403 131.064 106.328V105C131.181 105.011 131.325 105.032 131.496 105.064C131.677 105.096 131.853 105.112 132.024 105.112C132.525 105.112 132.904 105 133.16 104.776C133.427 104.552 133.677 104.173 133.912 103.64L134.456 102.344L134.424 103.64L130.744 94.376H132.36L135.224 101.736H134.744L137.592 94.376H139.24L135.352 104.024C135.171 104.483 134.936 104.904 134.648 105.288C134.371 105.672 134.029 105.971 133.624 106.184C133.219 106.408 132.739 106.52 132.184 106.52ZM144.184 103.192C143.352 103.192 142.6 103 141.928 102.616C141.256 102.221 140.722 101.683 140.328 101C139.933 100.317 139.736 99.544 139.736 98.68C139.736 97.816 139.928 97.048 140.312 96.376C140.706 95.704 141.24 95.1707 141.912 94.776C142.584 94.3813 143.341 94.184 144.184 94.184C145.016 94.184 145.768 94.3813 146.44 94.776C147.112 95.16 147.64 95.688 148.024 96.36C148.418 97.032 148.616 97.8053 148.616 98.68C148.616 99.5547 148.413 100.333 148.008 101.016C147.602 101.688 147.064 102.221 146.392 102.616C145.73 103 144.994 103.192 144.184 103.192ZM144.184 101.752C144.717 101.752 145.197 101.619 145.624 101.352C146.061 101.085 146.402 100.717 146.648 100.248C146.904 99.7787 147.032 99.256 147.032 98.68C147.032 98.0933 146.904 97.576 146.648 97.128C146.402 96.6693 146.061 96.3067 145.624 96.04C145.197 95.7627 144.717 95.624 144.184 95.624C143.64 95.624 143.149 95.7627 142.712 96.04C142.285 96.3067 141.944 96.6693 141.688 97.128C141.432 97.576 141.304 98.0933 141.304 98.68C141.304 99.256 141.432 99.7787 141.688 100.248C141.944 100.717 142.285 101.085 142.712 101.352C143.149 101.619 143.64 101.752 144.184 101.752ZM153.292 103.192C152.674 103.192 152.114 103.048 151.612 102.76C151.122 102.472 150.738 102.072 150.46 101.56C150.194 101.037 150.06 100.44 150.06 99.768V94.376H151.548V99.608C151.548 100.035 151.634 100.408 151.804 100.728C151.986 101.048 152.231 101.299 152.54 101.48C152.86 101.661 153.223 101.752 153.628 101.752C154.034 101.752 154.391 101.661 154.7 101.48C155.02 101.299 155.266 101.037 155.436 100.696C155.618 100.355 155.708 99.9493 155.708 99.48V94.376H157.212V103H155.756V101.32L155.996 101.464C155.794 102.008 155.447 102.435 154.956 102.744C154.476 103.043 153.922 103.192 153.292 103.192ZM159.198 103V94.376H160.654V95.96L160.494 95.736C160.696 95.2453 161.006 94.8827 161.422 94.648C161.838 94.4027 162.344 94.28 162.942 94.28H163.47V95.688H162.718C162.11 95.688 161.619 95.88 161.246 96.264C160.872 96.6373 160.686 97.1707 160.686 97.864V103H159.198ZM170.005 103.192C169.141 103.192 168.389 102.979 167.749 102.552C167.109 102.125 166.656 101.549 166.389 100.824L167.573 100.248C167.818 100.76 168.154 101.165 168.581 101.464C169.008 101.763 169.482 101.912 170.005 101.912C170.474 101.912 170.864 101.8 171.173 101.576C171.482 101.352 171.637 101.059 171.637 100.696C171.637 100.44 171.562 100.237 171.413 100.088C171.274 99.928 171.104 99.8053 170.901 99.72C170.698 99.624 170.512 99.5547 170.341 99.512L169.045 99.144C168.266 98.92 167.696 98.6 167.333 98.184C166.981 97.768 166.805 97.2827 166.805 96.728C166.805 96.216 166.933 95.7733 167.189 95.4C167.456 95.016 167.813 94.7173 168.261 94.504C168.72 94.2907 169.232 94.184 169.797 94.184C170.554 94.184 171.232 94.376 171.829 94.76C172.437 95.144 172.869 95.6827 173.125 96.376L171.909 96.936C171.717 96.488 171.429 96.136 171.045 95.88C170.661 95.6133 170.229 95.48 169.749 95.48C169.312 95.48 168.965 95.592 168.709 95.816C168.453 96.0293 168.325 96.3013 168.325 96.632C168.325 96.8773 168.389 97.08 168.517 97.24C168.645 97.3893 168.8 97.5067 168.981 97.592C169.162 97.6667 169.338 97.7307 169.509 97.784L170.917 98.2C171.621 98.4027 172.165 98.7173 172.549 99.144C172.944 99.5707 173.141 100.083 173.141 100.68C173.141 101.16 173.008 101.592 172.741 101.976C172.474 102.36 172.106 102.659 171.637 102.872C171.168 103.085 170.624 103.192 170.005 103.192ZM177.297 103.192C176.732 103.192 176.23 103.091 175.793 102.888C175.366 102.675 175.03 102.387 174.785 102.024C174.54 101.651 174.417 101.224 174.417 100.744C174.417 100.285 174.513 99.8747 174.705 99.512C174.908 99.1387 175.217 98.824 175.633 98.568C176.06 98.312 176.593 98.1307 177.233 98.024L180.433 97.496V98.744L177.569 99.224C177.014 99.32 176.609 99.496 176.353 99.752C176.108 100.008 175.985 100.323 175.985 100.696C175.985 101.048 176.124 101.341 176.401 101.576C176.689 101.811 177.046 101.928 177.473 101.928C178.017 101.928 178.486 101.816 178.881 101.592C179.286 101.357 179.601 101.043 179.825 100.648C180.06 100.253 180.177 99.816 180.177 99.336V97.144C180.177 96.6747 180.001 96.296 179.649 96.008C179.308 95.7093 178.854 95.56 178.289 95.56C177.798 95.56 177.361 95.688 176.977 95.944C176.604 96.1893 176.326 96.52 176.145 96.936L174.849 96.264C175.009 95.8693 175.265 95.5173 175.617 95.208C175.969 94.888 176.38 94.6373 176.849 94.456C177.318 94.2747 177.809 94.184 178.321 94.184C178.982 94.184 179.564 94.312 180.065 94.568C180.566 94.8133 180.956 95.16 181.233 95.608C181.521 96.0453 181.665 96.5573 181.665 97.144V103H180.209V101.368L180.481 101.464C180.3 101.805 180.054 102.104 179.745 102.36C179.436 102.616 179.073 102.819 178.657 102.968C178.241 103.117 177.788 103.192 177.297 103.192ZM183.652 103V90.888H185.14V103H183.652ZM191.097 103.192C190.265 103.192 189.524 102.995 188.873 102.6C188.222 102.205 187.71 101.667 187.337 100.984C186.964 100.291 186.777 99.5173 186.777 98.664C186.777 97.8 186.958 97.032 187.321 96.36C187.694 95.688 188.196 95.16 188.825 94.776C189.465 94.3813 190.18 94.184 190.969 94.184C191.609 94.184 192.174 94.3013 192.665 94.536C193.166 94.76 193.588 95.0693 193.929 95.464C194.281 95.848 194.548 96.2907 194.729 96.792C194.921 97.2827 195.017 97.7947 195.017 98.328C195.017 98.4453 195.006 98.5787 194.985 98.728C194.974 98.8667 194.958 99 194.937 99.128H187.865V97.848H194.073L193.369 98.424C193.465 97.8693 193.412 97.3733 193.209 96.936C193.006 96.4987 192.708 96.152 192.313 95.896C191.918 95.64 191.47 95.512 190.969 95.512C190.468 95.512 190.009 95.64 189.593 95.896C189.177 96.152 188.852 96.52 188.617 97C188.393 97.4693 188.302 98.0293 188.345 98.68C188.302 99.3093 188.398 99.864 188.633 100.344C188.878 100.813 189.22 101.181 189.657 101.448C190.105 101.704 190.59 101.832 191.113 101.832C191.689 101.832 192.174 101.699 192.569 101.432C192.964 101.165 193.284 100.824 193.529 100.408L194.777 101.048C194.606 101.443 194.34 101.805 193.977 102.136C193.625 102.456 193.204 102.712 192.713 102.904C192.233 103.096 191.694 103.192 191.097 103.192ZM199.725 103.192C198.861 103.192 198.109 102.979 197.469 102.552C196.829 102.125 196.376 101.549 196.109 100.824L197.293 100.248C197.538 100.76 197.874 101.165 198.301 101.464C198.728 101.763 199.202 101.912 199.725 101.912C200.194 101.912 200.584 101.8 200.893 101.576C201.202 101.352 201.357 101.059 201.357 100.696C201.357 100.44 201.282 100.237 201.133 100.088C200.994 99.928 200.824 99.8053 200.621 99.72C200.418 99.624 200.232 99.5547 200.061 99.512L198.765 99.144C197.986 98.92 197.416 98.6 197.053 98.184C196.701 97.768 196.525 97.2827 196.525 96.728C196.525 96.216 196.653 95.7733 196.909 95.4C197.176 95.016 197.533 94.7173 197.981 94.504C198.44 94.2907 198.952 94.184 199.517 94.184C200.274 94.184 200.952 94.376 201.549 94.76C202.157 95.144 202.589 95.6827 202.845 96.376L201.629 96.936C201.437 96.488 201.149 96.136 200.765 95.88C200.381 95.6133 199.949 95.48 199.469 95.48C199.032 95.48 198.685 95.592 198.429 95.816C198.173 96.0293 198.045 96.3013 198.045 96.632C198.045 96.8773 198.109 97.08 198.237 97.24C198.365 97.3893 198.52 97.5067 198.701 97.592C198.882 97.6667 199.058 97.7307 199.229 97.784L200.637 98.2C201.341 98.4027 201.885 98.7173 202.269 99.144C202.664 99.5707 202.861 100.083 202.861 100.68C202.861 101.16 202.728 101.592 202.461 101.976C202.194 102.36 201.826 102.659 201.357 102.872C200.888 103.085 200.344 103.192 199.725 103.192ZM211.399 103.192C210.705 103.192 210.071 103.037 209.495 102.728C208.929 102.419 208.492 101.981 208.183 101.416L208.391 101.16V103H206.935V90.888H208.423V96.232L208.199 95.864C208.519 95.352 208.956 94.9467 209.511 94.648C210.065 94.3387 210.7 94.184 211.415 94.184C212.225 94.184 212.951 94.3813 213.591 94.776C214.241 95.1707 214.753 95.7093 215.127 96.392C215.5 97.064 215.687 97.832 215.687 98.696C215.687 99.5387 215.5 100.301 215.127 100.984C214.753 101.667 214.241 102.205 213.591 102.6C212.951 102.995 212.22 103.192 211.399 103.192ZM211.287 101.752C211.831 101.752 212.316 101.619 212.743 101.352C213.169 101.085 213.5 100.723 213.735 100.264C213.98 99.7947 214.103 99.272 214.103 98.696C214.103 98.0987 213.98 97.576 213.735 97.128C213.5 96.6693 213.169 96.3067 212.743 96.04C212.316 95.7627 211.831 95.624 211.287 95.624C210.743 95.624 210.252 95.7573 209.815 96.024C209.388 96.2907 209.047 96.6587 208.791 97.128C208.545 97.5867 208.423 98.1093 208.423 98.696C208.423 99.272 208.545 99.7947 208.791 100.264C209.047 100.723 209.388 101.085 209.815 101.352C210.252 101.619 210.743 101.752 211.287 101.752ZM220.374 103.192C219.755 103.192 219.195 103.048 218.694 102.76C218.203 102.472 217.819 102.072 217.542 101.56C217.275 101.037 217.142 100.44 217.142 99.768V94.376H218.63V99.608C218.63 100.035 218.715 100.408 218.886 100.728C219.067 101.048 219.312 101.299 219.622 101.48C219.942 101.661 220.304 101.752 220.71 101.752C221.115 101.752 221.472 101.661 221.782 101.48C222.102 101.299 222.347 101.037 222.518 100.696C222.699 100.355 222.79 99.9493 222.79 99.48V94.376H224.294V103H222.838V101.32L223.078 101.464C222.875 102.008 222.528 102.435 222.038 102.744C221.558 103.043 221.003 103.192 220.374 103.192ZM229.367 103.192C228.503 103.192 227.751 102.979 227.111 102.552C226.471 102.125 226.018 101.549 225.751 100.824L226.935 100.248C227.18 100.76 227.516 101.165 227.943 101.464C228.37 101.763 228.844 101.912 229.367 101.912C229.836 101.912 230.226 101.8 230.535 101.576C230.844 101.352 230.999 101.059 230.999 100.696C230.999 100.44 230.924 100.237 230.775 100.088C230.636 99.928 230.466 99.8053 230.263 99.72C230.06 99.624 229.874 99.5547 229.703 99.512L228.407 99.144C227.628 98.92 227.058 98.6 226.695 98.184C226.343 97.768 226.167 97.2827 226.167 96.728C226.167 96.216 226.295 95.7733 226.551 95.4C226.818 95.016 227.175 94.7173 227.623 94.504C228.082 94.2907 228.594 94.184 229.159 94.184C229.916 94.184 230.594 94.376 231.191 94.76C231.799 95.144 232.231 95.6827 232.487 96.376L231.271 96.936C231.079 96.488 230.791 96.136 230.407 95.88C230.023 95.6133 229.591 95.48 229.111 95.48C228.674 95.48 228.327 95.592 228.071 95.816C227.815 96.0293 227.687 96.3013 227.687 96.632C227.687 96.8773 227.751 97.08 227.879 97.24C228.007 97.3893 228.162 97.5067 228.343 97.592C228.524 97.6667 228.7 97.7307 228.871 97.784L230.279 98.2C230.983 98.4027 231.527 98.7173 231.911 99.144C232.306 99.5707 232.503 100.083 232.503 100.68C232.503 101.16 232.37 101.592 232.103 101.976C231.836 102.36 231.468 102.659 230.999 102.872C230.53 103.085 229.986 103.192 229.367 103.192ZM234.131 103V94.376H235.619V103H234.131ZM234.131 93V91.08H235.619V93H234.131ZM237.608 103V94.376H239.064V96.056L238.824 95.912C239.037 95.368 239.378 94.9467 239.848 94.648C240.328 94.3387 240.888 94.184 241.528 94.184C242.146 94.184 242.696 94.3227 243.176 94.6C243.666 94.8773 244.05 95.2613 244.328 95.752C244.616 96.2427 244.76 96.7973 244.76 97.416V103H243.256V97.896C243.256 97.416 243.17 97.0107 243 96.68C242.829 96.3493 242.584 96.0933 242.264 95.912C241.954 95.72 241.597 95.624 241.192 95.624C240.786 95.624 240.424 95.72 240.104 95.912C239.794 96.0933 239.549 96.3547 239.368 96.696C239.186 97.0267 239.096 97.4267 239.096 97.896V103H237.608ZM250.537 103.192C249.705 103.192 248.964 102.995 248.313 102.6C247.662 102.205 247.15 101.667 246.777 100.984C246.404 100.291 246.217 99.5173 246.217 98.664C246.217 97.8 246.398 97.032 246.761 96.36C247.134 95.688 247.636 95.16 248.265 94.776C248.905 94.3813 249.62 94.184 250.409 94.184C251.049 94.184 251.614 94.3013 252.105 94.536C252.606 94.76 253.028 95.0693 253.369 95.464C253.721 95.848 253.988 96.2907 254.169 96.792C254.361 97.2827 254.457 97.7947 254.457 98.328C254.457 98.4453 254.446 98.5787 254.425 98.728C254.414 98.8667 254.398 99 254.377 99.128H247.305V97.848H253.513L252.809 98.424C252.905 97.8693 252.852 97.3733 252.649 96.936C252.446 96.4987 252.148 96.152 251.753 95.896C251.358 95.64 250.91 95.512 250.409 95.512C249.908 95.512 249.449 95.64 249.033 95.896C248.617 96.152 248.292 96.52 248.057 97C247.833 97.4693 247.742 98.0293 247.785 98.68C247.742 99.3093 247.838 99.864 248.073 100.344C248.318 100.813 248.66 101.181 249.097 101.448C249.545 101.704 250.03 101.832 250.553 101.832C251.129 101.832 251.614 101.699 252.009 101.432C252.404 101.165 252.724 100.824 252.969 100.408L254.217 101.048C254.046 101.443 253.78 101.805 253.417 102.136C253.065 102.456 252.644 102.712 252.153 102.904C251.673 103.096 251.134 103.192 250.537 103.192ZM259.165 103.192C258.301 103.192 257.549 102.979 256.909 102.552C256.269 102.125 255.816 101.549 255.549 100.824L256.733 100.248C256.978 100.76 257.314 101.165 257.741 101.464C258.168 101.763 258.642 101.912 259.165 101.912C259.634 101.912 260.024 101.8 260.333 101.576C260.642 101.352 260.797 101.059 260.797 100.696C260.797 100.44 260.722 100.237 260.573 100.088C260.434 99.928 260.264 99.8053 260.061 99.72C259.858 99.624 259.672 99.5547 259.501 99.512L258.205 99.144C257.426 98.92 256.856 98.6 256.493 98.184C256.141 97.768 255.965 97.2827 255.965 96.728C255.965 96.216 256.093 95.7733 256.349 95.4C256.616 95.016 256.973 94.7173 257.421 94.504C257.88 94.2907 258.392 94.184 258.957 94.184C259.714 94.184 260.392 94.376 260.989 94.76C261.597 95.144 262.029 95.6827 262.285 96.376L261.069 96.936C260.877 96.488 260.589 96.136 260.205 95.88C259.821 95.6133 259.389 95.48 258.909 95.48C258.472 95.48 258.125 95.592 257.869 95.816C257.613 96.0293 257.485 96.3013 257.485 96.632C257.485 96.8773 257.549 97.08 257.677 97.24C257.805 97.3893 257.96 97.5067 258.141 97.592C258.322 97.6667 258.498 97.7307 258.669 97.784L260.077 98.2C260.781 98.4027 261.325 98.7173 261.709 99.144C262.104 99.5707 262.301 100.083 262.301 100.68C262.301 101.16 262.168 101.592 261.901 101.976C261.634 102.36 261.266 102.659 260.797 102.872C260.328 103.085 259.784 103.192 259.165 103.192ZM267.017 103.192C266.153 103.192 265.401 102.979 264.761 102.552C264.121 102.125 263.668 101.549 263.401 100.824L264.585 100.248C264.83 100.76 265.166 101.165 265.593 101.464C266.02 101.763 266.494 101.912 267.017 101.912C267.486 101.912 267.876 101.8 268.185 101.576C268.494 101.352 268.649 101.059 268.649 100.696C268.649 100.44 268.574 100.237 268.425 100.088C268.286 99.928 268.116 99.8053 267.913 99.72C267.71 99.624 267.524 99.5547 267.353 99.512L266.057 99.144C265.278 98.92 264.708 98.6 264.345 98.184C263.993 97.768 263.817 97.2827 263.817 96.728C263.817 96.216 263.945 95.7733 264.201 95.4C264.468 95.016 264.825 94.7173 265.273 94.504C265.732 94.2907 266.244 94.184 266.809 94.184C267.566 94.184 268.244 94.376 268.841 94.76C269.449 95.144 269.881 95.6827 270.137 96.376L268.921 96.936C268.729 96.488 268.441 96.136 268.057 95.88C267.673 95.6133 267.241 95.48 266.761 95.48C266.324 95.48 265.977 95.592 265.721 95.816C265.465 96.0293 265.337 96.3013 265.337 96.632C265.337 96.8773 265.401 97.08 265.529 97.24C265.657 97.3893 265.812 97.5067 265.993 97.592C266.174 97.6667 266.35 97.7307 266.521 97.784L267.929 98.2C268.633 98.4027 269.177 98.7173 269.561 99.144C269.956 99.5707 270.153 100.083 270.153 100.68C270.153 101.16 270.02 101.592 269.753 101.976C269.486 102.36 269.118 102.659 268.649 102.872C268.18 103.085 267.636 103.192 267.017 103.192ZM272.389 103V101.08H273.941V103H272.389Z" fill="#131313" fill-opacity="0.6"/>
</svg>
