<svg width="152" height="244" viewBox="0 0 152 244" fill="none" xmlns="http://www.w3.org/2000/svg">
<path d="M1.328 85V73.08H5.232C6.43733 73.08 7.488 73.3253 8.384 73.816C9.28 74.3067 9.97333 75 10.464 75.896C10.9547 76.7813 11.2 77.8267 11.2 79.032C11.2 80.2267 10.9547 81.272 10.464 82.168C9.97333 83.064 9.28 83.7627 8.384 84.264C7.488 84.7547 6.43733 85 5.232 85H1.328ZM2.896 83.56H5.248C6.13333 83.56 6.896 83.3733 7.536 83C8.18667 82.6267 8.688 82.104 9.04 81.432C9.392 80.7493 9.568 79.9493 9.568 79.032C9.568 78.104 9.38667 77.304 9.024 76.632C8.672 75.96 8.17067 75.4427 7.52 75.08C6.88 74.7067 6.12267 74.52 5.248 74.52H2.896V83.56ZM12.6914 85V76.376H14.1794V85H12.6914ZM12.6914 75V73.08H14.1794V75H12.6914ZM19.2562 85.192C18.3922 85.192 17.6402 84.9787 17.0002 84.552C16.3602 84.1253 15.9069 83.5493 15.6402 82.824L16.8242 82.248C17.0696 82.76 17.4056 83.1653 17.8322 83.464C18.2589 83.7627 18.7336 83.912 19.2562 83.912C19.7256 83.912 20.1149 83.8 20.4243 83.576C20.7336 83.352 20.8882 83.0587 20.8882 82.696C20.8882 82.44 20.8136 82.2373 20.6642 82.088C20.5256 81.928 20.3549 81.8053 20.1522 81.72C19.9496 81.624 19.7629 81.5547 19.5922 81.512L18.2962 81.144C17.5176 80.92 16.9469 80.6 16.5842 80.184C16.2322 79.768 16.0562 79.2827 16.0562 78.728C16.0562 78.216 16.1842 77.7733 16.4402 77.4C16.7069 77.016 17.0642 76.7173 17.5122 76.504C17.9709 76.2907 18.4829 76.184 19.0482 76.184C19.8056 76.184 20.4829 76.376 21.0802 76.76C21.6882 77.144 22.1202 77.6827 22.3762 78.376L21.1602 78.936C20.9682 78.488 20.6803 78.136 20.2962 77.88C19.9122 77.6133 19.4802 77.48 19.0002 77.48C18.5629 77.48 18.2162 77.592 17.9602 77.816C17.7042 78.0293 17.5762 78.3013 17.5762 78.632C17.5762 78.8773 17.6402 79.08 17.7682 79.24C17.8962 79.3893 18.0509 79.5067 18.2322 79.592C18.4136 79.6667 18.5896 79.7307 18.7602 79.784L20.1683 80.2C20.8722 80.4027 21.4162 80.7173 21.8003 81.144C22.1949 81.5707 22.3923 82.0827 22.3923 82.68C22.3923 83.16 22.2589 83.592 21.9922 83.976C21.7256 84.36 21.3576 84.6587 20.8882 84.872C20.4189 85.0853 19.8749 85.192 19.2562 85.192ZM28.0201 85.192C27.1775 85.192 26.4255 84.9947 25.7641 84.6C25.1135 84.2053 24.6015 83.6667 24.2281 82.984C23.8548 82.3013 23.6681 81.5333 23.6681 80.68C23.6681 79.816 23.8548 79.048 24.2281 78.376C24.6015 77.704 25.1135 77.1707 25.7641 76.776C26.4255 76.3813 27.1775 76.184 28.0201 76.184C28.5855 76.184 29.1135 76.2853 29.6041 76.488C30.0948 76.6907 30.5268 76.9627 30.9001 77.304C31.2735 77.6453 31.5455 78.0453 31.7161 78.504L30.3881 79.144C30.1855 78.696 29.8761 78.3333 29.4601 78.056C29.0441 77.768 28.5641 77.624 28.0201 77.624C27.4975 77.624 27.0228 77.7573 26.5961 78.024C26.1801 78.2907 25.8495 78.6533 25.6041 79.112C25.3588 79.5707 25.2361 80.0987 25.2361 80.696C25.2361 81.272 25.3588 81.7947 25.6041 82.264C25.8495 82.7227 26.1801 83.0853 26.5961 83.352C27.0228 83.6187 27.4975 83.752 28.0201 83.752C28.5641 83.752 29.0441 83.6133 29.4601 83.336C29.8761 83.048 30.1855 82.6693 30.3881 82.2L31.7161 82.872C31.5455 83.32 31.2735 83.72 30.9001 84.072C30.5268 84.4133 30.0948 84.6853 29.6041 84.888C29.1135 85.0907 28.5855 85.192 28.0201 85.192ZM37.4368 85.192C36.6048 85.192 35.8528 85 35.1808 84.616C34.5088 84.2213 33.9754 83.6827 33.5808 83C33.1861 82.3173 32.9888 81.544 32.9888 80.68C32.9888 79.816 33.1808 79.048 33.5648 78.376C33.9594 77.704 34.4928 77.1707 35.1648 76.776C35.8368 76.3813 36.5941 76.184 37.4368 76.184C38.2688 76.184 39.0208 76.3813 39.6928 76.776C40.3648 77.16 40.8928 77.688 41.2768 78.36C41.6714 79.032 41.8688 79.8053 41.8688 80.68C41.8688 81.5547 41.6661 82.3333 41.2608 83.016C40.8554 83.688 40.3168 84.2213 39.6448 84.616C38.9834 85 38.2474 85.192 37.4368 85.192ZM37.4368 83.752C37.9701 83.752 38.4501 83.6187 38.8768 83.352C39.3141 83.0853 39.6554 82.7173 39.9008 82.248C40.1568 81.7787 40.2848 81.256 40.2848 80.68C40.2848 80.0933 40.1568 79.576 39.9008 79.128C39.6554 78.6693 39.3141 78.3067 38.8768 78.04C38.4501 77.7627 37.9701 77.624 37.4368 77.624C36.8928 77.624 36.4021 77.7627 35.9648 78.04C35.5381 78.3067 35.1968 78.6693 34.9408 79.128C34.6848 79.576 34.5568 80.0933 34.5568 80.68C34.5568 81.256 34.6848 81.7787 34.9408 82.248C35.1968 82.7173 35.5381 83.0853 35.9648 83.352C36.4021 83.6187 36.8928 83.752 37.4368 83.752ZM43.4895 85V76.376H44.9455V77.96L44.7855 77.736C44.9882 77.2453 45.2975 76.8827 45.7135 76.648C46.1295 76.4027 46.6362 76.28 47.2335 76.28H47.7615V77.688H47.0095C46.4015 77.688 45.9108 77.88 45.5375 78.264C45.1642 78.6373 44.9775 79.1707 44.9775 79.864V85H43.4895ZM52.6833 85.192C51.8726 85.192 51.1419 84.9947 50.4913 84.6C49.8513 84.2053 49.3446 83.6667 48.9713 82.984C48.5979 82.3013 48.4113 81.5387 48.4113 80.696C48.4113 79.832 48.5979 79.064 48.9713 78.392C49.3446 77.7093 49.8513 77.1707 50.4913 76.776C51.1419 76.3813 51.8726 76.184 52.6833 76.184C53.3979 76.184 54.0326 76.3387 54.5873 76.648C55.1419 76.9467 55.5793 77.352 55.8993 77.864L55.6593 78.232V72.888H57.1633V85H55.7073V83.16L55.8993 83.416C55.6006 83.9813 55.1633 84.4187 54.5873 84.728C54.0219 85.0373 53.3873 85.192 52.6833 85.192ZM52.8113 83.752C53.3553 83.752 53.8406 83.6187 54.2673 83.352C54.6939 83.0853 55.0299 82.7227 55.2753 82.264C55.5313 81.7947 55.6593 81.272 55.6593 80.696C55.6593 80.1093 55.5313 79.5867 55.2753 79.128C55.0299 78.6587 54.6939 78.2907 54.2673 78.024C53.8406 77.7573 53.3553 77.624 52.8113 77.624C52.2779 77.624 51.7926 77.7627 51.3553 78.04C50.9286 78.3067 50.5926 78.6693 50.3473 79.128C50.1019 79.576 49.9793 80.0987 49.9793 80.696C49.9793 81.272 50.1019 81.7947 50.3473 82.264C50.5926 82.7227 50.9286 83.0853 51.3553 83.352C51.7819 83.6187 52.2673 83.752 52.8113 83.752ZM1.328 133V121.08H2.896V133H1.328ZM5.05075 133V124.376H6.50675V126.056L6.26675 125.912C6.48008 125.368 6.82142 124.947 7.29075 124.648C7.77075 124.339 8.33075 124.184 8.97075 124.184C9.58942 124.184 10.1388 124.323 10.6188 124.6C11.1094 124.877 11.4934 125.261 11.7708 125.752C12.0588 126.243 12.2028 126.797 12.2028 127.416V133H10.6988V127.896C10.6988 127.416 10.6134 127.011 10.4428 126.68C10.2721 126.349 10.0268 126.093 9.70675 125.912C9.39742 125.72 9.04008 125.624 8.63475 125.624C8.22942 125.624 7.86675 125.72 7.54675 125.912C7.23742 126.093 6.99208 126.355 6.81075 126.696C6.62942 127.027 6.53875 127.427 6.53875 127.896V133H5.05075ZM17.1 133.192C16.236 133.192 15.484 132.979 14.844 132.552C14.204 132.125 13.7507 131.549 13.484 130.824L14.668 130.248C14.9133 130.76 15.2493 131.165 15.676 131.464C16.1027 131.763 16.5773 131.912 17.1 131.912C17.5693 131.912 17.9587 131.8 18.268 131.576C18.5773 131.352 18.732 131.059 18.732 130.696C18.732 130.44 18.6573 130.237 18.508 130.088C18.3693 129.928 18.1987 129.805 17.996 129.72C17.7933 129.624 17.6067 129.555 17.436 129.512L16.14 129.144C15.3613 128.92 14.7907 128.6 14.428 128.184C14.076 127.768 13.9 127.283 13.9 126.728C13.9 126.216 14.028 125.773 14.284 125.4C14.5507 125.016 14.908 124.717 15.356 124.504C15.8147 124.291 16.3267 124.184 16.892 124.184C17.6493 124.184 18.3267 124.376 18.924 124.76C19.532 125.144 19.964 125.683 20.22 126.376L19.004 126.936C18.812 126.488 18.524 126.136 18.14 125.88C17.756 125.613 17.324 125.48 16.844 125.48C16.4067 125.48 16.06 125.592 15.804 125.816C15.548 126.029 15.42 126.301 15.42 126.632C15.42 126.877 15.484 127.08 15.612 127.24C15.74 127.389 15.8947 127.507 16.076 127.592C16.2573 127.667 16.4333 127.731 16.604 127.784L18.012 128.2C18.716 128.403 19.26 128.717 19.644 129.144C20.0387 129.571 20.236 130.083 20.236 130.68C20.236 131.16 20.1027 131.592 19.836 131.976C19.5693 132.36 19.2013 132.659 18.732 132.872C18.2627 133.085 17.7187 133.192 17.1 133.192ZM25.3679 133.096C24.5252 133.096 23.8745 132.856 23.4159 132.376C22.9679 131.896 22.7439 131.219 22.7439 130.344V125.8H21.1759V124.376H21.4959C21.8799 124.376 22.1839 124.259 22.4079 124.024C22.6319 123.789 22.7439 123.48 22.7439 123.096V122.392H24.2319V124.376H26.1679V125.8H24.2319V130.296C24.2319 130.584 24.2745 130.835 24.3599 131.048C24.4559 131.261 24.6105 131.432 24.8239 131.56C25.0372 131.677 25.3199 131.736 25.6719 131.736C25.7465 131.736 25.8372 131.731 25.9439 131.72C26.0612 131.709 26.1679 131.699 26.2639 131.688V133C26.1252 133.032 25.9705 133.053 25.7999 133.064C25.6292 133.085 25.4852 133.096 25.3679 133.096ZM30.3062 133.192C29.7409 133.192 29.2396 133.091 28.8022 132.888C28.3756 132.675 28.0396 132.387 27.7942 132.024C27.5489 131.651 27.4262 131.224 27.4262 130.744C27.4262 130.285 27.5222 129.875 27.7142 129.512C27.9169 129.139 28.2262 128.824 28.6422 128.568C29.0689 128.312 29.6022 128.131 30.2422 128.024L33.4422 127.496V128.744L30.5782 129.224C30.0236 129.32 29.6182 129.496 29.3622 129.752C29.1169 130.008 28.9942 130.323 28.9942 130.696C28.9942 131.048 29.1329 131.341 29.4102 131.576C29.6982 131.811 30.0556 131.928 30.4822 131.928C31.0262 131.928 31.4956 131.816 31.8902 131.592C32.2956 131.357 32.6102 131.043 32.8342 130.648C33.0689 130.253 33.1862 129.816 33.1862 129.336V127.144C33.1862 126.675 33.0102 126.296 32.6582 126.008C32.3169 125.709 31.8636 125.56 31.2982 125.56C30.8076 125.56 30.3702 125.688 29.9862 125.944C29.6129 126.189 29.3356 126.52 29.1542 126.936L27.8582 126.264C28.0182 125.869 28.2742 125.517 28.6262 125.208C28.9782 124.888 29.3889 124.637 29.8582 124.456C30.3276 124.275 30.8182 124.184 31.3302 124.184C31.9916 124.184 32.5729 124.312 33.0742 124.568C33.5756 124.813 33.9649 125.16 34.2422 125.608C34.5302 126.045 34.6742 126.557 34.6742 127.144V133H33.2182V131.368L33.4902 131.464C33.3089 131.805 33.0636 132.104 32.7542 132.36C32.4449 132.616 32.0822 132.819 31.6662 132.968C31.2502 133.117 30.7969 133.192 30.3062 133.192ZM40.7734 136.52C40.1654 136.52 39.6 136.424 39.0774 136.232C38.5654 136.04 38.1227 135.773 37.7494 135.432C37.3867 135.101 37.1094 134.712 36.9174 134.264L38.3094 133.624C38.4587 134.029 38.7414 134.371 39.1574 134.648C39.584 134.936 40.1174 135.08 40.7574 135.08C41.248 135.08 41.6907 134.984 42.0854 134.792C42.4907 134.611 42.8107 134.333 43.0454 133.96C43.28 133.597 43.3974 133.155 43.3974 132.632V130.696L43.6694 130.984C43.3707 131.571 42.9387 132.019 42.3734 132.328C41.8187 132.637 41.2054 132.792 40.5334 132.792C39.7227 132.792 38.9974 132.605 38.3574 132.232C37.7174 131.848 37.216 131.331 36.8534 130.68C36.4907 130.019 36.3094 129.288 36.3094 128.488C36.3094 127.677 36.4907 126.947 36.8534 126.296C37.216 125.645 37.712 125.133 38.3414 124.76C38.9814 124.376 39.7067 124.184 40.5174 124.184C41.1894 124.184 41.7974 124.339 42.3414 124.648C42.896 124.947 43.3387 125.363 43.6694 125.896L43.4454 126.296V124.376H44.9014V132.632C44.9014 133.379 44.7254 134.045 44.3734 134.632C44.0214 135.219 43.5307 135.677 42.9014 136.008C42.2827 136.349 41.5734 136.52 40.7734 136.52ZM40.6614 131.352C41.1734 131.352 41.632 131.224 42.0374 130.968C42.4534 130.712 42.784 130.371 43.0294 129.944C43.2747 129.507 43.3974 129.021 43.3974 128.488C43.3974 127.965 43.2747 127.485 43.0294 127.048C42.784 126.611 42.4534 126.264 42.0374 126.008C41.632 125.752 41.1734 125.624 40.6614 125.624C40.1387 125.624 39.664 125.752 39.2374 126.008C38.8107 126.264 38.4747 126.611 38.2294 127.048C37.9947 127.475 37.8774 127.955 37.8774 128.488C37.8774 129.021 37.9947 129.507 38.2294 129.944C38.4747 130.371 38.8054 130.712 39.2214 130.968C39.648 131.224 40.128 131.352 40.6614 131.352ZM46.8883 133V124.376H48.3443V125.96L48.1843 125.736C48.3869 125.245 48.6963 124.883 49.1123 124.648C49.5283 124.403 50.0349 124.28 50.6323 124.28H51.1603V125.688H50.4083C49.8003 125.688 49.3096 125.88 48.9363 126.264C48.5629 126.637 48.3763 127.171 48.3763 127.864V133H46.8883ZM54.69 133.192C54.1247 133.192 53.6233 133.091 53.186 132.888C52.7593 132.675 52.4233 132.387 52.178 132.024C51.9327 131.651 51.81 131.224 51.81 130.744C51.81 130.285 51.906 129.875 52.098 129.512C52.3007 129.139 52.61 128.824 53.026 128.568C53.4527 128.312 53.986 128.131 54.626 128.024L57.826 127.496V128.744L54.962 129.224C54.4073 129.32 54.002 129.496 53.746 129.752C53.5007 130.008 53.378 130.323 53.378 130.696C53.378 131.048 53.5167 131.341 53.794 131.576C54.082 131.811 54.4393 131.928 54.866 131.928C55.41 131.928 55.8793 131.816 56.274 131.592C56.6793 131.357 56.994 131.043 57.218 130.648C57.4527 130.253 57.57 129.816 57.57 129.336V127.144C57.57 126.675 57.394 126.296 57.042 126.008C56.7007 125.709 56.2473 125.56 55.682 125.56C55.1913 125.56 54.754 125.688 54.37 125.944C53.9967 126.189 53.7193 126.52 53.538 126.936L52.242 126.264C52.402 125.869 52.658 125.517 53.01 125.208C53.362 124.888 53.7727 124.637 54.242 124.456C54.7113 124.275 55.202 124.184 55.714 124.184C56.3753 124.184 56.9567 124.312 57.458 124.568C57.9593 124.813 58.3487 125.16 58.626 125.608C58.914 126.045 59.058 126.557 59.058 127.144V133H57.602V131.368L57.874 131.464C57.6927 131.805 57.4473 132.104 57.138 132.36C56.8287 132.616 56.466 132.819 56.05 132.968C55.634 133.117 55.1807 133.192 54.69 133.192ZM61.0451 133V124.376H62.5011V126.136L62.2931 125.864C62.5065 125.32 62.8478 124.904 63.3171 124.616C63.7865 124.328 64.3145 124.184 64.9011 124.184C65.5731 124.184 66.1758 124.371 66.7091 124.744C67.2531 125.117 67.6265 125.608 67.8291 126.216L67.4131 126.232C67.6371 125.56 68.0158 125.053 68.5491 124.712C69.0825 124.36 69.6745 124.184 70.3251 124.184C70.9225 124.184 71.4611 124.323 71.9411 124.6C72.4318 124.877 72.8211 125.261 73.1091 125.752C73.3971 126.243 73.5411 126.797 73.5411 127.416V133H72.0371V127.896C72.0371 127.416 71.9518 127.011 71.7811 126.68C71.6105 126.349 71.3758 126.093 71.0771 125.912C70.7891 125.72 70.4478 125.624 70.0531 125.624C69.6691 125.624 69.3225 125.72 69.0131 125.912C68.7145 126.093 68.4745 126.355 68.2931 126.696C68.1225 127.027 68.0371 127.427 68.0371 127.896V133H66.5331V127.896C66.5331 127.416 66.4478 127.011 66.2771 126.68C66.1065 126.349 65.8718 126.093 65.5731 125.912C65.2851 125.72 64.9438 125.624 64.5491 125.624C64.1651 125.624 63.8185 125.72 63.5091 125.912C63.2105 126.093 62.9705 126.355 62.7891 126.696C62.6185 127.027 62.5331 127.427 62.5331 127.896V133H61.0451ZM3.408 181V170.52H0.176V169.08H8.176V170.52H4.992V181H3.408ZM10.5347 181L7.57475 172.376H9.22275L11.5747 179.592L10.9987 179.576L13.3028 172.376H14.7108L17.0148 179.576L16.4387 179.592L18.8068 172.376H20.4388L17.4788 181H16.0547L13.7828 173.8H14.2308L11.9588 181H10.5347ZM21.4495 181V172.376H22.9375V181H21.4495ZM21.4495 171V169.08H22.9375V171H21.4495ZM28.4304 181.096C27.5877 181.096 26.937 180.856 26.4784 180.376C26.0304 179.896 25.8064 179.219 25.8064 178.344V173.8H24.2384V172.376H24.5584C24.9424 172.376 25.2464 172.259 25.4704 172.024C25.6944 171.789 25.8064 171.48 25.8064 171.096V170.392H27.2944V172.376H29.2304V173.8H27.2944V178.296C27.2944 178.584 27.337 178.835 27.4224 179.048C27.5184 179.261 27.673 179.432 27.8864 179.56C28.0997 179.677 28.3824 179.736 28.7344 179.736C28.809 179.736 28.8997 179.731 29.0064 179.72C29.1237 179.709 29.2304 179.699 29.3264 179.688V181C29.1877 181.032 29.033 181.053 28.8624 181.064C28.6917 181.085 28.5477 181.096 28.4304 181.096ZM34.4541 181.096C33.6115 181.096 32.9608 180.856 32.5021 180.376C32.0541 179.896 31.8301 179.219 31.8301 178.344V173.8H30.2621V172.376H30.5821C30.9661 172.376 31.2701 172.259 31.4941 172.024C31.7181 171.789 31.8301 171.48 31.8301 171.096V170.392H33.3181V172.376H35.2541V173.8H33.3181V178.296C33.3181 178.584 33.3608 178.835 33.4461 179.048C33.5421 179.261 33.6968 179.432 33.9101 179.56C34.1235 179.677 34.4061 179.736 34.7581 179.736C34.8328 179.736 34.9235 179.731 35.0301 179.72C35.1475 179.709 35.2541 179.699 35.3501 179.688V181C35.2115 181.032 35.0568 181.053 34.8861 181.064C34.7155 181.085 34.5715 181.096 34.4541 181.096ZM40.7075 181.192C39.8755 181.192 39.1342 180.995 38.4835 180.6C37.8328 180.205 37.3208 179.667 36.9475 178.984C36.5742 178.291 36.3875 177.517 36.3875 176.664C36.3875 175.8 36.5688 175.032 36.9315 174.36C37.3048 173.688 37.8062 173.16 38.4355 172.776C39.0755 172.381 39.7902 172.184 40.5795 172.184C41.2195 172.184 41.7848 172.301 42.2755 172.536C42.7768 172.76 43.1982 173.069 43.5395 173.464C43.8915 173.848 44.1582 174.291 44.3395 174.792C44.5315 175.283 44.6275 175.795 44.6275 176.328C44.6275 176.445 44.6168 176.579 44.5955 176.728C44.5848 176.867 44.5688 177 44.5475 177.128H37.4755V175.848H43.6835L42.9795 176.424C43.0755 175.869 43.0222 175.373 42.8195 174.936C42.6168 174.499 42.3182 174.152 41.9235 173.896C41.5288 173.64 41.0808 173.512 40.5795 173.512C40.0782 173.512 39.6195 173.64 39.2035 173.896C38.7875 174.152 38.4622 174.52 38.2275 175C38.0035 175.469 37.9128 176.029 37.9555 176.68C37.9128 177.309 38.0088 177.864 38.2435 178.344C38.4888 178.813 38.8302 179.181 39.2675 179.448C39.7155 179.704 40.2008 179.832 40.7235 179.832C41.2995 179.832 41.7848 179.699 42.1795 179.432C42.5742 179.165 42.8942 178.824 43.1395 178.408L44.3875 179.048C44.2168 179.443 43.9502 179.805 43.5875 180.136C43.2355 180.456 42.8142 180.712 42.3235 180.904C41.8435 181.096 41.3048 181.192 40.7075 181.192ZM46.2476 181V172.376H47.7036V173.96L47.5436 173.736C47.7463 173.245 48.0556 172.883 48.4716 172.648C48.8876 172.403 49.3943 172.28 49.9916 172.28H50.5196V173.688H49.7676C49.1596 173.688 48.669 173.88 48.2956 174.264C47.9223 174.637 47.7356 175.171 47.7356 175.864V181H46.2476ZM1.328 229V217.08H8.88V218.52H2.896V222.376H8.32V223.816H2.896V229H1.328ZM12.2506 229.192C11.6853 229.192 11.184 229.091 10.7466 228.888C10.32 228.675 9.98396 228.387 9.73863 228.024C9.49329 227.651 9.37063 227.224 9.37063 226.744C9.37063 226.285 9.46663 225.875 9.65863 225.512C9.86129 225.139 10.1706 224.824 10.5866 224.568C11.0133 224.312 11.5466 224.131 12.1866 224.024L15.3866 223.496V224.744L12.5226 225.224C11.968 225.32 11.5626 225.496 11.3066 225.752C11.0613 226.008 10.9386 226.323 10.9386 226.696C10.9386 227.048 11.0773 227.341 11.3546 227.576C11.6426 227.811 12 227.928 12.4266 227.928C12.9706 227.928 13.44 227.816 13.8346 227.592C14.24 227.357 14.5546 227.043 14.7786 226.648C15.0133 226.253 15.1306 225.816 15.1306 225.336V223.144C15.1306 222.675 14.9546 222.296 14.6026 222.008C14.2613 221.709 13.808 221.56 13.2426 221.56C12.752 221.56 12.3146 221.688 11.9306 221.944C11.5573 222.189 11.28 222.52 11.0986 222.936L9.80263 222.264C9.96263 221.869 10.2186 221.517 10.5706 221.208C10.9226 220.888 11.3333 220.637 11.8026 220.456C12.272 220.275 12.7626 220.184 13.2746 220.184C13.936 220.184 14.5173 220.312 15.0186 220.568C15.52 220.813 15.9093 221.16 16.1866 221.608C16.4746 222.045 16.6186 222.557 16.6186 223.144V229H15.1626V227.368L15.4346 227.464C15.2533 227.805 15.008 228.104 14.6986 228.36C14.3893 228.616 14.0266 228.819 13.6106 228.968C13.1946 229.117 12.7413 229.192 12.2506 229.192ZM22.6058 229.192C21.7631 229.192 21.0111 228.995 20.3498 228.6C19.6991 228.205 19.1871 227.667 18.8138 226.984C18.4404 226.301 18.2538 225.533 18.2538 224.68C18.2538 223.816 18.4404 223.048 18.8138 222.376C19.1871 221.704 19.6991 221.171 20.3498 220.776C21.0111 220.381 21.7631 220.184 22.6058 220.184C23.1711 220.184 23.6991 220.285 24.1898 220.488C24.6804 220.691 25.1124 220.963 25.4858 221.304C25.8591 221.645 26.1311 222.045 26.3018 222.504L24.9738 223.144C24.7711 222.696 24.4618 222.333 24.0458 222.056C23.6298 221.768 23.1498 221.624 22.6058 221.624C22.0831 221.624 21.6084 221.757 21.1818 222.024C20.7658 222.291 20.4351 222.653 20.1898 223.112C19.9444 223.571 19.8218 224.099 19.8218 224.696C19.8218 225.272 19.9444 225.795 20.1898 226.264C20.4351 226.723 20.7658 227.085 21.1818 227.352C21.6084 227.619 22.0831 227.752 22.6058 227.752C23.1498 227.752 23.6298 227.613 24.0458 227.336C24.4618 227.048 24.7711 226.669 24.9738 226.2L26.3018 226.872C26.1311 227.32 25.8591 227.72 25.4858 228.072C25.1124 228.413 24.6804 228.685 24.1898 228.888C23.6991 229.091 23.1711 229.192 22.6058 229.192ZM31.8944 229.192C31.0624 229.192 30.321 228.995 29.6704 228.6C29.0197 228.205 28.5077 227.667 28.1344 226.984C27.761 226.291 27.5744 225.517 27.5744 224.664C27.5744 223.8 27.7557 223.032 28.1184 222.36C28.4917 221.688 28.993 221.16 29.6224 220.776C30.2624 220.381 30.977 220.184 31.7664 220.184C32.4064 220.184 32.9717 220.301 33.4624 220.536C33.9637 220.76 34.385 221.069 34.7264 221.464C35.0784 221.848 35.345 222.291 35.5264 222.792C35.7184 223.283 35.8144 223.795 35.8144 224.328C35.8144 224.445 35.8037 224.579 35.7824 224.728C35.7717 224.867 35.7557 225 35.7344 225.128H28.6624V223.848H34.8704L34.1664 224.424C34.2624 223.869 34.209 223.373 34.0064 222.936C33.8037 222.499 33.505 222.152 33.1104 221.896C32.7157 221.64 32.2677 221.512 31.7664 221.512C31.265 221.512 30.8064 221.64 30.3904 221.896C29.9744 222.152 29.649 222.52 29.4144 223C29.1904 223.469 29.0997 224.029 29.1424 224.68C29.0997 225.309 29.1957 225.864 29.4304 226.344C29.6757 226.813 30.017 227.181 30.4544 227.448C30.9024 227.704 31.3877 227.832 31.9104 227.832C32.4864 227.832 32.9717 227.699 33.3664 227.432C33.761 227.165 34.081 226.824 34.3264 226.408L35.5744 227.048C35.4037 227.443 35.137 227.805 34.7744 228.136C34.4224 228.456 34.001 228.712 33.5104 228.904C33.0304 229.096 32.4917 229.192 31.8944 229.192ZM41.8985 229.192C41.2052 229.192 40.5705 229.037 39.9945 228.728C39.4292 228.419 38.9918 227.981 38.6825 227.416L38.8905 227.16V229H37.4345V216.888H38.9225V222.232L38.6985 221.864C39.0185 221.352 39.4558 220.947 40.0105 220.648C40.5652 220.339 41.1998 220.184 41.9145 220.184C42.7252 220.184 43.4505 220.381 44.0905 220.776C44.7412 221.171 45.2532 221.709 45.6265 222.392C45.9998 223.064 46.1865 223.832 46.1865 224.696C46.1865 225.539 45.9998 226.301 45.6265 226.984C45.2532 227.667 44.7412 228.205 44.0905 228.6C43.4505 228.995 42.7198 229.192 41.8985 229.192ZM41.7865 227.752C42.3305 227.752 42.8158 227.619 43.2425 227.352C43.6692 227.085 43.9998 226.723 44.2345 226.264C44.4798 225.795 44.6025 225.272 44.6025 224.696C44.6025 224.099 44.4798 223.576 44.2345 223.128C43.9998 222.669 43.6692 222.307 43.2425 222.04C42.8158 221.763 42.3305 221.624 41.7865 221.624C41.2425 221.624 40.7518 221.757 40.3145 222.024C39.8878 222.291 39.5465 222.659 39.2905 223.128C39.0452 223.587 38.9225 224.109 38.9225 224.696C38.9225 225.272 39.0452 225.795 39.2905 226.264C39.5465 226.723 39.8878 227.085 40.3145 227.352C40.7518 227.619 41.2425 227.752 41.7865 227.752ZM51.9136 229.192C51.0816 229.192 50.3296 229 49.6576 228.616C48.9856 228.221 48.4523 227.683 48.0576 227C47.663 226.317 47.4656 225.544 47.4656 224.68C47.4656 223.816 47.6576 223.048 48.0416 222.376C48.4363 221.704 48.9696 221.171 49.6416 220.776C50.3136 220.381 51.071 220.184 51.9136 220.184C52.7456 220.184 53.4976 220.381 54.1696 220.776C54.8416 221.16 55.3696 221.688 55.7536 222.36C56.1483 223.032 56.3456 223.805 56.3456 224.68C56.3456 225.555 56.143 226.333 55.7376 227.016C55.3323 227.688 54.7936 228.221 54.1216 228.616C53.4603 229 52.7243 229.192 51.9136 229.192ZM51.9136 227.752C52.447 227.752 52.927 227.619 53.3536 227.352C53.791 227.085 54.1323 226.717 54.3776 226.248C54.6336 225.779 54.7616 225.256 54.7616 224.68C54.7616 224.093 54.6336 223.576 54.3776 223.128C54.1323 222.669 53.791 222.307 53.3536 222.04C52.927 221.763 52.447 221.624 51.9136 221.624C51.3696 221.624 50.879 221.763 50.4416 222.04C50.015 222.307 49.6736 222.669 49.4176 223.128C49.1616 223.576 49.0336 224.093 49.0336 224.68C49.0336 225.256 49.1616 225.779 49.4176 226.248C49.6736 226.717 50.015 227.085 50.4416 227.352C50.879 227.619 51.3696 227.752 51.9136 227.752ZM62.0624 229.192C61.2304 229.192 60.4784 229 59.8064 228.616C59.1344 228.221 58.601 227.683 58.2064 227C57.8117 226.317 57.6144 225.544 57.6144 224.68C57.6144 223.816 57.8064 223.048 58.1904 222.376C58.585 221.704 59.1184 221.171 59.7904 220.776C60.4624 220.381 61.2197 220.184 62.0624 220.184C62.8944 220.184 63.6464 220.381 64.3184 220.776C64.9904 221.16 65.5184 221.688 65.9024 222.36C66.297 223.032 66.4944 223.805 66.4944 224.68C66.4944 225.555 66.2917 226.333 65.8864 227.016C65.481 227.688 64.9424 228.221 64.2704 228.616C63.609 229 62.873 229.192 62.0624 229.192ZM62.0624 227.752C62.5957 227.752 63.0757 227.619 63.5024 227.352C63.9397 227.085 64.281 226.717 64.5264 226.248C64.7824 225.779 64.9104 225.256 64.9104 224.68C64.9104 224.093 64.7824 223.576 64.5264 223.128C64.281 222.669 63.9397 222.307 63.5024 222.04C63.0757 221.763 62.5957 221.624 62.0624 221.624C61.5184 221.624 61.0277 221.763 60.5904 222.04C60.1637 222.307 59.8224 222.669 59.5664 223.128C59.3104 223.576 59.1824 224.093 59.1824 224.68C59.1824 225.256 59.3104 225.779 59.5664 226.248C59.8224 226.717 60.1637 227.085 60.5904 227.352C61.0277 227.619 61.5184 227.752 62.0624 227.752ZM68.1151 229V216.888H69.6031V225.192L68.9951 225.048L73.5711 220.376H75.4751L72.1631 223.848L75.6991 229H73.9391L70.7071 224.328L71.6351 224.28L69.1231 226.904L69.6031 225.816V229H68.1151Z" fill="#131313" fill-opacity="0.6"/>
<path d="M6.76 24.24C5.82667 24.24 4.96 24.0667 4.16 23.72C3.36 23.36 2.68 22.8733 2.12 22.26C1.56 21.6467 1.14667 20.94 0.88 20.14L2.88 19.3C3.24 20.22 3.76667 20.9267 4.46 21.42C5.15333 21.9133 5.95333 22.16 6.86 22.16C7.39333 22.16 7.86 22.08 8.26 21.92C8.66 21.7467 8.96667 21.5067 9.18 21.2C9.40667 20.8933 9.52 20.54 9.52 20.14C9.52 19.5933 9.36667 19.16 9.06 18.84C8.75333 18.52 8.3 18.2667 7.7 18.08L4.9 17.2C3.78 16.8533 2.92667 16.3267 2.34 15.62C1.75333 14.9 1.46 14.06 1.46 13.1C1.46 12.26 1.66667 11.5267 2.08 10.9C2.49333 10.26 3.06 9.76 3.78 9.4C4.51333 9.04 5.34667 8.86 6.28 8.86C7.17333 8.86 7.98667 9.02 8.72 9.34C9.45333 9.64667 10.08 10.0733 10.6 10.62C11.1333 11.1667 11.52 11.8 11.76 12.52L9.8 13.38C9.50667 12.5933 9.04667 11.9867 8.42 11.56C7.80667 11.1333 7.09333 10.92 6.28 10.92C5.78667 10.92 5.35333 11.0067 4.98 11.18C4.60667 11.34 4.31333 11.58 4.1 11.9C3.9 12.2067 3.8 12.5667 3.8 12.98C3.8 13.46 3.95333 13.8867 4.26 14.26C4.56667 14.6333 5.03333 14.9133 5.66 15.1L8.26 15.92C9.44667 16.28 10.34 16.8 10.94 17.48C11.54 18.1467 11.84 18.98 11.84 19.98C11.84 20.8067 11.62 21.54 11.18 22.18C10.7533 22.82 10.16 23.3267 9.4 23.7C8.64 24.06 7.76 24.24 6.76 24.24ZM19.0892 24.24C18.0492 24.24 17.0959 23.9933 16.2292 23.5C15.3759 23.0067 14.6959 22.3333 14.1892 21.48C13.6826 20.6267 13.4292 19.66 13.4292 18.58C13.4292 17.4867 13.6826 16.52 14.1892 15.68C14.6959 14.8267 15.3759 14.16 16.2292 13.68C17.0826 13.1867 18.0359 12.94 19.0892 12.94C20.1559 12.94 21.1092 13.1867 21.9492 13.68C22.8026 14.16 23.4759 14.8267 23.9692 15.68C24.4759 16.52 24.7292 17.4867 24.7292 18.58C24.7292 19.6733 24.4759 20.6467 23.9692 21.5C23.4626 22.3533 22.7826 23.0267 21.9292 23.52C21.0759 24 20.1292 24.24 19.0892 24.24ZM19.0892 22.14C19.7292 22.14 20.2959 21.9867 20.7892 21.68C21.2826 21.3733 21.6692 20.9533 21.9492 20.42C22.2426 19.8733 22.3892 19.26 22.3892 18.58C22.3892 17.9 22.2426 17.2933 21.9492 16.76C21.6692 16.2267 21.2826 15.8067 20.7892 15.5C20.2959 15.1933 19.7292 15.04 19.0892 15.04C18.4626 15.04 17.8959 15.1933 17.3892 15.5C16.8959 15.8067 16.5026 16.2267 16.2092 16.76C15.9292 17.2933 15.7892 17.9 15.7892 18.58C15.7892 19.26 15.9292 19.8733 16.2092 20.42C16.5026 20.9533 16.8959 21.3733 17.3892 21.68C17.8959 21.9867 18.4626 22.14 19.0892 22.14ZM31.6756 24.24C30.5956 24.24 29.6356 23.9933 28.7956 23.5C27.969 22.9933 27.309 22.3133 26.8156 21.46C26.3356 20.6067 26.0956 19.64 26.0956 18.56C26.0956 17.4933 26.3356 16.5333 26.8156 15.68C27.2956 14.8267 27.9556 14.16 28.7956 13.68C29.6356 13.1867 30.5956 12.94 31.6756 12.94C32.409 12.94 33.0956 13.0733 33.7356 13.34C34.3756 13.5933 34.929 13.9467 35.3956 14.4C35.8756 14.8533 36.229 15.38 36.4556 15.98L34.4756 16.9C34.249 16.34 33.8823 15.8933 33.3756 15.56C32.8823 15.2133 32.3156 15.04 31.6756 15.04C31.0623 15.04 30.509 15.1933 30.0156 15.5C29.5356 15.7933 29.1556 16.2133 28.8756 16.76C28.5956 17.2933 28.4556 17.9 28.4556 18.58C28.4556 19.26 28.5956 19.8733 28.8756 20.42C29.1556 20.9533 29.5356 21.3733 30.0156 21.68C30.509 21.9867 31.0623 22.14 31.6756 22.14C32.329 22.14 32.8956 21.9733 33.3756 21.64C33.869 21.2933 34.2356 20.8333 34.4756 20.26L36.4556 21.2C36.2423 21.7733 35.8956 22.2933 35.4156 22.76C34.949 23.2133 34.3956 23.5733 33.7556 23.84C33.1156 24.1067 32.4223 24.24 31.6756 24.24ZM38.2645 24V13.18H40.5245V24H38.2645ZM38.2645 11.7V9.1H40.5245V11.7H38.2645ZM46.0069 24.24C45.2735 24.24 44.6269 24.1133 44.0669 23.86C43.5202 23.5933 43.0935 23.2333 42.7869 22.78C42.4802 22.3133 42.3269 21.7667 42.3269 21.14C42.3269 20.5533 42.4535 20.0267 42.7069 19.56C42.9735 19.0933 43.3802 18.7 43.9269 18.38C44.4735 18.06 45.1602 17.8333 45.9869 17.7L49.7469 17.08V18.86L46.4269 19.44C45.8269 19.5467 45.3869 19.74 45.1069 20.02C44.8269 20.2867 44.6869 20.6333 44.6869 21.06C44.6869 21.4733 44.8402 21.8133 45.1469 22.08C45.4669 22.3333 45.8735 22.46 46.3669 22.46C46.9802 22.46 47.5135 22.3267 47.9669 22.06C48.4335 21.7933 48.7935 21.44 49.0469 21C49.3002 20.5467 49.4269 20.0467 49.4269 19.5V16.72C49.4269 16.1867 49.2269 15.7533 48.8269 15.42C48.4402 15.0733 47.9202 14.9 47.2669 14.9C46.6669 14.9 46.1402 15.06 45.6869 15.38C45.2469 15.6867 44.9202 16.0867 44.7069 16.58L42.8269 15.64C43.0269 15.1067 43.3535 14.64 43.8069 14.24C44.2602 13.8267 44.7869 13.5067 45.3869 13.28C46.0002 13.0533 46.6469 12.94 47.3269 12.94C48.1802 12.94 48.9335 13.1 49.5869 13.42C50.2535 13.74 50.7669 14.1867 51.1269 14.76C51.5002 15.32 51.6869 15.9733 51.6869 16.72V24H49.5269V22.04L49.9869 22.1C49.7335 22.54 49.4069 22.92 49.0069 23.24C48.6202 23.56 48.1735 23.8067 47.6669 23.98C47.1735 24.1533 46.6202 24.24 46.0069 24.24ZM53.9294 24V8.86H56.1894V24H53.9294ZM62.4317 24.24C61.3251 24.24 60.3517 23.9667 59.5117 23.42C58.6851 22.8733 58.1051 22.14 57.7717 21.22L59.5117 20.4C59.8051 21.0133 60.2051 21.5 60.7117 21.86C61.2317 22.22 61.8051 22.4 62.4317 22.4C62.9651 22.4 63.3984 22.28 63.7317 22.04C64.0651 21.8 64.2317 21.4733 64.2317 21.06C64.2317 20.7933 64.1584 20.58 64.0117 20.42C63.8651 20.2467 63.6784 20.1067 63.4517 20C63.2384 19.8933 63.0184 19.8133 62.7917 19.76L61.0917 19.28C60.1584 19.0133 59.4584 18.6133 58.9917 18.08C58.5384 17.5333 58.3117 16.9 58.3117 16.18C58.3117 15.5267 58.4784 14.96 58.8117 14.48C59.1451 13.9867 59.6051 13.6067 60.1917 13.34C60.7784 13.0733 61.4384 12.94 62.1717 12.94C63.1584 12.94 64.0384 13.1867 64.8117 13.68C65.5851 14.16 66.1317 14.8333 66.4517 15.7L64.7117 16.52C64.4984 16 64.1584 15.5867 63.6917 15.28C63.2384 14.9733 62.7251 14.82 62.1517 14.82C61.6584 14.82 61.2651 14.94 60.9717 15.18C60.6784 15.4067 60.5317 15.7067 60.5317 16.08C60.5317 16.3333 60.5984 16.5467 60.7317 16.72C60.8651 16.88 61.0384 17.0133 61.2517 17.12C61.4651 17.2133 61.6851 17.2933 61.9117 17.36L63.6717 17.88C64.5651 18.1333 65.2517 18.5333 65.7317 19.08C66.2117 19.6133 66.4517 20.2533 66.4517 21C66.4517 21.64 66.2784 22.2067 65.9317 22.7C65.5984 23.18 65.1317 23.56 64.5317 23.84C63.9317 24.1067 63.2317 24.24 62.4317 24.24Z" fill="#1A202C"/>
</svg>
